<svg width="201" height="80" viewBox="0 0 201 80" fill="none" xmlns="http://www.w3.org/2000/svg">
<rect width="200" height="80" transform="translate(0.5)" fill="white"/>
<path d="M89.5492 57.6859H74.3779L64.3188 37.9737C66.0243 38.3586 67.8931 37.6418 69.9244 35.8321C71.9565 34.0216 72.9752 32.0653 72.9752 29.975C72.9752 29.4806 72.9461 29.1257 72.894 28.9042C72.3405 26.4298 71.0772 24.7304 69.0981 23.7929C67.6662 23.1353 65.5529 22.8033 62.7466 22.8033V57.6859H49.8052V18.5122H68.6902C73.3071 18.5122 76.9918 19.1999 79.7399 20.5735C83.5878 22.5006 85.5087 25.6035 85.5087 29.8937C85.5087 33.3577 83.9427 36.1579 80.8107 38.3056C79.769 38.9633 78.1968 39.6801 76.1126 40.4481L89.5492 57.6859Z" fill="#1C76BC"/>
<path d="M91.186 22.0571H102.619V57.8569H91.186V22.0571Z" fill="black"/>
<path d="M102.484 57.767H91.1912V22.1455H102.491L102.484 57.767Z" fill="#1C76BC"/>
<path d="M147.968 57.767L135.184 57.8491L135.103 29.0673L123.063 57.8491L110.198 29.7303V57.8491H104.016L103.934 25.1081C103.934 23.2923 104.772 21.8657 106.449 20.8179C108.125 19.77 110.006 19.2518 112.096 19.2518H113.167C116.683 19.5255 119.46 21.6971 121.497 25.7658C123.535 29.8354 125.212 33.2993 126.527 36.1577C128.344 31.2089 129.828 27.5534 130.981 25.1902C133.123 21.0103 136.15 18.9199 140.051 18.9199C142.415 18.9199 144.324 19.4964 145.785 20.6493C147.246 21.8013 147.968 23.3735 147.968 25.3474V57.767Z" fill="#1C76BC"/>
<path d="M35.3561 30.4234L22.7413 42.6259C21.8912 43.446 20.7904 43.86 19.6967 43.86C18.5491 43.86 17.4085 43.4116 16.5469 42.5262C14.8644 40.7915 14.9112 38.0152 16.6458 36.338L26.0129 27.2737L16.652 18.2156C14.9165 16.5331 14.8706 13.762 16.5531 12.0274C18.2348 10.2928 21.0058 10.246 22.7466 11.9285L35.3561 24.1302C36.2062 24.9573 36.6891 26.0926 36.6891 27.2737C36.6891 28.4557 36.2062 29.5971 35.3561 30.4181M25.7798 4.95996H5.78247V58.0117H23.4458V47.9932H25.7798C37.6619 47.9932 47.2964 38.3586 47.2964 26.4766C47.2964 14.5945 37.6619 4.95996 25.7798 4.95996Z" fill="#46BCEC"/>
<path d="M175.557 26.8667V19.4673H155.693C152.358 19.4673 149.657 22.1686 149.657 25.5045V51.864C149.657 55.2 152.358 57.9013 155.693 57.9013H175.551V50.4957H156.182V26.8667H175.557Z" fill="#1C76BC"/>
<path d="M159.914 34.9995H173.158V42.3689H159.914V34.9995Z" fill="#46BCEC"/>
<path d="M194.564 37.0891L182.222 19.4673H175.097L188.621 38.7831L175.155 58.0116H182.281L194.558 40.471C195.269 39.4585 195.269 38.0963 194.558 37.0829" fill="#46BCEC"/>
<path d="M18.0132 72.9578H21.2088C21.5522 72.9578 21.7243 73.31 21.7243 74.0136C21.7173 74.7251 21.5354 75.0799 21.1805 75.0799H15.9016C15.2801 75.0799 14.927 74.8098 14.8423 74.2678C14.807 74.8098 14.5148 75.0799 13.9666 75.0799H9.04071C9.14841 75.5672 9.49446 75.8109 10.0789 75.8109H11.3677C12.0898 75.8109 12.4517 76.1622 12.4517 76.8667C12.4517 77.5817 12.0933 77.9401 11.3783 77.9401H10.1212C7.94343 77.9401 6.85498 76.8746 6.85498 74.7445L6.87264 74.0242C6.87264 73.3135 7.21868 72.9578 7.91077 72.9578H11.6466L9.82461 70.7367C9.58891 70.4737 9.49799 70.1153 9.55272 69.6633V69.0418C9.55272 66.9117 10.6385 65.8462 12.8119 65.8462H16.8938C19.0425 65.8462 20.1177 66.9117 20.1177 69.0418V69.8151C20.1292 70.2018 20.0382 70.509 19.8458 70.7367L18.0132 72.9578ZM16.8938 67.9754H12.7766C12.0421 67.9754 11.6749 68.3391 11.6749 69.0665V69.635L14.5174 73.0743C14.6745 73.2632 14.7805 73.4442 14.8352 73.6181C14.882 73.4371 14.9809 73.2561 15.1318 73.0743L18.0026 69.628V69.0136C18.0096 68.3215 17.6398 67.9754 16.8938 67.9754Z" fill="#46BCEC"/>
<path d="M22.4142 66.9019C22.4142 66.2098 22.7682 65.8638 23.4771 65.8638C24.1807 65.8638 24.5329 66.216 24.5329 66.9196V74.0135C24.5329 74.725 24.1807 75.0799 23.4771 75.0799H20.0943C19.7439 75.0799 19.5682 74.7285 19.5682 74.0241C19.5638 73.3135 19.7359 72.9577 20.0837 72.9577H22.4142V66.9019ZM24.1551 75.885C24.3246 75.9785 24.457 76.1074 24.5541 76.2698C24.6432 76.4393 24.6883 76.6168 24.6883 76.803C24.6883 76.9769 24.6432 77.1526 24.5541 77.3292C24.4623 77.4916 24.329 77.6231 24.1551 77.7246C23.9926 77.8138 23.8205 77.8588 23.6395 77.8588C23.4533 77.8588 23.2794 77.8138 23.1169 77.7246C22.9545 77.6231 22.8221 77.4916 22.7214 77.3292C22.6296 77.1526 22.5837 76.9769 22.5837 76.803C22.5837 76.6168 22.6296 76.4393 22.7214 76.2698C22.815 76.1074 22.9474 75.9785 23.1169 75.885C23.2908 75.7931 23.4647 75.7472 23.6395 75.7472C23.8161 75.7472 23.9873 75.7931 24.1551 75.885ZM20.9594 75.7472C21.1333 75.7472 21.3055 75.7931 21.475 75.885C21.6418 75.9785 21.7734 76.1074 21.8705 76.2698C21.9623 76.4393 22.0082 76.6168 22.0082 76.803C22.0082 76.9769 21.9623 77.1526 21.8705 77.3292C21.7804 77.4916 21.6489 77.6231 21.475 77.7246C21.3125 77.8138 21.1404 77.8588 20.9594 77.8588C20.7732 77.8588 20.5993 77.8138 20.4368 77.7246C20.2744 77.6231 20.142 77.4916 20.0378 77.3292C19.9487 77.1526 19.9036 76.9769 19.9036 76.803C19.9036 76.6168 19.9487 76.4393 20.0378 76.2698C20.1349 76.1074 20.2674 75.9785 20.4368 75.885C20.6116 75.7931 20.7847 75.7472 20.9594 75.7472Z" fill="#46BCEC"/>
<path d="M29.1387 72.9399C29.9085 72.947 30.597 72.9567 31.2044 72.9681C31.5593 72.9681 31.7393 73.3204 31.7446 74.0239C31.7446 74.7284 31.5734 75.0797 31.2326 75.0797H29.1175C28.9922 76.9936 27.9346 77.9505 25.9431 77.9505L25.1274 77.9328C24.4124 77.9328 24.054 77.5868 24.054 76.8947L24.0716 76.877H24.054C24.054 76.1726 24.4124 75.8212 25.1274 75.8212H25.9219C26.644 75.8212 27.0059 75.4558 27.0059 74.7266V66.9371C27.0059 66.215 27.3635 65.853 28.0794 65.853C28.7856 65.853 29.1387 66.2114 29.1387 66.9265V72.9399Z" fill="#46BCEC"/>
<path d="M43.5811 72.9401L45.3326 72.9507C45.6733 72.9507 45.8446 73.3029 45.8446 74.0065C45.8322 74.7224 45.6521 75.0799 45.3043 75.0799H43.5988C42.8944 75.0614 42.5448 74.7092 42.5501 74.0242C42.5024 74.7215 42.1387 75.0729 41.459 75.0799H38.6765C37.972 75.0614 37.626 74.7092 37.6384 74.0242C37.596 74.7162 37.2287 75.0685 36.5367 75.0799H34.0367C33.3322 75.0614 32.9844 74.7092 32.9915 74.0242C32.942 74.7215 32.5766 75.0729 31.8968 75.0799H30.1384C29.7764 75.0799 29.5946 74.7224 29.5946 74.0065C29.5902 73.3029 29.7623 72.9507 30.1101 72.9507L31.8968 72.9401V66.902C31.8968 66.1984 32.2429 65.8462 32.935 65.8462C33.6641 65.8462 34.0314 66.2064 34.0367 66.9267L34.019 72.9401H36.5367V66.902C36.5367 66.1984 36.8862 65.8462 37.5854 65.8462C38.3075 65.8462 38.6712 66.2064 38.6765 66.9267L38.6694 72.9401H41.459V66.902C41.459 66.1984 41.805 65.8462 42.4971 65.8462C43.2245 65.8462 43.5917 66.2064 43.5988 66.9267L43.5811 72.9401Z" fill="#46BCEC"/>
<path d="M46.5368 64.137C46.5368 63.4405 46.8908 63.0918 47.5997 63.0918C48.3032 63.0918 48.6554 63.4502 48.6554 64.1652V74.0063C48.6554 74.7223 48.3032 75.0798 47.5997 75.0798H44.2345C43.8841 75.0798 43.7031 74.7223 43.6908 74.0063C43.6863 73.3028 43.8585 72.9506 44.2063 72.9506H46.5368V64.137Z" fill="#46BCEC"/>
<path d="M50.2793 63.1095L51.3562 63.0918C52.0598 63.1086 52.412 63.4661 52.412 64.1652V73.9958C52.412 74.7187 52.0625 75.0798 51.3633 75.0798C50.6403 75.0798 50.2793 74.7187 50.2793 73.9958V65.2493C49.5633 65.2493 49.2094 64.9059 49.2164 64.2182C49.2164 63.4979 49.5704 63.1289 50.2793 63.1095Z" fill="#46BCEC"/>
<path d="M66.274 72.9507H68.5692C68.9099 72.9507 69.0812 73.3091 69.0812 74.0242C69.0759 74.7286 68.8958 75.08 68.5409 75.08H66.274C66.161 76.9938 65.0743 77.9507 63.0148 77.9507H59.4696C57.32 77.9507 56.2457 76.8852 56.2457 74.7551V71.2417C56.2386 70.4958 56.59 70.1223 57.3015 70.1223C58.0007 70.1365 58.352 70.5019 58.3573 71.217V74.7834C58.3573 75.4684 58.7298 75.8109 59.4766 75.8109H63.0713C63.7934 75.8109 64.1553 75.449 64.1553 74.7269L64.1624 64.1654C64.1624 63.4663 64.5199 63.1167 65.2358 63.1167C65.9279 63.1167 66.274 63.4698 66.274 64.176V72.9507Z" fill="#46BCEC"/>
<path d="M72.4655 72.9577H75.2445C75.5879 72.9577 75.76 73.3135 75.76 74.0241C75.7529 74.7285 75.5711 75.0799 75.2162 75.0799H72.4832C71.7787 75.0613 71.4291 74.7091 71.4344 74.0241C71.3921 74.7285 71.0284 75.0799 70.3433 75.0799H67.4549C67.1045 75.0799 66.9288 74.7285 66.9288 74.0241C66.9244 73.3135 67.0965 72.9577 67.4443 72.9577H70.3433V66.9196C70.3433 66.216 70.6894 65.8638 71.3815 65.8638C72.1089 65.8638 72.4761 66.2239 72.4832 66.9443L72.4655 72.9577ZM73.1964 75.885C73.3748 75.9785 73.5072 76.1074 73.5919 76.2698C73.6882 76.4393 73.7367 76.6168 73.7367 76.803C73.7367 76.984 73.6882 77.1597 73.5919 77.3292C73.5019 77.496 73.3765 77.6275 73.2141 77.7246C73.0446 77.8138 72.8663 77.8588 72.6809 77.8588C72.5061 77.8588 72.3322 77.8138 72.1583 77.7246C71.9959 77.6231 71.8626 77.4916 71.7593 77.3292C71.6693 77.1526 71.6251 76.9769 71.6251 76.803C71.6251 76.6168 71.6693 76.4393 71.7593 76.2698C71.8555 76.1074 71.9888 75.9785 72.1583 75.885C72.3322 75.7931 72.5061 75.7472 72.6809 75.7472C72.8548 75.7472 73.027 75.7931 73.1964 75.885ZM70.0008 75.7472C70.1747 75.7472 70.3451 75.7931 70.5128 75.885C70.6938 75.9785 70.8271 76.1074 70.9118 76.2698C71.0081 76.4393 71.0566 76.6168 71.0566 76.803C71.0566 76.984 71.0081 77.1597 70.9118 77.3292C70.82 77.496 70.6929 77.6275 70.5305 77.7246C70.3628 77.8138 70.1862 77.8588 70.0008 77.8588C69.8243 77.8588 69.6486 77.8138 69.4747 77.7246C69.3123 77.6231 69.1799 77.4916 69.0792 77.3292C68.9874 77.1526 68.9415 76.9769 68.9415 76.803C68.9415 76.6168 68.9874 76.4393 69.0792 76.2698C69.1754 76.1021 69.3105 75.9741 69.4853 75.885C69.6477 75.7931 69.819 75.7472 70.0008 75.7472Z" fill="#46BCEC"/>
<path d="M78.7092 65.8459H84.712C86.8421 65.8459 87.9076 66.9326 87.9076 69.1051V74.0062C87.9076 74.7222 87.5554 75.0797 86.8518 75.0797H74.1329C73.7824 75.0797 73.6015 74.7222 73.5891 74.0062C73.5891 73.3027 73.7674 72.9504 74.1223 72.9504H75.7466V65.9801C75.7466 65.2765 76.1015 64.9243 76.813 64.9243C77.5165 64.9243 77.8688 65.2792 77.8688 65.9872V66.1955C78.0427 65.9625 78.3225 65.8459 78.7092 65.8459ZM84.6943 67.9646H77.8688V72.9504H85.7784V69.0663C85.7784 68.3318 85.4164 67.9646 84.6943 67.9646Z" fill="#46BCEC"/>
<path d="M96.624 72.9578H98.2306C98.5855 72.9578 98.7576 73.31 98.7461 74.0136C98.7461 74.7251 98.5643 75.0799 98.2023 75.0799H96.6063C96.4792 76.9867 95.4199 77.9401 93.4283 77.9401H92.6162C91.8976 77.9401 91.5392 77.5879 91.5392 76.8843V76.8667C91.5392 76.1622 91.8976 75.8109 92.6162 75.8109H93.4107C93.9986 75.8109 94.3473 75.5672 94.4559 75.0799H91.9735C89.8619 75.0799 88.8062 74.0153 88.8062 71.8843V69.0595C88.8062 66.9179 89.8708 65.8462 92.0018 65.8462H93.4107C95.5523 65.8462 96.624 66.9179 96.624 69.0595V72.9578ZM94.4947 72.9578V69.0136C94.4947 68.3268 94.1328 67.9825 93.4107 67.9825H91.9735C91.2814 67.9825 90.9354 68.3418 90.9354 69.0595V71.8561C90.9354 72.5791 91.2814 72.9401 91.9735 72.9401L94.4947 72.9578Z" fill="#46BCEC"/>
<path d="M102.147 72.9756H104.926C105.269 72.9756 105.441 73.3349 105.441 74.0526C105.434 74.757 105.252 75.1084 104.898 75.1084H102.165C101.46 75.089 101.111 74.7376 101.116 74.0526C101.073 74.757 100.71 75.1084 100.025 75.1084H97.1363C96.7858 75.1084 96.6102 74.757 96.6102 74.0526C96.5987 73.3349 96.7708 72.9756 97.1257 72.9756H100.025V66.9375C100.025 66.2339 100.371 65.8817 101.063 65.8817C101.79 65.8817 102.157 66.2436 102.165 66.9657L102.147 72.9756ZM102.878 63.1734C103.052 63.2634 103.183 63.3949 103.273 63.5688C103.37 63.7383 103.418 63.914 103.418 64.095C103.418 64.2812 103.37 64.4578 103.273 64.6246C103.183 64.7826 103.058 64.9124 102.895 65.013C102.726 65.1049 102.548 65.1508 102.362 65.1508C102.187 65.1508 102.014 65.1049 101.84 65.013C101.67 64.9124 101.537 64.7826 101.441 64.6246C101.351 64.4507 101.306 64.2742 101.306 64.095C101.306 63.914 101.351 63.7383 101.441 63.5688C101.544 63.3949 101.677 63.2634 101.84 63.1734C102.014 63.0815 102.187 63.0356 102.362 63.0356C102.536 63.0356 102.708 63.0815 102.878 63.1734ZM99.6822 63.0356C99.8561 63.0356 100.026 63.0815 100.194 63.1734C100.368 63.2634 100.501 63.3949 100.593 63.5688C100.689 63.7383 100.738 63.914 100.738 64.095C100.738 64.2812 100.689 64.4578 100.593 64.6246C100.501 64.7826 100.374 64.9124 100.212 65.013C100.044 65.1049 99.8676 65.1508 99.6822 65.1508C99.5056 65.1508 99.33 65.1049 99.1561 65.013C98.9883 64.9124 98.8568 64.7826 98.7606 64.6246C98.6688 64.4507 98.6229 64.2742 98.6229 64.095C98.6229 63.914 98.6688 63.7383 98.7606 63.5688C98.8612 63.3949 98.9972 63.2634 99.1667 63.1734C99.3291 63.0815 99.5003 63.0356 99.6822 63.0356Z" fill="#46BCEC"/>
<path d="M108.825 72.9507H111.604C111.959 72.9507 112.131 73.3029 112.12 74.0064C112.107 74.7224 111.926 75.0799 111.576 75.0799H108.843C108.138 75.0614 107.789 74.7091 107.794 74.0241C107.746 74.7215 107.383 75.0728 106.703 75.0799H103.832C103.47 75.0799 103.288 74.7224 103.288 74.0064C103.284 73.3029 103.456 72.9507 103.804 72.9507H106.703V64.1477C106.703 63.4371 107.049 63.0848 107.741 63.0919C108.468 63.0919 108.836 63.4538 108.843 64.1759L108.825 72.9507Z" fill="#46BCEC"/>
<path d="M112.821 64.137C112.821 63.4405 113.175 63.0918 113.884 63.0918C114.588 63.0918 114.94 63.4502 114.94 64.1652V74.0063C114.94 74.7223 114.588 75.0798 113.884 75.0798H110.519C110.169 75.0798 109.988 74.7223 109.975 74.0063C109.971 73.3028 110.143 72.9506 110.491 72.9506H112.821V64.137Z" fill="#46BCEC"/>
<path d="M129.629 72.9578H131.659C132.019 72.9578 132.199 73.31 132.199 74.0136C132.206 74.7251 132.035 75.0799 131.687 75.0799L124.996 75.0694C123.147 75.0694 122.1 74.2422 121.853 72.587H121.313C120.59 72.587 120.229 72.9542 120.229 73.6887V76.8596C120.229 77.5799 119.877 77.9401 119.173 77.9401C118.457 77.9401 118.1 77.5817 118.1 76.8667V73.7275C118.1 71.5551 119.164 70.4684 121.295 70.4684H121.8V69.0595C121.8 66.9179 122.868 65.8462 125.006 65.8462H126.412C128.556 65.8462 129.629 66.9117 129.629 69.0418V72.9578ZM127.496 72.9578V69.0136C127.496 68.3268 127.134 67.9825 126.412 67.9825H124.978C124.286 67.9825 123.94 68.3356 123.94 69.0418V71.849C123.94 72.5888 124.301 72.9578 125.024 72.9578H127.496Z" fill="#46BCEC"/>
<path d="M132.901 66.9019C132.901 66.2098 133.255 65.8638 133.964 65.8638C134.667 65.8638 135.02 66.216 135.02 66.9196V74.0135C135.02 74.725 134.667 75.0799 133.964 75.0799H130.581C130.231 75.0799 130.055 74.7285 130.055 74.0241C130.051 73.3135 130.223 72.9577 130.571 72.9577H132.901V66.9019ZM134.642 75.885C134.811 75.9785 134.944 76.1074 135.041 76.2698C135.13 76.4393 135.175 76.6168 135.175 76.803C135.175 76.9769 135.13 77.1526 135.041 77.3292C134.949 77.4916 134.816 77.6231 134.642 77.7246C134.479 77.8138 134.307 77.8588 134.126 77.8588C133.94 77.8588 133.766 77.8138 133.604 77.7246C133.441 77.6231 133.309 77.4916 133.208 77.3292C133.116 77.1526 133.071 76.9769 133.071 76.803C133.071 76.6168 133.116 76.4393 133.208 76.2698C133.302 76.1074 133.434 75.9785 133.604 75.885C133.778 75.7931 133.952 75.7472 134.126 75.7472C134.303 75.7472 134.474 75.7931 134.642 75.885ZM131.446 75.7472C131.62 75.7472 131.792 75.7931 131.962 75.885C132.129 75.9785 132.26 76.1074 132.357 76.2698C132.449 76.4393 132.495 76.6168 132.495 76.803C132.495 76.9769 132.449 77.1526 132.357 77.3292C132.267 77.4916 132.136 77.6231 131.962 77.7246C131.799 77.8138 131.627 77.8588 131.446 77.8588C131.26 77.8588 131.086 77.8138 130.924 77.7246C130.761 77.6231 130.629 77.4916 130.525 77.3292C130.435 77.1526 130.39 76.9769 130.39 76.803C130.39 76.6168 130.435 76.4393 130.525 76.2698C130.622 76.1074 130.754 75.9785 130.924 75.885C131.098 75.7931 131.271 75.7472 131.446 75.7472Z" fill="#46BCEC"/>
<path d="M136.797 63.1095L137.874 63.0918C138.577 63.1086 138.93 63.4661 138.93 64.1652V73.9958C138.93 74.7187 138.58 75.0798 137.881 75.0798C137.158 75.0798 136.797 74.7187 136.797 73.9958V65.2493C136.081 65.2493 135.727 64.9059 135.734 64.2182C135.734 63.4979 136.088 63.1289 136.797 63.1095Z" fill="#46BCEC"/>
<path d="M144.038 72.9399C144.808 72.947 145.496 72.9567 146.104 72.9681C146.459 72.9681 146.639 73.3204 146.644 74.0239C146.644 74.7284 146.473 75.0797 146.132 75.0797H144.017C143.892 76.9936 142.834 77.9505 140.842 77.9505L140.027 77.9328C139.312 77.9328 138.953 77.5868 138.953 76.8947L138.971 76.877H138.953C138.953 76.1726 139.312 75.8212 140.027 75.8212H140.821C141.543 75.8212 141.905 75.4558 141.905 74.7266V66.9371C141.905 66.215 142.263 65.853 142.979 65.853C143.685 65.853 144.038 66.2114 144.038 66.9265V72.9399Z" fill="#46BCEC"/>
<path d="M147.34 66.9018C147.34 66.2026 147.694 65.853 148.403 65.853C149.106 65.853 149.459 66.2053 149.459 66.9088V74.0063C149.459 74.7222 149.106 75.0797 148.403 75.0797H145.02C144.67 75.0797 144.494 74.7284 144.494 74.0239C144.482 73.3089 144.655 72.9505 145.009 72.9505H147.34V66.9018ZM147.908 77.9505C147.72 77.9505 147.542 77.8993 147.375 77.7986C147.217 77.7068 147.088 77.5797 146.987 77.4173C146.897 77.2425 146.853 77.0686 146.853 76.8947C146.853 76.7084 146.897 76.531 146.987 76.3615C147.083 76.192 147.213 76.0622 147.375 75.9731C147.549 75.883 147.727 75.8389 147.908 75.8389C148.082 75.8389 148.253 75.883 148.421 75.9731C148.59 76.0622 148.719 76.192 148.809 76.3615C148.912 76.5354 148.964 76.7128 148.964 76.8947C148.964 77.0686 148.912 77.2425 148.809 77.4173C148.719 77.5797 148.59 77.7068 148.421 77.7986C148.253 77.8993 148.082 77.9505 147.908 77.9505Z" fill="#46BCEC"/>
<path d="M157.873 65.1223C157.698 65.1223 157.524 65.0782 157.35 64.9881C157.185 64.8849 157.058 64.7551 156.969 64.5997C156.867 64.4258 156.817 64.2484 156.817 64.0665C156.817 63.8926 156.867 63.7187 156.969 63.5439C157.065 63.363 157.195 63.2297 157.357 63.1449C157.52 63.0558 157.691 63.0107 157.873 63.0107C158.051 63.0107 158.223 63.0558 158.388 63.1449C158.562 63.235 158.694 63.3674 158.784 63.5439C158.88 63.7117 158.928 63.8856 158.928 64.0665C158.928 64.2484 158.883 64.4258 158.794 64.5997C158.697 64.7622 158.568 64.8919 158.406 64.9881C158.236 65.0782 158.058 65.1223 157.873 65.1223ZM155.189 65.1223C155.01 65.1223 154.839 65.0782 154.677 64.9881C154.508 64.8919 154.378 64.7622 154.289 64.5997C154.184 64.4258 154.133 64.2484 154.133 64.0665C154.133 63.8926 154.184 63.7187 154.289 63.5439C154.385 63.363 154.515 63.2297 154.677 63.1449C154.839 63.0558 155.01 63.0107 155.189 63.0107C155.37 63.0107 155.542 63.0558 155.705 63.1449C155.878 63.235 156.012 63.3674 156.104 63.5439C156.2 63.7117 156.248 63.8856 156.248 64.0665C156.248 64.2484 156.202 64.4258 156.111 64.5997C156.021 64.7622 155.892 64.8919 155.722 64.9881C155.554 65.0782 155.377 65.1223 155.189 65.1223ZM160.464 72.9401C160.5 72.9401 160.68 72.9401 161.005 72.9401C161.33 72.9401 161.799 72.9437 162.414 72.9507C162.761 72.9507 162.942 73.3091 162.954 74.0242C162.965 74.7286 162.793 75.08 162.438 75.08H155.832C153.689 75.08 152.618 74.0092 152.618 71.8667V69.0418C152.618 66.9117 153.674 65.8462 155.786 65.8462L157.484 65.8533C157.802 65.8886 158.085 66.0669 158.332 66.3864C158.332 65.6714 158.683 65.313 159.387 65.313C160.105 65.313 160.464 65.6714 160.464 66.3864V72.9401ZM155.803 72.9401H158.332V67.9648L157.484 67.9825H155.803C155.099 67.9825 154.748 68.3444 154.748 69.0665V71.8843C154.748 72.5888 155.099 72.9401 155.803 72.9401Z" fill="#46BCEC"/>
<path d="M170.111 69.1475V74.0593C170.111 74.7584 169.755 75.108 169.045 75.108H161.336C160.986 75.108 160.81 74.7567 160.81 74.0522C160.799 73.3345 160.971 72.9752 161.326 72.9752H167.989V69.1052C167.989 68.376 167.627 68.0105 166.905 68.0105L163.448 67.9929C162.737 67.9929 162.382 67.6468 162.382 66.9547V66.8559C162.351 66.5787 162.463 66.298 162.717 66.0155L165.994 61.8629C166.481 61.3103 166.991 61.2733 167.526 61.7535C168.044 62.2125 168.065 62.713 167.59 63.2542L165.531 65.8813H166.916C169.046 65.8813 170.111 66.9706 170.111 69.1475Z" fill="#46BCEC"/>
<path d="M174.559 72.9399C175.329 72.947 176.017 72.9567 176.625 72.9681C176.979 72.9681 177.16 73.3204 177.165 74.0239C177.165 74.7284 176.994 75.0797 176.653 75.0797H174.538C174.412 76.9936 173.355 77.9505 171.363 77.9505L170.548 77.9328C169.833 77.9328 169.474 77.5868 169.474 76.8947L169.492 76.877H169.474C169.474 76.1726 169.833 75.8212 170.548 75.8212H171.342C172.064 75.8212 172.426 75.4558 172.426 74.7266V66.9371C172.426 66.215 172.784 65.853 173.5 65.853C174.206 65.853 174.559 66.2114 174.559 66.9265V72.9399Z" fill="#46BCEC"/>
<path d="M187.663 66.9266C187.663 66.2062 188.018 65.846 188.729 65.846C189.433 65.846 189.785 66.2009 189.785 66.9089V71.81C189.785 73.9905 188.72 75.0798 186.59 75.0798H184.902C184.197 75.0613 183.848 74.709 183.853 74.024C183.805 74.7214 183.442 75.0727 182.762 75.0798H180.251C179.547 75.0613 179.201 74.709 179.213 74.024C179.171 74.7161 178.804 75.0683 178.111 75.0798H175.541C175.19 75.0798 175.009 74.7223 174.997 74.0064C174.997 73.3028 175.175 72.9506 175.53 72.9506L178.111 72.94V66.9018C178.111 66.1983 178.461 65.846 179.16 65.846C179.882 65.846 180.246 66.2062 180.251 66.9266L180.244 72.94H182.762V66.9018C182.762 66.1983 183.108 65.846 183.8 65.846C184.527 65.846 184.895 66.2062 184.902 66.9266L184.884 72.94L186.579 72.9506C187.301 72.9506 187.663 72.586 187.663 71.8559V66.9266ZM185.668 63.1448C185.842 63.2348 185.975 63.3672 186.067 63.5438C186.163 63.6992 186.212 63.8739 186.212 64.0664C186.212 64.2526 186.163 64.4248 186.067 64.5819C185.975 64.7567 185.848 64.8882 185.686 64.9774C185.518 65.0674 185.34 65.1116 185.152 65.1116C184.978 65.1116 184.804 65.0674 184.63 64.9774C184.467 64.8882 184.335 64.7567 184.234 64.5819C184.143 64.4195 184.097 64.2482 184.097 64.0664C184.097 63.881 184.143 63.7062 184.234 63.5438C184.335 63.3672 184.467 63.2348 184.63 63.1448C184.804 63.0556 184.978 63.0106 185.152 63.0106C185.329 63.0106 185.5 63.0556 185.668 63.1448ZM182.472 63.0106C182.653 63.0106 182.825 63.0556 182.988 63.1448C183.162 63.2348 183.293 63.3672 183.383 63.5438C183.48 63.6992 183.528 63.8739 183.528 64.0664C183.528 64.2482 183.483 64.4195 183.394 64.5819C183.29 64.7611 183.161 64.8927 183.006 64.9774C182.836 65.0674 182.658 65.1116 182.472 65.1116C182.298 65.1116 182.124 65.0674 181.95 64.9774C181.787 64.8882 181.66 64.7567 181.568 64.5819C181.467 64.4124 181.417 64.2412 181.417 64.0664C181.417 63.8854 181.467 63.7115 181.568 63.5438C181.665 63.3628 181.794 63.2295 181.957 63.1448C182.119 63.0556 182.291 63.0106 182.472 63.0106ZM183.818 62.947C183.636 62.947 183.458 62.9029 183.285 62.8129C183.129 62.7281 182.999 62.5957 182.896 62.4138C182.806 62.2514 182.762 62.0802 182.762 61.8983C182.762 61.7059 182.806 61.5258 182.896 61.358C182.992 61.1886 183.127 61.0597 183.302 60.9696C183.465 60.8805 183.636 60.8354 183.818 60.8354C183.992 60.8354 184.164 60.8805 184.333 60.9696C184.5 61.0597 184.63 61.1886 184.722 61.358C184.822 61.5328 184.873 61.7129 184.873 61.8983C184.873 62.0731 184.822 62.2443 184.722 62.4138C184.63 62.5886 184.503 62.721 184.34 62.8129C184.173 62.9029 183.999 62.947 183.818 62.947Z" fill="#46BCEC"/>
</svg>
