<svg width="375" height="404" viewBox="0 0 375 404" fill="none" xmlns="http://www.w3.org/2000/svg">
<g clip-path="url(#clip0_19183_31197)">
<g filter="url(#filter0_i_19183_31197)">
<path d="M61 229L13.5 257L-34 283L61.5 337.5L157.5 280L61 229Z" fill="white" fill-opacity="0.01" style="mix-blend-mode:overlay"/>
</g>
<path d="M61.2336 228.558L60.9867 228.427L60.7461 228.569L13.253 256.565L-34.2401 282.561L-35.0247 282.991L-34.2478 283.434L61.2522 337.934L61.5061 338.079L61.7569 337.929L157.757 280.429L158.519 279.973L157.734 279.558L61.2336 228.558Z" stroke="white" stroke-opacity="0.01" style="mix-blend-mode:overlay"/>
<g filter="url(#filter1_i_19183_31197)">
<path d="M326 164L278.5 192L231 218L326.5 272.5L422.5 215L326 164Z" fill="white" fill-opacity="0.01" style="mix-blend-mode:overlay"/>
</g>
<path d="M326.234 163.558L325.987 163.427L325.746 163.569L278.253 191.565L230.76 217.561L229.975 217.991L230.752 218.434L326.252 272.934L326.506 273.079L326.757 272.929L422.757 215.429L423.519 214.973L422.734 214.558L326.234 163.558Z" stroke="white" stroke-opacity="0.01" style="mix-blend-mode:overlay"/>
<g filter="url(#filter2_i_19183_31197)">
<path d="M221 296L173.5 324L126 350L221.5 404.5L317.5 347L221 296Z" fill="white" fill-opacity="0.01" style="mix-blend-mode:overlay"/>
</g>
<path d="M221.234 295.558L220.987 295.427L220.746 295.569L173.253 323.565L125.76 349.561L124.975 349.991L125.752 350.434L221.252 404.934L221.506 405.079L221.757 404.929L317.757 347.429L318.519 346.973L317.734 346.558L221.234 295.558Z" stroke="white" stroke-opacity="0.01" style="mix-blend-mode:overlay"/>
<g filter="url(#filter3_i_19183_31197)">
<path d="M148 102L100.5 130L53 156L148.5 210.5L244.5 153L148 102Z" fill="white" fill-opacity="0.01" style="mix-blend-mode:overlay"/>
</g>
<path d="M148.234 101.558L147.987 101.427L147.746 101.569L100.253 129.565L52.7599 155.561L51.9753 155.991L52.7522 156.434L148.252 210.934L148.506 211.079L148.757 210.929L244.757 153.429L245.519 152.973L244.734 152.558L148.234 101.558Z" stroke="white" stroke-opacity="0.01" style="mix-blend-mode:overlay"/>
<g filter="url(#filter4_d_19183_31197)">
<rect x="192.306" y="42.2734" width="117.679" height="268.35" rx="20" transform="rotate(21.0627 192.306 42.2734)" fill="#D6E3F7"/>
<rect x="193.453" y="44.8586" width="113.679" height="264.35" rx="18" transform="rotate(21.0627 193.453 44.8586)" stroke="black" stroke-width="4"/>
</g>
<rect x="148.623" y="93.4213" width="153.158" height="95.9105" rx="13.5" transform="rotate(20.7524 148.623 93.4213)" fill="#64A4EB" stroke="black" stroke-width="3"/>
<g style="mix-blend-mode:multiply">
<rect x="135.547" y="126.203" width="152.263" height="21.8579" transform="rotate(20.2885 135.547 126.203)" fill="#D9D9D9"/>
</g>
<g style="mix-blend-mode:multiply">
<rect x="234.753" y="198.309" width="29.4716" height="21.8579" rx="5" transform="rotate(20.2885 234.753 198.309)" fill="#D9D9D9"/>
</g>
<g style="mix-blend-mode:multiply">
<rect x="254.373" y="142.52" width="29.4716" height="3.29221" rx="1.64611" transform="rotate(20.2885 254.373 142.52)" fill="#D9D9D9"/>
</g>
<rect x="188.315" y="76.7142" width="94.6321" height="21.8119" rx="10.906" transform="rotate(20.3926 188.315 76.7142)" fill="black" stroke="#354045" stroke-width="2"/>
<g filter="url(#filter5_d_19183_31197)">
<path d="M222.83 143.748L222.825 143.758L222.82 143.767L220.164 148.812C218.587 151.81 217.467 155.027 216.843 158.356C216.457 160.417 216.262 162.509 216.262 164.605V170.5V170.516L216.263 170.532L217.001 182.025L217.001 182.032L217.763 197.525L217.763 197.536L219.261 218.504C218.843 225.786 216.729 237.178 211.748 247.686C206.758 258.211 198.927 267.782 187.111 271.523C172.09 276.28 160.569 282.198 154.157 291.976C147.833 301.617 146.552 314.889 151.534 334.193L76.6729 306.12C73.7283 295.836 71.8306 280.12 75.595 266.079C77.4901 259.011 80.8155 252.383 86.149 247.08C91.4793 241.779 98.84 237.776 108.85 235.992C121.538 233.731 130.319 229.577 136.281 224.312C142.248 219.043 145.357 212.692 146.751 206.103C149.152 194.754 146.46 182.654 144.563 174.131C144.266 172.793 143.988 171.544 143.752 170.399C142.001 161.897 138.404 143.252 142.933 125.939C145.195 117.295 149.479 109.001 157.019 102.464C164.555 95.9305 175.382 91.1193 190.788 89.5H198.67L260.905 113.254C253.256 113.354 245.785 117.749 239.418 123.388C232.082 129.885 226.1 138.131 222.83 143.748Z" fill="white" stroke="#F3F5F6"/>
<path d="M182.262 96L232.262 115" stroke="black"/>
<path d="M156.262 207L206.762 226" stroke="black"/>
<path d="M149.262 221.5L199.762 241" stroke="black"/>
<path d="M88.7622 268L139.262 286.5" stroke="black"/>
<path d="M86.2622 286.5L137.262 305.5" stroke="black"/>
<path d="M167.209 243.833C164.77 241.156 161.359 238.941 157.296 237.395C153.233 235.85 148.653 235.026 143.986 235.001L143.762 253.5L167.209 243.833Z" fill="#0095CC"/>
<path d="M144.39 236.005C138.275 235.909 132.299 237.213 127.474 239.696L143.762 253.5L144.39 236.005Z" fill="#64A4EB"/>
<path d="M171.248 254.099C171.422 250.483 170.016 246.912 167.204 243.827L143.762 253.5L171.248 254.099Z" fill="#EFA029"/>
<path d="M170.762 253C170.762 257.756 167.925 262.118 163.22 265.314C158.517 268.508 151.993 270.5 144.762 270.5C137.531 270.5 131.007 268.508 126.305 265.314C121.6 262.118 118.762 257.756 118.762 253C118.762 248.244 121.6 243.882 126.305 240.686C131.007 237.492 137.531 235.5 144.762 235.5C151.993 235.5 158.517 237.492 163.22 240.686C167.925 243.882 170.762 248.244 170.762 253Z" stroke="black"/>
<path d="M161.262 148.5L155.262 146V178L161.262 180.5V148.5Z" fill="#E8ECED"/>
<path d="M171.262 154.319L165.262 152V181.681L171.262 184V154.319Z" fill="#E8ECED"/>
<path d="M181.262 151.326L175.262 148.5V185L181.262 187.5V151.326Z" fill="#0ABEFF"/>
<path d="M191.262 163.674L185.262 161.5V189.326L191.262 191.5V163.674Z" fill="#E8ECED"/>
<path d="M201.262 143L195.262 141L194.762 192.5L201.262 195.5V143Z" fill="#64A4EB"/>
<path d="M170.262 105.5L220.262 124.5" stroke="black"/>
<path d="M157.262 115.5L207.262 134.5" stroke="black"/>
<path d="M156.762 192L207.762 210.5" stroke="black"/>
</g>
<rect x="229.985" y="67.0547" width="22" height="8" rx="4" transform="rotate(20.1811 229.985 67.0547)" fill="black"/>
<rect x="251.713" y="75.5195" width="8" height="8" rx="4" transform="rotate(20.1811 251.713 75.5195)" fill="black"/>
<path d="M233 300L236.5 296V300V305L237.5 308L240.5 311.5L242.5 313L252.5 317L259 317.5H265L272.5 316L279 313.5L282 311.5L283.5 309.5L285 308L285.5 305.5V302.5V300L285 297L285.5 296L288 298L290 300.5L291 304L290 311.5L286.5 315.5L280.5 319L271.5 322.5L260 323L251 322L243.5 319.5L236 315.5L233 311.5L231.5 307L232 302.5L233 300Z" fill="#F49D3B"/>
<path d="M235.5 324V315C259.1 329.4 280 321.333 287.5 315V322.5C268.3 338.5 244.833 330.167 235.5 324Z" fill="#0095CC"/>
<path d="M235.5 252V243C259.1 257.4 280 248.333 287.5 242V250.5C268.3 266.5 244.833 258.167 235.5 252Z" fill="#335B96"/>
<ellipse cx="261" cy="233.5" rx="29" ry="17.5" fill="white"/>
<path d="M291.453 314.666V305.73C291.453 305.73 291.453 305.73 291.453 305.548C291.453 303.177 290.724 300.625 289.082 298.436C288.171 297.16 286.894 295.883 285.253 294.607C282.882 285.489 275.041 278.377 266.835 273.636C265.924 273.089 265.924 271.813 266.835 271.448C270.482 269.26 274.129 266.525 277.412 263.425C280.329 260.689 282.518 257.589 283.977 254.307C287.988 251.572 291.271 247.377 291.453 242.636V233.519C291.453 217.289 258.447 209.63 239.482 220.572C233.647 223.854 230.547 228.413 230.365 233.336V242.454C230.365 247.377 233.647 251.572 237.841 254.307C239.3 257.772 241.488 260.872 244.406 263.607C247.688 266.707 251.335 269.442 254.982 271.63C255.894 272.177 255.894 273.454 254.982 273.819C246.959 278.56 238.935 285.489 236.565 294.607C232.553 297.707 230.365 301.354 230.365 305.366V314.483C230.365 326.883 248.418 332.536 261 332.536C274.312 332.536 291.453 326.519 291.453 314.666ZM236.382 243.913C242.947 249.201 252.612 251.389 261.182 251.389C269.753 251.389 279.235 249.383 285.8 243.913V250.477C274.677 261.236 247.688 261.236 236.382 250.477V243.913ZM260.818 217.289C272.124 217.289 289.629 222.395 289.629 233.519C289.629 237.713 286.712 241.177 283.429 243.548C266.106 255.766 232.371 248.289 232.371 233.336C232.371 222.213 249.694 217.289 260.818 217.289ZM255.712 274.913C257.535 274.001 257.535 271.448 255.712 270.354C252.065 268.166 248.6 265.613 245.318 262.513C242.947 260.325 241.306 258.136 239.847 255.583C245.682 258.866 253.341 260.507 261 260.507C268.477 260.507 275.953 258.866 281.788 255.583C280.512 258.136 278.688 260.325 276.5 262.513C273.218 265.613 269.753 268.348 266.106 270.354C264.282 271.448 264.282 274.001 266.106 274.913C281.971 284.213 285.8 294.425 284.524 305.001C282.7 320.683 240.394 320.866 237.294 305.001C236.2 294.242 240.029 284.213 255.712 274.913ZM236.2 297.525C235.835 300.077 235.835 302.63 236.018 305.366C239.3 323.054 283.794 322.507 285.982 305.366C286.347 302.63 286.165 300.26 285.982 297.707C289.812 301.536 289.447 304.636 289.812 305.73C289.812 305.913 290.359 311.93 281.606 317.036C263.553 327.613 232.371 319.772 232.371 305.73C232.371 302.63 233.647 299.895 236.2 297.525ZM281.424 325.972C270.3 332.354 251.882 332.354 240.577 325.972C238.935 325.06 237.477 323.966 236.382 322.872V316.307C236.565 316.489 236.747 316.672 236.929 316.672C249.147 325.972 273.765 325.972 285.8 316.307V322.872C284.524 323.783 283.247 324.877 281.424 325.972Z" fill="black"/>
<path d="M250.059 240.085C256.076 243.55 265.923 243.55 271.941 240.085C278.323 236.438 278.141 230.238 271.941 226.591C265.923 223.126 256.076 223.126 250.059 226.591C243.676 230.42 243.676 236.438 250.059 240.085ZM247.141 235.344C247.688 233.885 248.965 232.608 250.788 231.697C256.441 228.414 265.559 228.414 271.394 231.697C273.218 232.791 274.494 234.067 275.041 235.526C271.394 243.367 250.606 243.55 247.141 235.344Z" fill="black"/>
<path d="M275.588 310.838C280.512 308.285 281.241 305.914 281.241 302.085C281.241 301.72 280.876 301.355 280.512 301.355C280.147 301.355 279.782 301.72 279.782 302.085C279.782 305.003 279.6 307.191 274.859 309.561C274.494 309.744 274.312 310.108 274.494 310.473C274.859 310.838 275.224 311.02 275.588 310.838Z" fill="black"/>
<path d="M279.782 297.891C279.782 298.256 280.147 298.438 280.512 298.438C280.876 298.438 281.059 298.073 281.059 297.709C280.876 296.067 280.329 294.426 279.782 292.967C279.6 292.603 279.235 292.42 278.871 292.603C278.506 292.785 278.324 293.15 278.506 293.515C279.053 294.791 279.418 296.25 279.782 297.891Z" fill="black"/>
<path d="M199 36.5V0" stroke="black"/>
<path d="M219 42V5.5" stroke="black"/>
<path d="M179 42V5.5" stroke="black"/>
</g>
<defs>
<filter id="filter0_i_19183_31197" x="-36.0496" y="227.855" width="195.587" height="114.803" filterUnits="userSpaceOnUse" color-interpolation-filters="sRGB">
<feFlood flood-opacity="0" result="BackgroundImageFix"/>
<feBlend mode="normal" in="SourceGraphic" in2="BackgroundImageFix" result="shape"/>
<feColorMatrix in="SourceAlpha" type="matrix" values="0 0 0 0 0 0 0 0 0 0 0 0 0 0 0 0 0 0 127 0" result="hardAlpha"/>
<feOffset dy="4"/>
<feGaussianBlur stdDeviation="4"/>
<feComposite in2="hardAlpha" operator="arithmetic" k2="-1" k3="1"/>
<feColorMatrix type="matrix" values="0 0 0 0 0 0 0 0 0 0.584314 0 0 0 0 0.8 0 0 0 0.14 0"/>
<feBlend mode="normal" in2="shape" result="effect1_innerShadow_19183_31197"/>
</filter>
<filter id="filter1_i_19183_31197" x="228.95" y="162.855" width="195.587" height="114.803" filterUnits="userSpaceOnUse" color-interpolation-filters="sRGB">
<feFlood flood-opacity="0" result="BackgroundImageFix"/>
<feBlend mode="normal" in="SourceGraphic" in2="BackgroundImageFix" result="shape"/>
<feColorMatrix in="SourceAlpha" type="matrix" values="0 0 0 0 0 0 0 0 0 0 0 0 0 0 0 0 0 0 127 0" result="hardAlpha"/>
<feOffset dy="4"/>
<feGaussianBlur stdDeviation="4"/>
<feComposite in2="hardAlpha" operator="arithmetic" k2="-1" k3="1"/>
<feColorMatrix type="matrix" values="0 0 0 0 0 0 0 0 0 0.584314 0 0 0 0 0.8 0 0 0 0.14 0"/>
<feBlend mode="normal" in2="shape" result="effect1_innerShadow_19183_31197"/>
</filter>
<filter id="filter2_i_19183_31197" x="123.95" y="294.855" width="195.587" height="114.803" filterUnits="userSpaceOnUse" color-interpolation-filters="sRGB">
<feFlood flood-opacity="0" result="BackgroundImageFix"/>
<feBlend mode="normal" in="SourceGraphic" in2="BackgroundImageFix" result="shape"/>
<feColorMatrix in="SourceAlpha" type="matrix" values="0 0 0 0 0 0 0 0 0 0 0 0 0 0 0 0 0 0 127 0" result="hardAlpha"/>
<feOffset dy="4"/>
<feGaussianBlur stdDeviation="4"/>
<feComposite in2="hardAlpha" operator="arithmetic" k2="-1" k3="1"/>
<feColorMatrix type="matrix" values="0 0 0 0 0 0 0 0 0 0.584314 0 0 0 0 0.8 0 0 0 0.14 0"/>
<feBlend mode="normal" in2="shape" result="effect1_innerShadow_19183_31197"/>
</filter>
<filter id="filter3_i_19183_31197" x="50.9504" y="100.855" width="195.587" height="114.803" filterUnits="userSpaceOnUse" color-interpolation-filters="sRGB">
<feFlood flood-opacity="0" result="BackgroundImageFix"/>
<feBlend mode="normal" in="SourceGraphic" in2="BackgroundImageFix" result="shape"/>
<feColorMatrix in="SourceAlpha" type="matrix" values="0 0 0 0 0 0 0 0 0 0 0 0 0 0 0 0 0 0 127 0" result="hardAlpha"/>
<feOffset dy="4"/>
<feGaussianBlur stdDeviation="4"/>
<feComposite in2="hardAlpha" operator="arithmetic" k2="-1" k3="1"/>
<feColorMatrix type="matrix" values="0 0 0 0 0 0 0 0 0 0.584314 0 0 0 0 0.8 0 0 0 0.14 0"/>
<feBlend mode="normal" in2="shape" result="effect1_innerShadow_19183_31197"/>
</filter>
<filter id="filter4_d_19183_31197" x="101.71" y="48.1196" width="198.567" height="283.021" filterUnits="userSpaceOnUse" color-interpolation-filters="sRGB">
<feFlood flood-opacity="0" result="BackgroundImageFix"/>
<feColorMatrix in="SourceAlpha" type="matrix" values="0 0 0 0 0 0 0 0 0 0 0 0 0 0 0 0 0 0 127 0" result="hardAlpha"/>
<feOffset dx="4" dy="2"/>
<feComposite in2="hardAlpha" operator="out"/>
<feColorMatrix type="matrix" values="0 0 0 0 0 0 0 0 0 0 0 0 0 0 0 0 0 0 1 0"/>
<feBlend mode="normal" in2="BackgroundImageFix" result="effect1_dropShadow_19183_31197"/>
<feBlend mode="normal" in="SourceGraphic" in2="effect1_dropShadow_19183_31197" result="shape"/>
</filter>
<filter id="filter5_d_19183_31197" x="61" y="85" width="215.262" height="270" filterUnits="userSpaceOnUse" color-interpolation-filters="sRGB">
<feFlood flood-opacity="0" result="BackgroundImageFix"/>
<feColorMatrix in="SourceAlpha" type="matrix" values="0 0 0 0 0 0 0 0 0 0 0 0 0 0 0 0 0 0 127 0" result="hardAlpha"/>
<feOffset dy="8"/>
<feGaussianBlur stdDeviation="6"/>
<feComposite in2="hardAlpha" operator="out"/>
<feColorMatrix type="matrix" values="0 0 0 0 0 0 0 0 0 0 0 0 0 0 0 0 0 0 0.1 0"/>
<feBlend mode="normal" in2="BackgroundImageFix" result="effect1_dropShadow_19183_31197"/>
<feBlend mode="normal" in="SourceGraphic" in2="effect1_dropShadow_19183_31197" result="shape"/>
</filter>
<clipPath id="clip0_19183_31197">
<rect width="375" height="404" fill="white"/>
</clipPath>
</defs>
</svg>
