<svg width="375" height="290" viewBox="0 0 375 290" fill="none" xmlns="http://www.w3.org/2000/svg">
<g clip-path="url(#clip0_19183_31246)">
<path d="M283.447 83.5579L283.2 83.4274L282.959 83.5693L235.466 111.565L187.973 137.561L187.188 137.991L187.965 138.434L283.465 192.934L283.719 193.079L283.97 192.929L379.97 135.429L380.731 134.973L379.947 134.558L283.447 83.5579Z" stroke="#85DEFF"/>
<path d="M106.447 57.5579L106.2 57.4274L105.959 57.5693L58.4658 85.5652L10.9728 111.561L10.1882 111.991L10.9651 112.434L106.465 166.934L106.719 167.079L106.97 166.929L202.97 109.429L203.731 108.973L202.947 108.558L106.447 57.5579Z" stroke="#85DEFF"/>
<g filter="url(#filter0_i_19183_31246)">
<path d="M51.2129 182L3.71289 210L-43.7871 236L51.7129 290.5L147.713 233L51.2129 182Z" fill="white" fill-opacity="0.01" style="mix-blend-mode:overlay"/>
</g>
<path d="M51.4465 181.558L51.1996 181.427L50.959 181.569L3.46585 209.565L-44.0272 235.561L-44.8118 235.991L-44.0349 236.434L51.4651 290.934L51.719 291.079L51.9698 290.929L147.97 233.429L148.731 232.973L147.947 232.558L51.4465 181.558Z" stroke="white" stroke-opacity="0.01" style="mix-blend-mode:overlay"/>
<path d="M186.713 74L158.213 59.5L186.713 43L215.713 58L186.713 74Z" fill="#EFA029" stroke="black"/>
<path d="M186.713 173.5V74L215.713 58V157.5L186.713 173.5Z" fill="#ED7525" stroke="black"/>
<path d="M186.713 173.5V74L158.213 59.5V158L186.713 173.5Z" fill="white" stroke="black"/>
<path d="M135.713 138L107.213 123.5L135.713 107L164.713 122L135.713 138Z" fill="#64A4EB" stroke="black"/>
<path d="M135.713 202.5V138L164.713 122V186.5L135.713 202.5Z" fill="#335B96" stroke="black"/>
<path d="M135.713 202.5V138L107.213 123.5V187L135.713 202.5Z" fill="#C4DEFD" stroke="black"/>
<path d="M81.7129 192.5L53.2129 178L81.7129 161.5L110.713 176.5L81.7129 192.5Z" fill="white" stroke="black"/>
<path d="M81.7129 230V192.5L110.713 176.5V214L81.7129 230Z" fill="black" stroke="black"/>
<path d="M81.7129 230V192.5L53.2129 178V214.5L81.7129 230Z" fill="#D1D8DB" stroke="black"/>
<path d="M80.2129 180.5L53.7129 165.5C71.2129 155 109.713 78 123.713 58C134.913 42 163.38 21.3333 176.213 13L167.213 6.5L223.713 0L214.213 36.5L201.213 28C156.713 45.5 112.713 132.5 104.213 150C97.4129 164 85.3796 176.167 80.2129 180.5Z" fill="#0095CC" stroke="black"/>
<path d="M166.234 285.649C166.234 285.649 167.991 286.562 169.452 285.444L233.121 246.283C235.061 245.188 236.59 242.563 236.59 240.304L236.385 175.653C236.362 174.306 235.792 173.325 234.97 172.846C230.954 170.518 229.835 169.172 227.462 170.564L163.792 209.724C161.807 210.865 160.323 213.421 160.323 215.68L160.551 280.332C160.529 282.865 161.829 283.116 166.234 285.649ZM169.223 214.174L232.916 175.014C233.715 174.535 234.08 174.717 234.103 175.676L234.308 240.327C234.308 241.742 233.236 243.613 231.958 244.321L168.265 283.481C167.489 283.937 167.101 283.8 167.101 282.819L166.896 218.168C166.873 216.913 167.877 214.95 169.223 214.174Z" fill="#335B96"/>
<path d="M225.796 198.084L179.173 255.25C178.625 255.912 178.808 257.03 179.766 256.117L226.458 198.905L227.644 200.434C227.85 200.708 228.283 200.343 228.42 199.978L230.862 193.223C231.022 192.789 230.794 192.515 230.474 192.698L225.248 195.824C224.906 196.03 224.701 196.578 224.883 196.806L225.796 198.084Z" fill="black"/>
<path d="M191.907 249.569L191.953 262.28L198.297 258.606L198.274 245.918L191.907 249.569Z" fill="#D1D8DB"/>
<path d="M202.633 237.381L202.678 256.071L209.023 252.42L208.977 233.707L202.633 237.381Z" fill="#335B96"/>
<path d="M213.336 222.346L213.404 249.891L219.771 246.217L219.68 218.672L213.336 222.346Z" fill="#ED7525"/>
<path d="M224.039 207.077L224.153 243.704L230.474 240.03L230.383 203.426L224.039 207.077Z" fill="#64A4EB"/>
<path d="M170.136 228.96L199.347 212.096L199.324 208.992L170.136 225.857V228.96Z" fill="black"/>
<path d="M199.324 205.158L199.301 202.055L170.113 218.919V222L199.324 205.158Z" fill="black"/>
<path d="M170.159 235.875L199.347 219.033V215.93L170.159 232.794V235.875Z" fill="black"/>
<path d="M301.817 141.336L321.834 182.187L319.791 189.54L313.255 194.442L299.366 229.166L291.604 226.306L251.57 212.825L234.821 197.71C228.83 196.349 217.092 192.4 218.072 187.498C219.053 182.595 222.566 181.37 224.2 181.37H238.906L240.949 181.778C242.992 183.276 248.302 186.926 253.204 189.54C258.106 192.155 258.787 188.723 258.515 186.681C258.106 181.506 256.963 170.258 255.655 166.664C254.348 163.069 243.672 162.987 238.498 163.396L230.736 169.932L222.158 175C216.983 177.179 215.213 180.553 215.213 174.017C215.213 165.847 218.481 164.621 222.158 160.536C217.255 159.882 215.485 154.544 215.213 151.957C220.796 148.689 232.942 141.581 236.864 139.293C232.615 136.025 235.094 131.668 236.864 129.898L271.996 128.264C271.451 126.493 271.342 123.198 275.264 124.179C291.277 127.773 299.638 137.115 301.817 141.336Z" fill="white" stroke="black"/>
<path d="M272.774 157.044C272.65 157.291 272.751 157.592 272.998 157.715C273.245 157.839 273.545 157.739 273.668 157.492L272.774 157.044ZM245.034 146.238L245.139 145.75L245.087 145.738H245.034V146.238ZM238.498 146.238V145.738H238.31L238.169 145.862L238.498 146.238ZM273.668 157.492C273.99 156.848 274.202 155.806 273.814 154.729C273.419 153.632 272.434 152.587 270.532 151.896L270.191 152.836C271.884 153.452 272.602 154.314 272.873 155.068C273.152 155.843 272.997 156.599 272.774 157.044L273.668 157.492ZM270.532 151.896C268.701 151.23 264.071 150.065 259.069 148.887C254.05 147.705 248.614 146.499 245.139 145.75L244.929 146.727C248.399 147.476 253.829 148.68 258.839 149.86C263.866 151.044 268.427 152.195 270.191 152.836L270.532 151.896ZM245.034 145.738H238.498V146.738H245.034V145.738ZM238.169 145.862L221.828 160.16L222.487 160.912L238.827 146.615L238.169 145.862Z" fill="black"/>
<path d="M292.167 138.905C292.405 139.045 292.712 138.966 292.852 138.728C292.992 138.491 292.913 138.184 292.675 138.044L292.167 138.905ZM276.489 129.079L276.743 128.648L276.67 128.605L276.587 128.588L276.489 129.079ZM292.675 138.044L276.743 128.648L276.235 129.509L292.167 138.905L292.675 138.044ZM276.587 128.588L272.502 127.771L272.306 128.752L276.391 129.569L276.587 128.588Z" fill="black"/>
<path d="M284.2 144.802C284.309 145.056 284.603 145.173 284.857 145.064C285.11 144.956 285.228 144.662 285.119 144.408L284.2 144.802ZM257.289 135.618L257.168 136.103L257.173 136.104L257.289 135.618ZM252.387 134.392L252.509 133.907L252.497 133.904L252.485 133.902L252.387 134.392ZM285.119 144.408C284.658 143.332 282.989 141.134 279.866 140.44L279.649 141.416C282.408 142.03 283.844 143.971 284.2 144.802L285.119 144.408ZM279.866 140.44C276.93 139.788 263.672 136.63 257.406 135.131L257.173 136.104C263.434 137.601 276.703 140.762 279.649 141.416L279.866 140.44ZM257.411 135.133L252.509 133.907L252.266 134.877L257.168 136.103L257.411 135.133ZM252.485 133.902C251.021 133.609 247.203 133.565 243.177 135.579L243.624 136.473C247.44 134.565 251.03 134.631 252.289 134.882L252.485 133.902ZM243.177 135.579C239.255 137.54 237.185 138.575 236.64 138.847L237.088 139.741C237.632 139.469 239.702 138.434 243.624 136.473L243.177 135.579Z" fill="black"/>
<path d="M321.834 182.595L336.54 190.357L314.481 242.237L296.506 232.433L294.464 230.799C294.055 229.982 292.911 227.94 291.604 226.306C289.97 224.263 289.153 210.782 293.238 201.386C297.323 191.991 305.085 186.272 309.987 183.821C313.909 181.86 319.519 182.187 321.834 182.595Z" fill="#EFA029" stroke="black"/>
<path d="M344.94 224.177C341.989 231.346 337.266 236.969 332.039 240.274C326.81 243.58 321.118 244.548 316.167 242.51C311.216 240.473 307.855 235.779 306.468 229.75C305.081 223.722 305.685 216.404 308.635 209.235C311.586 202.066 316.309 196.443 321.536 193.137C326.765 189.831 332.457 188.863 337.408 190.901C342.358 192.938 345.72 197.632 347.107 203.661C348.494 209.689 347.89 217.008 344.94 224.177Z" fill="black" stroke="black"/>
</g>
<defs>
<filter id="filter0_i_19183_31246" x="-45.8367" y="180.855" width="195.587" height="114.803" filterUnits="userSpaceOnUse" color-interpolation-filters="sRGB">
<feFlood flood-opacity="0" result="BackgroundImageFix"/>
<feBlend mode="normal" in="SourceGraphic" in2="BackgroundImageFix" result="shape"/>
<feColorMatrix in="SourceAlpha" type="matrix" values="0 0 0 0 0 0 0 0 0 0 0 0 0 0 0 0 0 0 127 0" result="hardAlpha"/>
<feOffset dy="4"/>
<feGaussianBlur stdDeviation="4"/>
<feComposite in2="hardAlpha" operator="arithmetic" k2="-1" k3="1"/>
<feColorMatrix type="matrix" values="0 0 0 0 0 0 0 0 0 0.584314 0 0 0 0 0.8 0 0 0 0.14 0"/>
<feBlend mode="normal" in2="shape" result="effect1_innerShadow_19183_31246"/>
</filter>
<clipPath id="clip0_19183_31246">
<rect width="375" height="290" fill="white"/>
</clipPath>
</defs>
</svg>
