<svg width="366" height="336" viewBox="0 0 366 336" fill="none" xmlns="http://www.w3.org/2000/svg">
<path d="M317.234 140.558L316.987 140.427L316.746 140.569L269.253 168.565L221.76 194.561L220.975 194.991L221.752 195.434L317.252 249.934L317.506 250.079L317.757 249.929L413.757 192.429L414.519 191.973L413.734 191.558L317.234 140.558Z" stroke="#85DEFF"/>
<path d="M18 287.5L51.5 268" stroke="black"/>
<path d="M1 326.5L34.5 307" stroke="black"/>
<g filter="url(#filter0_i_1_734)">
<path d="M169.5 226L122 254L74.5 280L170 334.5L266 277L169.5 226Z" fill="white"/>
</g>
<path d="M169.734 225.558L169.487 225.427L169.246 225.569L121.753 253.565L74.2599 279.561L73.4753 279.991L74.2522 280.434L169.752 334.934L170.006 335.079L170.257 334.929L266.257 277.429L267.019 276.973L266.234 276.558L169.734 225.558Z" stroke="#354045"/>
<g filter="url(#filter1_d_1_734)">
<path d="M246.199 83.9992L196.501 112.327L149.297 84.9986L198.001 56.1737L246.199 83.9992Z" fill="#64A4EB" stroke="#005A7A" stroke-width="0.3"/>
<path d="M196.848 168.24L149.15 140.913V85.2602L196.351 112.587L196.848 168.24Z" fill="#C4DEFD" stroke="#005A7A" stroke-width="0.3"/>
<path d="M197.148 168.237L196.651 112.587L246.35 84.2582V138.915L197.148 168.237Z" fill="#335B96" stroke="#005A7A" stroke-width="0.3"/>
<g filter="url(#filter2_i_1_734)">
<path d="M154 97L158.5 100L158 143L154 141V97Z" fill="#0552AD"/>
</g>
<path d="M154.25 140.845V97.4671L158.248 100.133L157.755 142.598L154.25 140.845Z" stroke="#0552AD" stroke-width="0.5"/>
<g filter="url(#filter3_i_1_734)">
<path d="M162.5 101.5L167 104.5L166.5 147.5L162.5 145.5V101.5Z" fill="#0552AD"/>
</g>
<path d="M162.75 145.345V101.967L166.748 104.633L166.255 147.098L162.75 145.345Z" stroke="#0552AD" stroke-width="0.5"/>
<g filter="url(#filter4_i_1_734)">
<path d="M171 106L175.5 109L175 152L171 150V106Z" fill="#0552AD"/>
</g>
<path d="M171.25 149.845V106.467L175.248 109.133L174.755 151.598L171.25 149.845Z" stroke="#0552AD" stroke-width="0.5"/>
<g filter="url(#filter5_i_1_734)">
<path d="M179.5 110.5L184 113.5L183.5 156.5L179.5 154.5V110.5Z" fill="#0552AD"/>
</g>
<path d="M179.75 154.345V110.967L183.748 113.633L183.255 156.098L179.75 154.345Z" stroke="#0552AD" stroke-width="0.5"/>
<g filter="url(#filter6_i_1_734)">
<path d="M188 115L192.5 118L192 161L188 159V115Z" fill="#0552AD"/>
</g>
<path d="M188.25 158.845V115.467L192.248 118.133L191.755 160.598L188.25 158.845Z" stroke="#0552AD" stroke-width="0.5"/>
<g style="mix-blend-mode:soft-light">
<path d="M177.745 68.5039L226.745 96.5039L227.245 126L223.245 124.5L218.745 130.5L217.745 101.504L168.245 74.0039L177.745 68.5039Z" fill="white"/>
</g>
<g style="mix-blend-mode:screen" opacity="0.8">
<g clip-path="url(#clip0_1_734)">
<path d="M202.188 63.6349L202.282 62.6252L201.214 62.1933C200.724 61.9954 200.091 61.9603 199.545 62.1008L198.032 62.4788L199.425 64.417L202.188 63.6349Z" fill="#6A9923"/>
<path d="M205.504 65.816L205.682 64.5889C205.754 64.2544 205.499 63.9243 205.02 63.7319L202.282 62.6252L201.617 65.696L199.995 65.63L203.123 67.2269L207.098 65.947L205.504 65.816Z" fill="#88B337"/>
<path d="M205.087 67.8849L201.228 67.7L200.931 69.348L202.757 70.0865L203.774 69.8345C204.34 69.6939 204.73 69.3878 204.793 69.0343L205.087 67.8849Z" fill="#6A9923"/>
<path d="M198.19 68.2403L198.99 67.5812L194.947 68.1082L195.152 70.7451L195.792 70.2177L197.619 70.9562C198.092 71.1574 198.723 71.1832 199.24 71.0223L202.757 70.0865L198.19 68.2403Z" fill="#88B337"/>
<path d="M192.322 66.0644L190.868 66.5795L190.72 67.5553C190.673 67.9113 190.95 68.2558 191.453 68.4639L192.367 68.8331L194.605 66.9875L192.322 66.0644Z" fill="#6A9923"/>
<path d="M196.501 65.9857L197.209 63.718L193.396 62.3729L194.135 63.3683L192.094 64.0077C191.559 64.1582 191.197 64.4571 191.134 64.7987L190.868 66.5794L191.921 66.2954L195.681 65.2809L196.501 65.9857Z" fill="#88B337"/>
</g>
</g>
</g>
<g filter="url(#filter7_d_1_734)">
<path d="M289.199 149.999L239.501 178.327L192.297 150.999L241.001 122.174L289.199 149.999Z" fill="#EFA029" stroke="#FBBA48" stroke-width="0.3"/>
<path d="M239.848 234.24L192.15 206.913V151.26L239.351 178.587L239.848 234.24Z" fill="#F9FDFF" stroke="#E8ECED" stroke-width="0.3"/>
<path d="M240.148 234.237L239.651 178.587L289.35 150.258V204.915L240.148 234.237Z" fill="#ED7525" stroke="#FBBA48" stroke-width="0.3"/>
<g filter="url(#filter8_i_1_734)">
<path d="M197 163L201.5 166L201 209L197 207V163Z" fill="#F49D3B"/>
</g>
<path d="M197.25 206.845V163.467L201.248 166.133L200.755 208.598L197.25 206.845Z" stroke="#F49D3B" stroke-width="0.5"/>
<g filter="url(#filter9_i_1_734)">
<path d="M205.5 167.5L210 170.5L209.5 213.5L205.5 211.5V167.5Z" fill="#F49D3B"/>
</g>
<path d="M205.75 211.345V167.967L209.748 170.633L209.255 213.098L205.75 211.345Z" stroke="#F49D3B" stroke-width="0.5"/>
<g filter="url(#filter10_i_1_734)">
<path d="M214 172L218.5 175L218 218L214 216V172Z" fill="#F49D3B"/>
</g>
<path d="M214.25 215.845V172.467L218.248 175.133L217.755 217.598L214.25 215.845Z" stroke="#F49D3B" stroke-width="0.5"/>
<g filter="url(#filter11_i_1_734)">
<path d="M222.5 176.5L227 179.5L226.5 222.5L222.5 220.5V176.5Z" fill="#F49D3B"/>
</g>
<path d="M222.75 220.345V176.967L226.748 179.633L226.255 222.098L222.75 220.345Z" stroke="#F49D3B" stroke-width="0.5"/>
<g filter="url(#filter12_i_1_734)">
<path d="M231 181L235.5 184L235 227L231 225V181Z" fill="#F49D3B"/>
</g>
<path d="M231.25 224.845V181.467L235.248 184.133L234.755 226.598L231.25 224.845Z" stroke="#F49D3B" stroke-width="0.5"/>
<g style="mix-blend-mode:screen" opacity="0.8">
<g clip-path="url(#clip1_1_734)">
<path d="M245.188 130.635L245.282 129.625L244.214 129.193C243.724 128.995 243.091 128.96 242.545 129.101L241.032 129.479L242.425 131.417L245.188 130.635Z" fill="#6A9923"/>
<path d="M248.504 132.816L248.682 131.589C248.754 131.254 248.499 130.924 248.02 130.732L245.282 129.625L244.617 132.696L242.995 132.63L246.123 134.227L250.098 132.947L248.504 132.816Z" fill="#88B337"/>
<path d="M248.087 134.885L244.228 134.7L243.931 136.348L245.757 137.086L246.774 136.834C247.34 136.694 247.73 136.388 247.793 136.034L248.087 134.885Z" fill="#6A9923"/>
<path d="M241.19 135.24L241.99 134.581L237.947 135.108L238.152 137.745L238.792 137.218L240.619 137.956C241.092 138.157 241.723 138.183 242.24 138.022L245.757 137.086L241.19 135.24Z" fill="#88B337"/>
<path d="M235.322 133.064L233.868 133.58L233.72 134.555C233.673 134.911 233.95 135.256 234.453 135.464L235.367 135.833L237.605 133.988L235.322 133.064Z" fill="#6A9923"/>
<path d="M239.501 132.986L240.209 130.718L236.396 129.373L237.135 130.368L235.094 131.008C234.559 131.158 234.197 131.457 234.134 131.799L233.868 133.579L234.921 133.295L238.681 132.281L239.501 132.986Z" fill="#88B337"/>
</g>
</g>
</g>
<g filter="url(#filter13_d_1_734)">
<path d="M157.199 191.999L107.501 220.327L60.2969 192.999L109.001 164.174L157.199 191.999Z" fill="white" stroke="#354045" stroke-width="0.3"/>
<path d="M107.848 276.24L60.15 248.913V193.26L107.351 220.587L107.848 276.24Z" fill="#D1D8DB" stroke="#C2EFFF" stroke-width="0.3"/>
<path d="M108.148 276.237L107.651 220.587L157.35 192.258V246.915L108.148 276.237Z" fill="black" stroke="#C2EFFF" stroke-width="0.3"/>
<g filter="url(#filter14_i_1_734)">
<path d="M65 205L69.5 208L69 251L65 249V205Z" fill="black"/>
</g>
<path d="M65.25 248.845V205.467L69.2484 208.133L68.7547 250.598L65.25 248.845Z" stroke="black" stroke-width="0.5"/>
<g filter="url(#filter15_i_1_734)">
<path d="M73.5 209.5L78 212.5L77.5 255.5L73.5 253.5V209.5Z" fill="black"/>
</g>
<path d="M73.75 253.345V209.967L77.7484 212.633L77.2547 255.098L73.75 253.345Z" stroke="black" stroke-width="0.5"/>
<g filter="url(#filter16_i_1_734)">
<path d="M82 214L86.5 217L86 260L82 258V214Z" fill="black"/>
</g>
<path d="M82.25 257.845V214.467L86.2484 217.133L85.7547 259.598L82.25 257.845Z" stroke="black" stroke-width="0.5"/>
<g filter="url(#filter17_i_1_734)">
<path d="M90.5 218.5L95 221.5L94.5 264.5L90.5 262.5V218.5Z" fill="black"/>
</g>
<path d="M90.75 262.345V218.967L94.7484 221.633L94.2547 264.098L90.75 262.345Z" stroke="black" stroke-width="0.5"/>
<g filter="url(#filter18_i_1_734)">
<path d="M99 223L103.5 226L103 269L99 267V223Z" fill="black"/>
</g>
<path d="M99.25 266.845V223.467L103.248 226.133L102.755 268.598L99.25 266.845Z" stroke="black" stroke-width="0.5"/>
<g style="mix-blend-mode:exclusion" opacity="0.2">
<path d="M89.7446 175.504L138.745 203.504L139.245 233L135.245 231.5L130.745 237.5L129.745 208.504L80.2447 181.004L89.7446 175.504Z" fill="white"/>
</g>
<g style="mix-blend-mode:luminosity" opacity="0.34">
<g clip-path="url(#clip2_1_734)">
<path d="M113.188 170.635L113.282 169.625L112.214 169.193C111.724 168.995 111.091 168.96 110.545 169.101L109.032 169.479L110.425 171.417L113.188 170.635Z" fill="#6A9923"/>
<path d="M116.504 172.816L116.682 171.589C116.754 171.254 116.499 170.924 116.02 170.732L113.282 169.625L112.617 172.696L110.995 172.63L114.123 174.227L118.098 172.947L116.504 172.816Z" fill="#88B337"/>
<path d="M116.087 174.885L112.228 174.7L111.931 176.348L113.757 177.086L114.774 176.834C115.34 176.694 115.73 176.388 115.793 176.034L116.087 174.885Z" fill="#6A9923"/>
<path d="M109.19 175.24L109.99 174.581L105.947 175.108L106.152 177.745L106.792 177.218L108.619 177.956C109.092 178.157 109.723 178.183 110.24 178.022L113.757 177.086L109.19 175.24Z" fill="#88B337"/>
<path d="M103.322 173.064L101.868 173.58L101.72 174.555C101.673 174.911 101.95 175.256 102.453 175.464L103.367 175.833L105.605 173.988L103.322 173.064Z" fill="#6A9923"/>
<path d="M107.501 172.986L108.209 170.718L104.396 169.373L105.135 170.368L103.094 171.008C102.559 171.158 102.197 171.457 102.134 171.799L101.868 173.579L102.921 173.295L106.681 172.281L107.501 172.986Z" fill="#88B337"/>
</g>
</g>
</g>
<path d="M219.199 249.999L169.501 278.327L122.297 250.999L171.001 222.174L219.199 249.999Z" fill="#64A4EB" stroke="#C2EFFF" stroke-width="0.3"/>
<path d="M169.848 334.24L122.15 306.913V251.26L169.351 278.587L169.848 334.24Z" fill="#C4DEFD" stroke="#C2EFFF" stroke-width="0.3"/>
<path d="M170.148 334.237L169.651 278.587L219.35 250.258V304.915L170.148 334.237Z" fill="#335B96" stroke="#C2EFFF" stroke-width="0.3"/>
<g filter="url(#filter19_i_1_734)">
<path d="M127 263L131.5 266L131 309L127 307V263Z" fill="#0552AD"/>
</g>
<path d="M127.25 306.845V263.467L131.248 266.133L130.755 308.598L127.25 306.845Z" stroke="#0552AD" stroke-width="0.5"/>
<g filter="url(#filter20_i_1_734)">
<path d="M135.5 267.5L140 270.5L139.5 313.5L135.5 311.5V267.5Z" fill="#0552AD"/>
</g>
<path d="M135.75 311.345V267.967L139.748 270.633L139.255 313.098L135.75 311.345Z" stroke="#0552AD" stroke-width="0.5"/>
<g filter="url(#filter21_i_1_734)">
<path d="M144 272L148.5 275L148 318L144 316V272Z" fill="#0552AD"/>
</g>
<path d="M144.25 315.845V272.467L148.248 275.133L147.755 317.598L144.25 315.845Z" stroke="#0552AD" stroke-width="0.5"/>
<g filter="url(#filter22_i_1_734)">
<path d="M152.5 276.5L157 279.5L156.5 322.5L152.5 320.5V276.5Z" fill="#0552AD"/>
</g>
<path d="M152.75 320.345V276.967L156.748 279.633L156.255 322.098L152.75 320.345Z" stroke="#0552AD" stroke-width="0.5"/>
<g filter="url(#filter23_i_1_734)">
<path d="M161 281L165.5 284L165 327L161 325V281Z" fill="#0552AD"/>
</g>
<path d="M161.25 324.845V281.467L165.248 284.133L164.755 326.598L161.25 324.845Z" stroke="#0552AD" stroke-width="0.5"/>
<g style="mix-blend-mode:screen" opacity="0.8">
<g clip-path="url(#clip3_1_734)">
<path d="M175.188 230.635L175.282 229.625L174.214 229.193C173.724 228.995 173.091 228.96 172.545 229.101L171.032 229.479L172.425 231.417L175.188 230.635Z" fill="#6A9923"/>
<path d="M178.504 232.816L178.682 231.589C178.754 231.254 178.499 230.924 178.02 230.732L175.282 229.625L174.617 232.696L172.995 232.63L176.123 234.227L180.098 232.947L178.504 232.816Z" fill="#88B337"/>
<path d="M178.087 234.885L174.228 234.7L173.931 236.348L175.757 237.086L176.774 236.834C177.34 236.694 177.73 236.388 177.793 236.034L178.087 234.885Z" fill="#6A9923"/>
<path d="M171.19 235.24L171.99 234.581L167.947 235.108L168.152 237.745L168.792 237.218L170.619 237.956C171.092 238.157 171.723 238.183 172.24 238.022L175.757 237.086L171.19 235.24Z" fill="#88B337"/>
<path d="M165.322 233.064L163.868 233.58L163.72 234.555C163.673 234.911 163.95 235.256 164.453 235.464L165.367 235.833L167.605 233.988L165.322 233.064Z" fill="#6A9923"/>
<path d="M169.501 232.986L170.209 230.718L166.396 229.373L167.135 230.368L165.094 231.008C164.559 231.158 164.197 231.457 164.134 231.799L163.868 233.579L164.921 233.295L168.681 232.281L169.501 232.986Z" fill="#88B337"/>
</g>
</g>
<path d="M198 36.5V0" stroke="black"/>
<path d="M218 42V5.5" stroke="black"/>
<path d="M178 42V5.5" stroke="black"/>
<path d="M50 323.5L83.5 304" stroke="black"/>
<g style="mix-blend-mode:soft-light">
<path d="M220.5 134.504L269.5 162.504L270 192L266 190.5L261.5 196.5L260.5 167.504L211 140.004L220.5 134.504Z" fill="white"/>
</g>
<g style="mix-blend-mode:soft-light">
<path d="M151.745 233.504L200.745 261.504L201.245 291L197.245 289.5L192.745 295.5L191.745 266.504L142.245 239.004L151.745 233.504Z" fill="white"/>
</g>
<path opacity="0.6" d="M240 279.5C320.5 254.563 275 158 320.5 145" stroke="black" stroke-dasharray="2 2"/>
<path d="M252.72 267.655C252.72 260.095 246.595 253.935 239 253.935C231.405 253.935 225.28 260.06 225.28 267.655C225.28 273.955 229.515 279.24 235.29 280.85L239 286.065L242.71 280.85C248.485 279.205 252.72 273.92 252.72 267.655Z" fill="#0095CC"/>
<path d="M239 275.25C243.195 275.25 246.595 271.85 246.595 267.655C246.595 263.46 243.195 260.06 239 260.06C234.805 260.06 231.405 263.46 231.405 267.655C231.405 271.85 234.805 275.25 239 275.25Z" fill="white"/>
<path d="M334.72 131.655C334.72 124.095 328.595 117.935 321 117.935C313.405 117.935 307.28 124.06 307.28 131.655C307.28 137.955 311.515 143.24 317.29 144.85L321 150.065L324.71 144.85C330.485 143.205 334.72 137.92 334.72 131.655Z" fill="#053DA9"/>
<path d="M321 139.25C325.195 139.25 328.595 135.85 328.595 131.655C328.595 127.46 325.195 124.06 321 124.06C316.805 124.06 313.405 127.46 313.405 131.655C313.405 135.85 316.805 139.25 321 139.25Z" fill="white"/>
<defs>
<filter id="filter0_i_1_734" x="72.4505" y="224.855" width="195.587" height="114.803" filterUnits="userSpaceOnUse" color-interpolation-filters="sRGB">
<feFlood flood-opacity="0" result="BackgroundImageFix"/>
<feBlend mode="normal" in="SourceGraphic" in2="BackgroundImageFix" result="shape"/>
<feColorMatrix in="SourceAlpha" type="matrix" values="0 0 0 0 0 0 0 0 0 0 0 0 0 0 0 0 0 0 127 0" result="hardAlpha"/>
<feOffset dy="4"/>
<feGaussianBlur stdDeviation="4"/>
<feComposite in2="hardAlpha" operator="arithmetic" k2="-1" k3="1"/>
<feColorMatrix type="matrix" values="0 0 0 0 0 0 0 0 0 0.584314 0 0 0 0 0.8 0 0 0 0.14 0"/>
<feBlend mode="normal" in2="shape" result="effect1_innerShadow_1_734"/>
</filter>
<filter id="filter1_d_1_734" x="137" y="51" width="121.5" height="136.5" filterUnits="userSpaceOnUse" color-interpolation-filters="sRGB">
<feFlood flood-opacity="0" result="BackgroundImageFix"/>
<feColorMatrix in="SourceAlpha" type="matrix" values="0 0 0 0 0 0 0 0 0 0 0 0 0 0 0 0 0 0 127 0" result="hardAlpha"/>
<feOffset dy="7"/>
<feGaussianBlur stdDeviation="6"/>
<feComposite in2="hardAlpha" operator="out"/>
<feColorMatrix type="matrix" values="0 0 0 0 0.0212473 0 0 0 0 0.168463 0 0 0 0 0.221624 0 0 0 0.1 0"/>
<feBlend mode="normal" in2="BackgroundImageFix" result="effect1_dropShadow_1_734"/>
<feBlend mode="normal" in="SourceGraphic" in2="effect1_dropShadow_1_734" result="shape"/>
</filter>
<filter id="filter2_i_1_734" x="154" y="97" width="4.5" height="48" filterUnits="userSpaceOnUse" color-interpolation-filters="sRGB">
<feFlood flood-opacity="0" result="BackgroundImageFix"/>
<feBlend mode="normal" in="SourceGraphic" in2="BackgroundImageFix" result="shape"/>
<feColorMatrix in="SourceAlpha" type="matrix" values="0 0 0 0 0 0 0 0 0 0 0 0 0 0 0 0 0 0 127 0" result="hardAlpha"/>
<feOffset dy="4"/>
<feGaussianBlur stdDeviation="1"/>
<feComposite in2="hardAlpha" operator="arithmetic" k2="-1" k3="1"/>
<feColorMatrix type="matrix" values="0 0 0 0 0 0 0 0 0 0 0 0 0 0 0 0 0 0 0.14 0"/>
<feBlend mode="normal" in2="shape" result="effect1_innerShadow_1_734"/>
</filter>
<filter id="filter3_i_1_734" x="162.5" y="101.5" width="4.5" height="48" filterUnits="userSpaceOnUse" color-interpolation-filters="sRGB">
<feFlood flood-opacity="0" result="BackgroundImageFix"/>
<feBlend mode="normal" in="SourceGraphic" in2="BackgroundImageFix" result="shape"/>
<feColorMatrix in="SourceAlpha" type="matrix" values="0 0 0 0 0 0 0 0 0 0 0 0 0 0 0 0 0 0 127 0" result="hardAlpha"/>
<feOffset dy="4"/>
<feGaussianBlur stdDeviation="1"/>
<feComposite in2="hardAlpha" operator="arithmetic" k2="-1" k3="1"/>
<feColorMatrix type="matrix" values="0 0 0 0 0 0 0 0 0 0 0 0 0 0 0 0 0 0 0.14 0"/>
<feBlend mode="normal" in2="shape" result="effect1_innerShadow_1_734"/>
</filter>
<filter id="filter4_i_1_734" x="171" y="106" width="4.5" height="48" filterUnits="userSpaceOnUse" color-interpolation-filters="sRGB">
<feFlood flood-opacity="0" result="BackgroundImageFix"/>
<feBlend mode="normal" in="SourceGraphic" in2="BackgroundImageFix" result="shape"/>
<feColorMatrix in="SourceAlpha" type="matrix" values="0 0 0 0 0 0 0 0 0 0 0 0 0 0 0 0 0 0 127 0" result="hardAlpha"/>
<feOffset dy="4"/>
<feGaussianBlur stdDeviation="1"/>
<feComposite in2="hardAlpha" operator="arithmetic" k2="-1" k3="1"/>
<feColorMatrix type="matrix" values="0 0 0 0 0 0 0 0 0 0 0 0 0 0 0 0 0 0 0.14 0"/>
<feBlend mode="normal" in2="shape" result="effect1_innerShadow_1_734"/>
</filter>
<filter id="filter5_i_1_734" x="179.5" y="110.5" width="4.5" height="48" filterUnits="userSpaceOnUse" color-interpolation-filters="sRGB">
<feFlood flood-opacity="0" result="BackgroundImageFix"/>
<feBlend mode="normal" in="SourceGraphic" in2="BackgroundImageFix" result="shape"/>
<feColorMatrix in="SourceAlpha" type="matrix" values="0 0 0 0 0 0 0 0 0 0 0 0 0 0 0 0 0 0 127 0" result="hardAlpha"/>
<feOffset dy="4"/>
<feGaussianBlur stdDeviation="1"/>
<feComposite in2="hardAlpha" operator="arithmetic" k2="-1" k3="1"/>
<feColorMatrix type="matrix" values="0 0 0 0 0 0 0 0 0 0 0 0 0 0 0 0 0 0 0.14 0"/>
<feBlend mode="normal" in2="shape" result="effect1_innerShadow_1_734"/>
</filter>
<filter id="filter6_i_1_734" x="188" y="115" width="4.5" height="48" filterUnits="userSpaceOnUse" color-interpolation-filters="sRGB">
<feFlood flood-opacity="0" result="BackgroundImageFix"/>
<feBlend mode="normal" in="SourceGraphic" in2="BackgroundImageFix" result="shape"/>
<feColorMatrix in="SourceAlpha" type="matrix" values="0 0 0 0 0 0 0 0 0 0 0 0 0 0 0 0 0 0 127 0" result="hardAlpha"/>
<feOffset dy="4"/>
<feGaussianBlur stdDeviation="1"/>
<feComposite in2="hardAlpha" operator="arithmetic" k2="-1" k3="1"/>
<feColorMatrix type="matrix" values="0 0 0 0 0 0 0 0 0 0 0 0 0 0 0 0 0 0 0.14 0"/>
<feBlend mode="normal" in2="shape" result="effect1_innerShadow_1_734"/>
</filter>
<filter id="filter7_d_1_734" x="180" y="117" width="121.5" height="136.5" filterUnits="userSpaceOnUse" color-interpolation-filters="sRGB">
<feFlood flood-opacity="0" result="BackgroundImageFix"/>
<feColorMatrix in="SourceAlpha" type="matrix" values="0 0 0 0 0 0 0 0 0 0 0 0 0 0 0 0 0 0 127 0" result="hardAlpha"/>
<feOffset dy="7"/>
<feGaussianBlur stdDeviation="6"/>
<feComposite in2="hardAlpha" operator="out"/>
<feColorMatrix type="matrix" values="0 0 0 0 0.0212473 0 0 0 0 0.168463 0 0 0 0 0.221624 0 0 0 0.1 0"/>
<feBlend mode="normal" in2="BackgroundImageFix" result="effect1_dropShadow_1_734"/>
<feBlend mode="normal" in="SourceGraphic" in2="effect1_dropShadow_1_734" result="shape"/>
</filter>
<filter id="filter8_i_1_734" x="197" y="163" width="4.5" height="48" filterUnits="userSpaceOnUse" color-interpolation-filters="sRGB">
<feFlood flood-opacity="0" result="BackgroundImageFix"/>
<feBlend mode="normal" in="SourceGraphic" in2="BackgroundImageFix" result="shape"/>
<feColorMatrix in="SourceAlpha" type="matrix" values="0 0 0 0 0 0 0 0 0 0 0 0 0 0 0 0 0 0 127 0" result="hardAlpha"/>
<feOffset dy="4"/>
<feGaussianBlur stdDeviation="1"/>
<feComposite in2="hardAlpha" operator="arithmetic" k2="-1" k3="1"/>
<feColorMatrix type="matrix" values="0 0 0 0 0 0 0 0 0 0 0 0 0 0 0 0 0 0 0.14 0"/>
<feBlend mode="normal" in2="shape" result="effect1_innerShadow_1_734"/>
</filter>
<filter id="filter9_i_1_734" x="205.5" y="167.5" width="4.5" height="48" filterUnits="userSpaceOnUse" color-interpolation-filters="sRGB">
<feFlood flood-opacity="0" result="BackgroundImageFix"/>
<feBlend mode="normal" in="SourceGraphic" in2="BackgroundImageFix" result="shape"/>
<feColorMatrix in="SourceAlpha" type="matrix" values="0 0 0 0 0 0 0 0 0 0 0 0 0 0 0 0 0 0 127 0" result="hardAlpha"/>
<feOffset dy="4"/>
<feGaussianBlur stdDeviation="1"/>
<feComposite in2="hardAlpha" operator="arithmetic" k2="-1" k3="1"/>
<feColorMatrix type="matrix" values="0 0 0 0 0 0 0 0 0 0 0 0 0 0 0 0 0 0 0.14 0"/>
<feBlend mode="normal" in2="shape" result="effect1_innerShadow_1_734"/>
</filter>
<filter id="filter10_i_1_734" x="214" y="172" width="4.5" height="48" filterUnits="userSpaceOnUse" color-interpolation-filters="sRGB">
<feFlood flood-opacity="0" result="BackgroundImageFix"/>
<feBlend mode="normal" in="SourceGraphic" in2="BackgroundImageFix" result="shape"/>
<feColorMatrix in="SourceAlpha" type="matrix" values="0 0 0 0 0 0 0 0 0 0 0 0 0 0 0 0 0 0 127 0" result="hardAlpha"/>
<feOffset dy="4"/>
<feGaussianBlur stdDeviation="1"/>
<feComposite in2="hardAlpha" operator="arithmetic" k2="-1" k3="1"/>
<feColorMatrix type="matrix" values="0 0 0 0 0 0 0 0 0 0 0 0 0 0 0 0 0 0 0.14 0"/>
<feBlend mode="normal" in2="shape" result="effect1_innerShadow_1_734"/>
</filter>
<filter id="filter11_i_1_734" x="222.5" y="176.5" width="4.5" height="48" filterUnits="userSpaceOnUse" color-interpolation-filters="sRGB">
<feFlood flood-opacity="0" result="BackgroundImageFix"/>
<feBlend mode="normal" in="SourceGraphic" in2="BackgroundImageFix" result="shape"/>
<feColorMatrix in="SourceAlpha" type="matrix" values="0 0 0 0 0 0 0 0 0 0 0 0 0 0 0 0 0 0 127 0" result="hardAlpha"/>
<feOffset dy="4"/>
<feGaussianBlur stdDeviation="1"/>
<feComposite in2="hardAlpha" operator="arithmetic" k2="-1" k3="1"/>
<feColorMatrix type="matrix" values="0 0 0 0 0 0 0 0 0 0 0 0 0 0 0 0 0 0 0.14 0"/>
<feBlend mode="normal" in2="shape" result="effect1_innerShadow_1_734"/>
</filter>
<filter id="filter12_i_1_734" x="231" y="181" width="4.5" height="48" filterUnits="userSpaceOnUse" color-interpolation-filters="sRGB">
<feFlood flood-opacity="0" result="BackgroundImageFix"/>
<feBlend mode="normal" in="SourceGraphic" in2="BackgroundImageFix" result="shape"/>
<feColorMatrix in="SourceAlpha" type="matrix" values="0 0 0 0 0 0 0 0 0 0 0 0 0 0 0 0 0 0 127 0" result="hardAlpha"/>
<feOffset dy="4"/>
<feGaussianBlur stdDeviation="1"/>
<feComposite in2="hardAlpha" operator="arithmetic" k2="-1" k3="1"/>
<feColorMatrix type="matrix" values="0 0 0 0 0 0 0 0 0 0 0 0 0 0 0 0 0 0 0.14 0"/>
<feBlend mode="normal" in2="shape" result="effect1_innerShadow_1_734"/>
</filter>
<filter id="filter13_d_1_734" x="48" y="159" width="121.5" height="136.5" filterUnits="userSpaceOnUse" color-interpolation-filters="sRGB">
<feFlood flood-opacity="0" result="BackgroundImageFix"/>
<feColorMatrix in="SourceAlpha" type="matrix" values="0 0 0 0 0 0 0 0 0 0 0 0 0 0 0 0 0 0 127 0" result="hardAlpha"/>
<feOffset dy="7"/>
<feGaussianBlur stdDeviation="6"/>
<feComposite in2="hardAlpha" operator="out"/>
<feColorMatrix type="matrix" values="0 0 0 0 0.0212473 0 0 0 0 0.168463 0 0 0 0 0.221624 0 0 0 0.1 0"/>
<feBlend mode="normal" in2="BackgroundImageFix" result="effect1_dropShadow_1_734"/>
<feBlend mode="normal" in="SourceGraphic" in2="effect1_dropShadow_1_734" result="shape"/>
</filter>
<filter id="filter14_i_1_734" x="65" y="205" width="4.5" height="48" filterUnits="userSpaceOnUse" color-interpolation-filters="sRGB">
<feFlood flood-opacity="0" result="BackgroundImageFix"/>
<feBlend mode="normal" in="SourceGraphic" in2="BackgroundImageFix" result="shape"/>
<feColorMatrix in="SourceAlpha" type="matrix" values="0 0 0 0 0 0 0 0 0 0 0 0 0 0 0 0 0 0 127 0" result="hardAlpha"/>
<feOffset dy="4"/>
<feGaussianBlur stdDeviation="1"/>
<feComposite in2="hardAlpha" operator="arithmetic" k2="-1" k3="1"/>
<feColorMatrix type="matrix" values="0 0 0 0 0 0 0 0 0 0 0 0 0 0 0 0 0 0 0.14 0"/>
<feBlend mode="normal" in2="shape" result="effect1_innerShadow_1_734"/>
</filter>
<filter id="filter15_i_1_734" x="73.5" y="209.5" width="4.5" height="48" filterUnits="userSpaceOnUse" color-interpolation-filters="sRGB">
<feFlood flood-opacity="0" result="BackgroundImageFix"/>
<feBlend mode="normal" in="SourceGraphic" in2="BackgroundImageFix" result="shape"/>
<feColorMatrix in="SourceAlpha" type="matrix" values="0 0 0 0 0 0 0 0 0 0 0 0 0 0 0 0 0 0 127 0" result="hardAlpha"/>
<feOffset dy="4"/>
<feGaussianBlur stdDeviation="1"/>
<feComposite in2="hardAlpha" operator="arithmetic" k2="-1" k3="1"/>
<feColorMatrix type="matrix" values="0 0 0 0 0 0 0 0 0 0 0 0 0 0 0 0 0 0 0.14 0"/>
<feBlend mode="normal" in2="shape" result="effect1_innerShadow_1_734"/>
</filter>
<filter id="filter16_i_1_734" x="82" y="214" width="4.5" height="48" filterUnits="userSpaceOnUse" color-interpolation-filters="sRGB">
<feFlood flood-opacity="0" result="BackgroundImageFix"/>
<feBlend mode="normal" in="SourceGraphic" in2="BackgroundImageFix" result="shape"/>
<feColorMatrix in="SourceAlpha" type="matrix" values="0 0 0 0 0 0 0 0 0 0 0 0 0 0 0 0 0 0 127 0" result="hardAlpha"/>
<feOffset dy="4"/>
<feGaussianBlur stdDeviation="1"/>
<feComposite in2="hardAlpha" operator="arithmetic" k2="-1" k3="1"/>
<feColorMatrix type="matrix" values="0 0 0 0 0 0 0 0 0 0 0 0 0 0 0 0 0 0 0.14 0"/>
<feBlend mode="normal" in2="shape" result="effect1_innerShadow_1_734"/>
</filter>
<filter id="filter17_i_1_734" x="90.5" y="218.5" width="4.5" height="48" filterUnits="userSpaceOnUse" color-interpolation-filters="sRGB">
<feFlood flood-opacity="0" result="BackgroundImageFix"/>
<feBlend mode="normal" in="SourceGraphic" in2="BackgroundImageFix" result="shape"/>
<feColorMatrix in="SourceAlpha" type="matrix" values="0 0 0 0 0 0 0 0 0 0 0 0 0 0 0 0 0 0 127 0" result="hardAlpha"/>
<feOffset dy="4"/>
<feGaussianBlur stdDeviation="1"/>
<feComposite in2="hardAlpha" operator="arithmetic" k2="-1" k3="1"/>
<feColorMatrix type="matrix" values="0 0 0 0 0 0 0 0 0 0 0 0 0 0 0 0 0 0 0.14 0"/>
<feBlend mode="normal" in2="shape" result="effect1_innerShadow_1_734"/>
</filter>
<filter id="filter18_i_1_734" x="99" y="223" width="4.5" height="48" filterUnits="userSpaceOnUse" color-interpolation-filters="sRGB">
<feFlood flood-opacity="0" result="BackgroundImageFix"/>
<feBlend mode="normal" in="SourceGraphic" in2="BackgroundImageFix" result="shape"/>
<feColorMatrix in="SourceAlpha" type="matrix" values="0 0 0 0 0 0 0 0 0 0 0 0 0 0 0 0 0 0 127 0" result="hardAlpha"/>
<feOffset dy="4"/>
<feGaussianBlur stdDeviation="1"/>
<feComposite in2="hardAlpha" operator="arithmetic" k2="-1" k3="1"/>
<feColorMatrix type="matrix" values="0 0 0 0 0 0 0 0 0 0 0 0 0 0 0 0 0 0 0.14 0"/>
<feBlend mode="normal" in2="shape" result="effect1_innerShadow_1_734"/>
</filter>
<filter id="filter19_i_1_734" x="127" y="263" width="4.5" height="48" filterUnits="userSpaceOnUse" color-interpolation-filters="sRGB">
<feFlood flood-opacity="0" result="BackgroundImageFix"/>
<feBlend mode="normal" in="SourceGraphic" in2="BackgroundImageFix" result="shape"/>
<feColorMatrix in="SourceAlpha" type="matrix" values="0 0 0 0 0 0 0 0 0 0 0 0 0 0 0 0 0 0 127 0" result="hardAlpha"/>
<feOffset dy="4"/>
<feGaussianBlur stdDeviation="1"/>
<feComposite in2="hardAlpha" operator="arithmetic" k2="-1" k3="1"/>
<feColorMatrix type="matrix" values="0 0 0 0 0 0 0 0 0 0 0 0 0 0 0 0 0 0 0.14 0"/>
<feBlend mode="normal" in2="shape" result="effect1_innerShadow_1_734"/>
</filter>
<filter id="filter20_i_1_734" x="135.5" y="267.5" width="4.5" height="48" filterUnits="userSpaceOnUse" color-interpolation-filters="sRGB">
<feFlood flood-opacity="0" result="BackgroundImageFix"/>
<feBlend mode="normal" in="SourceGraphic" in2="BackgroundImageFix" result="shape"/>
<feColorMatrix in="SourceAlpha" type="matrix" values="0 0 0 0 0 0 0 0 0 0 0 0 0 0 0 0 0 0 127 0" result="hardAlpha"/>
<feOffset dy="4"/>
<feGaussianBlur stdDeviation="1"/>
<feComposite in2="hardAlpha" operator="arithmetic" k2="-1" k3="1"/>
<feColorMatrix type="matrix" values="0 0 0 0 0 0 0 0 0 0 0 0 0 0 0 0 0 0 0.14 0"/>
<feBlend mode="normal" in2="shape" result="effect1_innerShadow_1_734"/>
</filter>
<filter id="filter21_i_1_734" x="144" y="272" width="4.5" height="48" filterUnits="userSpaceOnUse" color-interpolation-filters="sRGB">
<feFlood flood-opacity="0" result="BackgroundImageFix"/>
<feBlend mode="normal" in="SourceGraphic" in2="BackgroundImageFix" result="shape"/>
<feColorMatrix in="SourceAlpha" type="matrix" values="0 0 0 0 0 0 0 0 0 0 0 0 0 0 0 0 0 0 127 0" result="hardAlpha"/>
<feOffset dy="4"/>
<feGaussianBlur stdDeviation="1"/>
<feComposite in2="hardAlpha" operator="arithmetic" k2="-1" k3="1"/>
<feColorMatrix type="matrix" values="0 0 0 0 0 0 0 0 0 0 0 0 0 0 0 0 0 0 0.14 0"/>
<feBlend mode="normal" in2="shape" result="effect1_innerShadow_1_734"/>
</filter>
<filter id="filter22_i_1_734" x="152.5" y="276.5" width="4.5" height="48" filterUnits="userSpaceOnUse" color-interpolation-filters="sRGB">
<feFlood flood-opacity="0" result="BackgroundImageFix"/>
<feBlend mode="normal" in="SourceGraphic" in2="BackgroundImageFix" result="shape"/>
<feColorMatrix in="SourceAlpha" type="matrix" values="0 0 0 0 0 0 0 0 0 0 0 0 0 0 0 0 0 0 127 0" result="hardAlpha"/>
<feOffset dy="4"/>
<feGaussianBlur stdDeviation="1"/>
<feComposite in2="hardAlpha" operator="arithmetic" k2="-1" k3="1"/>
<feColorMatrix type="matrix" values="0 0 0 0 0 0 0 0 0 0 0 0 0 0 0 0 0 0 0.14 0"/>
<feBlend mode="normal" in2="shape" result="effect1_innerShadow_1_734"/>
</filter>
<filter id="filter23_i_1_734" x="161" y="281" width="4.5" height="48" filterUnits="userSpaceOnUse" color-interpolation-filters="sRGB">
<feFlood flood-opacity="0" result="BackgroundImageFix"/>
<feBlend mode="normal" in="SourceGraphic" in2="BackgroundImageFix" result="shape"/>
<feColorMatrix in="SourceAlpha" type="matrix" values="0 0 0 0 0 0 0 0 0 0 0 0 0 0 0 0 0 0 127 0" result="hardAlpha"/>
<feOffset dy="4"/>
<feGaussianBlur stdDeviation="1"/>
<feComposite in2="hardAlpha" operator="arithmetic" k2="-1" k3="1"/>
<feColorMatrix type="matrix" values="0 0 0 0 0 0 0 0 0 0 0 0 0 0 0 0 0 0 0.14 0"/>
<feBlend mode="normal" in2="shape" result="effect1_innerShadow_1_734"/>
</filter>
<clipPath id="clip0_1_734">
<rect width="14.2858" height="12.0196" fill="white" transform="matrix(0.927118 0.374769 -0.771574 0.63614 196.274 60)"/>
</clipPath>
<clipPath id="clip1_1_734">
<rect width="14.2858" height="12.0196" fill="white" transform="matrix(0.927118 0.374769 -0.771574 0.63614 239.274 127)"/>
</clipPath>
<clipPath id="clip2_1_734">
<rect width="14.2858" height="12.0196" fill="white" transform="matrix(0.927118 0.374769 -0.771574 0.63614 107.274 167)"/>
</clipPath>
<clipPath id="clip3_1_734">
<rect width="14.2858" height="12.0196" fill="white" transform="matrix(0.927118 0.374769 -0.771574 0.63614 169.274 227)"/>
</clipPath>
</defs>
</svg>
