<svg width="375" height="418" viewBox="0 0 375 418" fill="none" xmlns="http://www.w3.org/2000/svg">
<g clip-path="url(#clip0_19183_37661)">
<path d="M285.884 135.558L285.637 135.427L285.396 135.569L231.578 167.307L177.76 196.778L176.976 197.207L177.752 197.651L285.969 259.434L286.223 259.579L286.474 259.429L395.257 194.245L396.018 193.788L395.234 193.374L285.884 135.558Z" stroke="#85DEFF"/>
<path d="M85.3886 106.558L85.1407 106.427L84.8992 106.57L31.3291 138.308L-22.241 167.779L-23.0208 168.207L-22.2488 168.65L85.4692 230.434L85.7241 230.58L85.9759 230.428L194.258 165.244L195.015 164.788L194.235 164.374L85.3886 106.558Z" stroke="#85DEFF"/>
<path d="M186.824 383.824C283.377 383.824 361.649 305.553 361.649 209C361.649 112.447 283.377 34.1758 186.824 34.1758C90.2715 34.1758 12 112.447 12 209C12 305.553 90.2715 383.824 186.824 383.824Z" fill="url(#paint0_linear_19183_37661)"/>
<path d="M44.7836 218.505C47.7681 219.032 50.7443 219.55 53.7288 220.077C46.0376 215.052 38.1374 209.836 33.0127 202.228C28.9916 196.259 26.9517 189.195 23.5325 182.858C14.0188 165.21 -4.98348 154.902 -18 139.628C-4.73268 134.069 10.4324 133.918 24.3852 137.446C38.338 140.974 51.1957 148.005 62.8997 156.348C56.7635 146.157 53.804 134.102 54.523 122.248C56.6381 122.632 58.5609 123.97 59.656 125.809C58.2181 114.323 56.8722 102.159 61.6374 91.6001C62.3062 90.112 63.092 88.6741 63.5685 87.1107C64.1286 85.2465 64.2122 83.2735 64.2624 81.3256C64.5717 69.1117 63.7106 56.8643 61.7126 44.8008C85.547 61.5124 100.67 88.5654 107.392 116.805C114.113 145.037 113.118 174.548 109.783 203.373C108.219 216.908 106.99 230.075 106.848 243.652C106.731 254.127 105.82 270.053 110.443 279.759C103.822 265.889 93.7063 253.717 81.367 244.504C75.515 240.132 69.0109 236.972 62.8328 233.227C59.4052 231.154 56.0612 228.863 52.9513 226.33C51.1957 224.9 46.7148 218.831 44.7836 218.488V218.505Z" fill="#9ED8D6"/>
<g style="mix-blend-mode:multiply" opacity="0.54">
<path d="M44.7837 218.503C47.7682 219.029 50.7443 219.548 53.7289 220.074C46.0377 215.05 38.1375 209.833 33.0128 202.226C28.9916 196.257 26.9518 189.193 23.5325 182.856C18.5165 173.551 10.7668 166.253 2.92513 159.331C-0.828505 156.02 -12.7081 141.482 -16.6289 141.85C11.1848 156.112 40.8545 167.666 69.8219 179.353C65.7255 177.706 60.8265 170.291 57.5744 167.156C53.1269 162.875 48.5791 158.695 43.8055 154.774C34.4423 147.083 24.2933 140.454 13.0073 135.939C20.8908 138.698 28.8829 138.305 36.9336 141.607C46.1631 145.403 54.7906 150.553 62.8998 156.329C58.6529 153.303 55.7269 140.889 54.8825 136.023C62.6239 143.597 69.6965 152.016 76.5266 160.409C73.9433 142.36 69.0277 124.637 61.9551 107.833C68.0495 110.266 73.2913 114.789 76.6018 120.457C78.5497 95.3683 74.3446 69.8202 64.4547 46.6797C74.3195 56.8036 84.1342 65.0968 91.608 77.5532C99.1153 90.0681 102.819 103.135 107.375 116.803C114.096 145.035 113.102 174.546 109.766 203.371C108.203 216.906 106.974 230.073 106.832 243.65C106.715 254.125 105.803 270.051 110.426 279.757C103.805 265.887 93.6897 253.715 81.3503 244.502C75.4983 240.13 68.9942 236.97 62.8162 233.225C59.3886 231.151 56.0446 228.861 52.9347 226.328C51.1791 224.898 46.6981 218.829 44.7669 218.486L44.7837 218.503Z" fill="#9ED8D6"/>
</g>
<path d="M45.444 334.945C47.1494 334.727 48.8632 334.51 50.5687 334.293C40.2524 326.376 35.3953 313.476 30.8391 301.329C16.9113 264.252 1.17778 227.853 -16.303 192.298C23.0057 186.755 64.7054 208.215 82.8884 243.336C93.6728 264.169 96.4065 288.028 100.319 311.135C104.248 334.351 110.175 356.89 124.939 375.741C113.11 369.814 103.262 360.852 90.5044 356.823C82.3534 354.248 74.1355 352.283 66.3022 348.755C62.3061 346.95 58.4187 344.885 54.7654 342.452C53.3358 341.499 46.6144 334.794 45.444 334.945Z" fill="#CCF9A0"/>
<g style="mix-blend-mode:multiply" opacity="0.45">
<path d="M45.444 334.944C47.1494 334.727 48.8632 334.51 50.5687 334.292C40.2524 326.375 35.3953 313.476 30.8391 301.329C23.6996 282.327 16.092 263.5 8.0079 244.874C3.86971 235.343 -0.385536 225.871 -4.75782 216.45C-8.39441 208.625 -11.4542 198.033 -17.4065 191.629C4.1623 198.283 23.4906 211.969 36.9335 230.102C35.5374 225.136 34.1413 220.17 32.7451 215.212C51.1121 224.375 67.4308 237.617 80.1798 253.71C94.1995 271.4 96.6741 289.566 100.319 311.135C104.248 334.351 110.175 356.889 124.939 375.741C113.11 369.814 103.262 360.852 90.5044 356.823C82.3534 354.248 74.1355 352.283 66.3022 348.755C62.3061 346.949 58.4187 344.884 54.7654 342.452C53.3358 341.499 46.6144 334.794 45.444 334.944Z" fill="#7CDDB1"/>
</g>
<path d="M40.4364 359.077C24.6193 353.66 9.74684 343.519 2.24792 328.63L6.29416 329.541C-2.68448 312.303 -8.11848 293.259 -9.58984 273.897C1.82156 271.69 13.5924 269.976 25.0373 272.033C47.1328 275.996 64.463 293.326 76.6519 312.094C88.8408 330.862 97.4599 351.863 110.886 369.77C99.6753 369.694 89.309 367.245 78.3072 366.075C65.4662 364.712 52.7089 363.282 40.428 359.077H40.4364Z" fill="#7CDDB1"/>
<g style="mix-blend-mode:multiply">
<path d="M40.4364 359.076C30.1285 355.548 20.4644 350.031 12.2381 342.849C19.9711 349.604 30.9813 351.109 41.2473 350.808C51.5134 350.507 61.8129 348.693 71.9954 350.039C53.1102 336.278 28.1054 332.391 10.3321 317.226C10.215 320.202 10.1063 323.17 9.9893 326.146C3.62734 320.093 -1.05426 311.8 -4.13074 303.666C-5.05034 301.233 -11.1113 274.205 -9.58982 273.913C1.82158 271.706 13.5925 269.992 25.0373 272.049C47.1328 276.011 64.4631 293.341 76.6519 312.11C88.8408 330.878 97.46 351.878 110.886 369.785C99.6754 369.71 89.309 367.261 78.3072 366.09C65.4663 364.728 52.7089 363.298 40.4281 359.093L40.4364 359.076Z" fill="#9ED8D6"/>
</g>
<path d="M50.159 127.513C40.2357 121.978 28.7491 117.949 17.5801 120.072C20.9325 119.437 31.6333 129.828 34.2332 131.994C51.6471 146.473 66.9041 165.919 80.4807 183.926C70.0057 170.834 54.966 162.081 39.4081 155.736C33.3303 153.261 27.5034 151.063 21.317 148.914C16.9447 147.401 4.89798 145.47 1.96362 142.093C21.3923 164.506 48.2697 179.52 76.3175 189.377C61.9299 190.288 47.4002 188.833 33.4808 185.088C44.5244 199.935 65.8758 201.407 82.5289 209.574C104.357 220.275 117.699 242.438 129.746 263.48C124.128 253.69 122.314 239.687 118.611 228.97C115.442 219.807 113.093 210.385 109.615 201.306C102.233 182.045 91.6999 163.728 77.3708 148.739C69.3954 140.395 60.2663 133.139 50.159 127.513Z" fill="#4DA392"/>
<path d="M325.278 214.056C322.076 214.582 318.883 215.101 315.681 215.627C323.932 210.603 332.409 205.386 337.902 197.779C342.216 191.81 344.406 184.745 348.068 178.409C358.275 160.761 378.657 150.453 392.626 135.179C378.389 129.62 362.121 129.469 347.148 132.997C332.175 136.525 318.381 143.556 305.825 151.899C312.404 141.708 315.581 129.653 314.812 117.799C312.546 118.183 310.481 119.521 309.311 121.36C310.857 109.873 312.295 97.7095 307.179 87.1508C306.46 85.6628 305.616 84.2248 305.114 82.6615C304.512 80.7972 304.42 78.8243 304.37 76.8764C304.036 64.6624 304.955 52.415 307.112 40.3516C281.539 57.0632 265.32 84.1162 258.106 112.356C250.899 140.588 251.961 170.099 255.548 198.924C257.228 212.459 258.54 225.626 258.699 239.203C258.825 249.678 259.803 265.603 254.837 275.309C261.935 261.44 272.794 249.268 286.028 240.055C292.306 235.683 299.279 232.523 305.917 228.778C309.595 226.704 313.181 224.414 316.517 221.881C318.398 220.451 323.213 214.382 325.278 214.039V214.056Z" fill="#9ED8D6"/>
<g style="mix-blend-mode:multiply" opacity="0.6">
<path d="M325.278 214.057C322.077 214.583 318.883 215.102 315.681 215.628C323.932 210.604 332.41 205.387 337.902 197.78C340.903 193.625 343.035 182.063 346.989 179.43C336.247 186.352 322.745 188.851 310.23 186.218C324.35 178.694 338.471 171.17 352.591 163.646C360.173 159.608 366.936 155.052 373.942 150.145C376.676 148.23 389.308 136.652 391.515 137.128C383.314 135.381 374.736 137.003 366.828 139.77C358.919 142.545 351.445 146.441 343.62 149.451C339.332 151.098 334.834 152.494 330.244 152.327C326.466 152.193 322.754 150.989 318.975 151.139C323.197 147.386 327.41 143.632 331.632 139.879C321.976 142.587 314.31 146.266 305.825 151.9C312.789 147.269 316.091 127.155 314.787 119.555C311.643 123.083 307.488 125.708 302.949 127.038C303.584 120.007 303.685 112.926 303.225 105.887C303.175 105.118 303.099 104.298 302.606 103.705C301.511 102.401 299.262 103.228 298.284 104.633C297.306 106.037 296.997 107.818 295.968 109.181C294.639 88.1385 294.071 67.6397 299.028 47.0156C289.004 49.7326 278.329 67.5394 273.129 76.1502C266.349 87.3777 261.35 99.6585 258.106 112.366C250.9 140.597 251.961 170.108 255.548 198.934C257.228 212.468 258.541 225.635 258.699 239.212C258.825 249.687 259.803 265.613 254.837 275.319C261.935 261.45 272.794 249.277 286.028 240.065C292.307 235.692 299.279 232.532 305.917 228.787C309.595 226.714 313.182 224.423 316.517 221.89C318.398 220.461 323.214 214.391 325.278 214.048V214.057Z" fill="#9ED8D6"/>
</g>
<path d="M324.576 330.503C322.745 330.286 320.914 330.069 319.075 329.851C330.144 321.934 335.352 309.035 340.243 296.888C355.182 259.811 372.069 223.412 390.821 187.857C348.653 182.314 303.91 203.774 284.406 238.894C272.836 259.727 269.902 283.587 265.705 306.694C261.491 329.91 255.138 352.448 239.296 371.3C251.986 365.373 262.553 356.411 276.238 352.381C284.991 349.806 293.803 347.842 302.205 344.314C306.493 342.508 310.665 340.443 314.577 338.011C316.107 337.057 323.322 330.353 324.576 330.503Z" fill="#CCF9A0"/>
<g style="mix-blend-mode:multiply" opacity="0.45">
<path d="M324.576 330.504C322.745 330.286 320.914 330.069 319.075 329.852C330.144 321.935 335.352 309.035 340.243 296.888C349.021 275.102 358.459 253.575 368.533 232.357C373.582 221.723 378.791 211.156 384.158 200.681C384.634 199.753 390.737 187.84 390.821 187.832C374.92 188.827 361.394 200.096 350.392 210.814C344.816 216.239 339.741 222.183 335.252 228.545C332.217 232.842 324.166 242.297 324.141 247.698C324.175 240.115 324.217 232.541 324.25 224.959C314.31 234.64 306.059 246.043 299.973 258.499C299.897 245.307 301.218 232.107 303.919 219.19C294.505 221.581 288.795 230.978 284.398 238.895C272.828 259.728 269.893 283.587 265.697 306.695C261.483 329.91 255.13 352.449 239.287 371.301C251.978 365.373 262.545 356.411 276.23 352.382C284.983 349.807 293.795 347.842 302.196 344.315C306.485 342.509 310.657 340.444 314.569 338.011C316.099 337.058 323.314 330.353 324.568 330.504H324.576Z" fill="#7CDDB1"/>
</g>
<path d="M329.943 354.636C346.914 349.219 362.873 339.078 370.907 324.189C369.461 324.49 368.015 324.799 366.56 325.1C376.191 307.862 382.026 288.818 383.598 269.456C371.35 267.249 358.727 265.535 346.446 267.592C322.737 271.554 304.144 288.884 291.069 307.653C277.994 326.421 268.748 347.421 254.335 365.328C266.357 365.253 277.484 362.804 289.288 361.633C303.066 360.27 316.751 358.841 329.926 354.636H329.943Z" fill="#7CDDB1"/>
<g style="mix-blend-mode:multiply">
<path d="M329.943 354.636C346.914 349.218 362.873 339.078 370.907 324.189C369.461 324.49 368.014 324.799 366.56 325.1C376.191 307.862 382.026 288.818 383.598 269.456C374.886 267.884 367.07 269.589 358.484 271.746C355.291 272.549 334.666 277.097 334.081 280.34C334.332 278.969 334.583 277.598 334.825 276.236C319.175 288.023 297.59 300.237 285.727 315.737C281.957 320.661 279.942 325.819 277.258 331.144C279.934 332.356 282.701 331.788 285.459 331.102C294.839 328.778 304.219 326.446 313.599 324.122C303.124 337.924 292.122 351.334 280.619 364.3C284.097 360.379 298.091 360.772 302.756 360.178C311.944 359.025 321.098 357.453 329.935 354.627L329.943 354.636Z" fill="#9ED8D6"/>
</g>
<path d="M319.51 123.075C330.161 117.541 342.475 113.511 354.463 115.635C350.868 114.999 339.382 125.391 336.598 127.556C317.921 142.036 301.544 161.481 286.981 179.488C298.217 166.397 314.352 157.644 331.047 151.299C337.567 148.824 343.821 146.625 350.459 144.477C355.149 142.964 368.081 141.032 371.225 137.655C350.375 160.068 321.55 175.083 291.454 184.939C306.886 185.85 322.478 184.396 337.409 180.65C325.563 195.498 302.648 196.969 284.782 205.137C261.366 215.838 247.054 238 234.121 259.042C240.148 249.253 242.096 235.25 246.076 224.532C249.478 215.37 251.995 205.948 255.731 196.869C263.648 177.607 274.951 159.291 290.325 144.301C298.877 135.958 308.684 128.701 319.518 123.075H319.51Z" fill="#4DA392"/>
<path d="M50.159 127.513C40.2357 121.978 28.7491 117.949 17.5801 120.072C20.9325 119.437 31.6333 129.828 34.2332 131.994C51.6471 146.473 66.9041 165.919 80.4807 183.926C70.0057 170.834 54.966 162.081 39.4081 155.736C33.3303 153.261 27.5034 151.063 21.317 148.914C16.9447 147.401 4.89798 145.47 1.96362 142.093C21.3923 164.506 48.2697 179.52 76.3175 189.377C61.9299 190.288 47.4002 188.833 33.4808 185.088C44.5244 199.935 65.8758 201.407 82.5289 209.574C104.357 220.275 117.699 242.438 129.746 263.48C124.128 253.69 122.314 239.687 118.611 228.97C115.442 219.807 113.093 210.385 109.615 201.306C102.233 182.045 91.6999 163.728 77.3708 148.739C69.3954 140.395 60.2663 133.139 50.159 127.513Z" fill="#4DA392"/>
<g style="mix-blend-mode:multiply" opacity="0.35">
<path d="M47.0324 132.806C39.8595 128.501 32.0931 125.215 23.8919 123.719C27.1105 126.703 30.8725 129.195 34.2499 132.012C44.5244 140.556 53.6451 150.421 62.2058 160.662C69.5291 169.414 75.9998 181.628 84.226 189.286C71.8783 177.8 55.0998 172.717 39.8093 165.602C29.4513 160.787 19.6116 154.935 9.78857 149.1C19.5865 159.809 30.9477 167.985 43.7051 174.991C51.4047 179.221 59.6894 183.643 68.0829 186.327C71.9201 187.556 74.2191 187.414 77.2371 190.615C78.3406 191.786 81.1245 199.594 81.5257 199.745C75.7072 197.613 69.6295 196.183 63.4765 195.473C55.9692 194.612 48.0105 194.779 41.2222 191.017C46.8986 202.085 71.9953 204.409 82.5457 209.584C104.374 220.285 117.716 242.447 129.763 263.49C124.145 253.7 122.331 239.697 118.627 228.979C115.459 219.817 113.11 210.395 109.632 201.316C102.25 182.055 91.7166 163.738 77.3875 148.749C74.8377 146.082 71.778 143.682 68.9189 141.333C73.9349 147.687 78.0312 154.759 81.0409 162.275C72.9233 153.865 64.7305 145.455 55.3757 138.441C52.7005 136.434 49.9166 134.545 47.0407 132.814L47.0324 132.806Z" fill="#4DA392"/>
</g>
<path d="M319.51 123.075C330.161 117.541 342.475 113.511 354.463 115.635C350.868 114.999 339.382 125.391 336.598 127.556C317.921 142.036 301.544 161.481 286.981 179.488C298.217 166.397 314.352 157.644 331.047 151.299C337.567 148.824 343.821 146.625 350.459 144.477C355.149 142.964 368.081 141.032 371.225 137.655C350.375 160.068 321.55 175.083 291.454 184.939C306.886 185.85 322.478 184.396 337.409 180.65C325.563 195.498 302.648 196.969 284.782 205.137C261.366 215.838 247.054 238 234.121 259.042C240.148 249.253 242.096 235.25 246.076 224.532C249.478 215.37 251.995 205.948 255.731 196.869C263.648 177.607 274.951 159.291 290.325 144.301C298.877 135.958 308.684 128.701 319.518 123.075H319.51Z" fill="#4DA392"/>
<g style="mix-blend-mode:multiply" opacity="0.35">
<path d="M324.509 131.076C329.801 127.773 335.352 124.889 341.104 122.465C332.669 131.92 322.31 139.511 313.516 148.724C304.144 158.538 295.667 169.08 286.981 179.497C291.93 173.553 299.304 166.221 307.079 164.273C304.328 168.144 301.578 172.006 298.819 175.877C310.665 171.638 322.377 166.923 333.396 160.846C340.569 156.891 347.407 152.369 354.112 147.679C359.312 144.042 366.418 141.684 371.016 137.889C360.39 149.259 347.775 158.63 334.274 166.321C327.519 170.167 320.53 173.595 313.399 176.679C307.831 179.079 297.54 185.307 291.454 184.947C295.082 185.165 298.184 185.666 301.711 186.319C298.769 188.534 296.094 191.084 293.728 193.901C300.758 193.374 307.714 191.87 314.335 189.454C317.119 188.434 319.844 187.255 322.57 186.076C325.696 184.722 335.168 182.899 337.409 180.659C325.563 195.506 302.648 196.978 284.782 205.145C261.366 215.846 247.054 238.008 234.121 259.051C240.148 249.261 242.096 235.258 246.076 224.54C249.478 215.378 251.995 205.956 255.731 196.877C263.648 177.616 274.951 159.299 290.325 144.31C292.984 141.718 295.784 140.28 299.036 138.508C298.192 144.109 297.348 149.718 296.503 155.32C304.495 145.839 314.001 137.638 324.518 131.084L324.509 131.076Z" fill="#4DA392"/>
</g>
<mask id="mask0_19183_37661" style="mask-type:luminance" maskUnits="userSpaceOnUse" x="-22" y="0" width="418" height="418">
<path d="M396 0H-22V418H396V0Z" fill="white"/>
</mask>
<g mask="url(#mask0_19183_37661)">
<path d="M32.5907 264.97C34.2794 266.057 35.9849 267.16 37.8826 267.804C39.6716 268.414 41.561 268.607 43.4169 268.941C48.4413 269.852 53.265 271.85 57.4617 274.76C59.0836 275.888 60.6218 277.151 62.3858 278.045C64.0912 278.915 65.9638 279.408 67.8198 279.893C79.3398 282.919 90.977 285.954 102.882 286.439C103.876 286.48 104.972 286.539 105.674 287.241C106.167 287.726 106.359 288.437 106.535 289.105C109.937 302.373 112.036 317.245 108.006 330.596C103.132 328.381 97.6733 329.576 92.5236 329.041C87.9925 328.573 84.1218 325.413 79.7495 325.062C74.5078 324.644 69.7342 321.701 64.3336 321.325C60.3459 321.049 56.3582 321.768 52.3621 321.734C41.7784 321.643 32.0473 316.367 21.9819 313.124C6.34033 308.074 -10.3964 307.899 -26.8322 307.765C-25.0431 307.782 -24.7923 285.243 -24.7756 283.128C-24.7254 277.243 -24.8592 271.34 -24.692 265.455C-24.4914 258.616 -24.2991 251.786 -24.0984 244.948C-23.9062 238.26 -24.2071 231.547 -24.182 224.867C-18.3133 227.325 -13.0298 231.187 -8.90831 236.028C-8.23115 236.822 -7.57071 237.65 -6.71799 238.243C-5.63119 238.987 -4.31867 239.297 -3.08139 239.756C3.24713 242.122 7.04257 248.108 12.1338 252.188C18.2115 257.062 25.9863 260.69 32.5907 264.953V264.97Z" fill="#ED7525"/>
<g style="mix-blend-mode:multiply" opacity="0.51">
<path d="M32.5907 264.97C34.2794 266.057 35.9849 267.16 37.8826 267.804C39.6716 268.414 41.561 268.606 43.4169 268.941C48.4413 269.852 53.265 271.85 57.4617 274.759C59.0836 275.888 60.6218 277.15 62.3858 278.045C64.0912 278.914 65.9638 279.407 67.8198 279.892C79.3398 282.919 90.977 285.953 102.882 286.438C103.876 286.48 104.972 286.539 105.674 287.241C106.167 287.726 106.359 288.428 106.535 289.105C107.003 290.928 107.371 292.717 107.68 294.572C104.888 291.663 100.382 291.454 96.3524 291.504C87.4574 291.605 78.4871 292.014 69.8512 294.146C61.2154 296.278 52.847 300.249 46.6439 306.628C49.6786 301.001 53.6496 295.877 58.3395 291.538C46.6355 296.612 36.9546 305.867 24.8494 309.905C30.9354 309.579 36.9463 308.032 42.4388 305.374C40.5662 307.898 38.6935 310.423 36.8209 312.948C40.3237 314.411 44.4118 313.709 47.8394 312.087C51.2753 310.465 54.2264 308.007 57.3112 305.792C61.8173 302.565 66.6744 299.831 71.7657 297.649C75.0512 296.244 78.671 295.049 82.1572 295.843C77.1412 299.145 72.5264 303.058 68.4551 307.472C73.0698 304.454 78.1694 302.18 83.4948 300.759C82.3662 302.038 81.2459 303.325 80.1173 304.604C83.3025 303.292 86.4876 301.979 89.6728 300.667C92.7576 299.396 96.4277 297.172 95.9512 293.87C99.4791 299.279 103.015 304.688 106.543 310.097C110.824 316.66 110.188 323.314 107.99 330.596C103.116 328.38 97.6566 329.576 92.5068 329.041C87.9757 328.573 84.105 325.412 79.7328 325.061C74.491 324.643 69.7175 321.701 64.3169 321.324C60.3292 321.049 56.3415 321.768 52.3454 321.734C41.7617 321.642 32.0306 316.367 21.9652 313.123C6.3236 308.074 -10.4131 307.898 -26.8489 307.765C-25.0598 307.781 -24.809 285.243 -24.7923 283.128C-24.7422 277.242 -24.8759 271.34 -24.7087 265.455C-24.5081 258.616 -24.3158 251.786 -24.1152 244.948C-23.9396 238.845 -24.0399 233.168 -23.0702 227.199C-20.838 230.719 -20.4535 235.058 -19.0741 238.995C-17.6947 242.933 -14.5346 246.895 -10.3713 246.753C-8.67424 246.695 -6.80996 245.984 -5.39712 246.912C-4.77848 247.313 -4.3772 247.965 -3.88396 248.501C-2.65504 249.83 -0.882713 250.473 0.822725 251.075C12.0084 255.021 22.5754 258.491 32.5824 264.953L32.5907 264.97Z" fill="#ED7525"/>
</g>
<g style="mix-blend-mode:multiply" opacity="0.64">
<path d="M43.3251 310.706C43.9103 309.887 44.5038 309.059 45.1141 308.248L47.0703 305.916L49.2022 303.734L51.4593 301.686C54.5609 299.044 57.9969 296.82 61.5833 294.897C65.2032 293.033 68.9652 291.462 72.8359 290.241L75.7535 289.388L78.7046 288.636L81.6808 288.017L84.6736 287.516L81.7226 288.235L78.7966 289.037L75.8956 289.898L73.0282 290.86C69.2244 292.197 65.5042 293.744 61.9595 295.65C58.3898 297.489 55.004 299.696 51.8523 302.196C48.7089 304.704 45.8331 307.563 43.3083 310.723L43.3251 310.706Z" fill="#ED7525"/>
</g>
<g style="mix-blend-mode:multiply" opacity="0.64">
<path d="M7.05933 306.644C8.33005 307.188 9.65093 307.606 10.9969 307.907C12.3428 308.182 13.7139 308.316 15.0849 308.35C17.827 308.4 20.5691 307.998 23.2108 307.271C28.5194 305.825 33.3432 303.058 37.9662 300.065C42.6311 297.122 47.1539 293.862 52.1532 291.404C54.6528 290.183 57.2444 289.138 59.9363 288.411C61.2906 288.068 62.6533 287.809 64.0327 287.642C65.4121 287.491 66.8082 287.45 68.1876 287.525C66.7999 287.542 65.4288 287.659 64.0662 287.868C62.7035 288.093 61.3659 288.419 60.0534 288.812C57.42 289.606 54.8869 290.702 52.4541 291.981C47.5719 294.531 43.0826 297.757 38.426 300.775C33.7528 303.718 28.8371 306.552 23.3864 307.89C20.6778 308.55 17.8772 308.893 15.0849 308.759C13.6888 308.667 12.3094 308.458 10.9551 308.124C9.60913 307.764 8.30496 307.271 7.06768 306.644H7.05933Z" fill="#ED7525"/>
</g>
<g style="mix-blend-mode:multiply" opacity="0.64">
<path d="M69.2578 300.751C70.9967 299.288 73.0115 298.201 75.1182 297.365C77.2333 296.554 79.457 295.994 81.7226 295.902C79.5824 296.646 77.4841 297.332 75.4191 298.151C73.3459 298.945 71.3311 299.857 69.2578 300.751Z" fill="#ED7525"/>
</g>
<g style="mix-blend-mode:multiply" opacity="0.64">
<path d="M58.6908 321.341C61.901 321.5 65.0611 320.714 67.9286 319.401C70.8128 318.089 73.4796 316.325 75.9375 314.319C78.4455 312.354 80.7863 310.172 83.2692 308.124C84.5148 307.104 85.7772 306.109 87.0897 305.181C88.419 304.278 89.7816 303.417 91.2279 302.715C89.8736 303.576 88.5694 304.504 87.3321 305.515C86.0781 306.502 84.8659 307.547 83.6788 308.617C81.2962 310.749 78.9471 312.939 76.4474 314.979C73.906 316.96 71.1806 318.774 68.171 319.995C66.6662 320.597 65.1029 321.065 63.4978 321.324C61.8927 321.558 60.2625 321.6 58.6741 321.341H58.6908Z" fill="#ED7525"/>
</g>
<g style="mix-blend-mode:multiply" opacity="0.64">
<path d="M69.6172 313.242C71.3728 311.06 73.4628 309.163 75.6865 307.466C77.927 305.794 80.3263 304.306 82.9096 303.219C80.6524 304.882 78.3952 306.454 76.1965 308.134C73.9811 309.79 71.8409 311.529 69.6255 313.242H69.6172Z" fill="#ED7525"/>
</g>
<g style="mix-blend-mode:multiply" opacity="0.64">
<path d="M86.4794 322.48C88.7031 320.883 91.1443 319.621 93.6523 318.551C96.1686 317.506 98.7769 316.644 101.477 316.168C98.9776 317.271 96.4612 318.258 93.9783 319.32C91.4787 320.356 89.0208 321.46 86.4794 322.48Z" fill="#ED7525"/>
</g>
<g style="mix-blend-mode:multiply" opacity="0.64">
<path d="M30.0745 312.329C30.9941 311.895 31.8301 311.552 32.6493 311.125C33.477 310.716 34.2377 310.239 35.1323 309.746C34.731 310.691 33.9284 311.401 33.0339 311.87C32.131 312.321 31.086 312.555 30.0828 312.338L30.0745 312.329Z" fill="#ED7525"/>
</g>
<path d="M275.633 327.885C279.085 327.091 282.68 325.987 285.096 323.396C285.615 322.836 286.083 322.217 286.718 321.799C287.437 321.339 288.306 321.189 289.151 321.055C298.832 319.475 308.521 317.895 318.202 316.323C315.761 308.097 313.328 299.879 310.887 291.653C303.647 293.668 296.315 295.365 288.925 296.727C288.39 296.828 287.813 296.911 287.337 296.66C286.894 296.426 286.643 295.958 286.4 295.524C284.544 292.313 281.476 290.031 278.684 287.59C275.884 285.14 273.3 281.913 272.431 278.218C272.213 277.299 271.369 276.705 270.65 276.095C267.808 273.821 266.988 269.582 265.684 266.355C263.711 267.459 262.19 269.332 261.504 271.489C260.05 276.087 264.405 281.403 265.994 285.466C266.688 287.239 266.905 289.914 265.693 291.536C264.99 292.472 263.904 293.041 262.867 293.567C259.974 295.047 257.082 296.518 254.189 297.998C255.251 307.545 256.313 317.101 257.374 326.648C257.859 331.012 259.891 330.493 263.285 329.85C267.381 329.064 271.553 328.83 275.649 327.893L275.633 327.885Z" fill="#FF9797"/>
<g style="mix-blend-mode:multiply" opacity="0.35">
<path d="M305.754 293.082C307.468 292.605 309.173 292.129 310.887 291.652C313.328 299.878 315.761 308.096 318.202 316.322C308.521 317.903 298.832 319.483 289.151 321.054C288.307 321.188 287.437 321.338 286.718 321.798C286.074 322.208 285.615 322.835 285.096 323.395C282.68 325.987 279.094 327.09 275.633 327.884C271.536 328.829 267.373 329.055 263.268 329.841C259.874 330.493 257.843 331.003 257.358 326.639C256.296 317.092 255.234 307.536 254.173 297.989C257.065 296.509 259.958 295.038 262.85 293.558C263.895 293.023 264.974 292.463 265.676 291.527C266.888 289.913 266.671 287.23 265.977 285.457C264.397 281.394 260.033 276.077 261.488 271.479C262.131 269.44 263.695 267.049 265.743 266.246C266.345 268.562 266.512 270.953 267.407 273.218C267.866 274.372 268.46 275.467 269.003 276.587C270.734 280.165 271.528 284.421 273.559 287.798C274.897 290.014 277.355 291.301 279.813 292.12C277.054 291.201 277.33 296.284 277.614 297.504C278.249 300.296 279.579 302.637 281.986 304.301C284.77 306.224 288.273 306.892 291.659 306.8C297.227 306.642 302.552 304.51 307.902 303.114C307.794 303.139 305.888 293.032 305.745 293.073L305.754 293.082Z" fill="#C6926F"/>
</g>
<g style="mix-blend-mode:multiply" opacity="0.35">
<path d="M275.633 327.883C279.085 327.089 282.68 325.985 285.096 323.394C285.615 322.833 286.083 322.215 286.718 321.797C287.437 321.337 288.307 321.187 289.151 321.053C298.832 319.473 308.521 317.893 318.202 316.321C317.332 313.378 316.463 310.444 315.585 307.501C314.967 305.428 313.729 303.121 313.47 300.989C313.796 303.513 311.773 305.712 309.708 307.192C304.667 310.795 298.564 312.534 292.595 314.206C290.413 314.816 288.123 315.435 285.916 314.925C287.855 317.266 286.844 321.061 284.519 323.034C282.204 325.007 279.027 325.576 276.001 325.885C274.329 326.06 272.481 326.127 271.143 325.099C269.756 324.037 269.371 322.131 269.196 320.384C268.811 316.488 268.569 311.272 270.098 307.627C271.637 310.544 274.747 312.852 278.124 313.253C279.361 313.403 280.607 313.253 281.828 313.01C284.26 312.526 286.618 311.639 288.775 310.402C287.462 310.11 286.158 309.809 284.845 309.516C282.287 308.939 279.411 306.665 277.321 305.068C274.312 302.761 272.18 299.501 270.358 296.182C272.657 295.128 274.855 293.866 276.92 292.411C275.558 292.069 274.153 291.701 272.991 290.915C271.829 290.121 270.918 288.792 271.026 287.387C271.077 286.676 271.386 285.983 271.294 285.28C271.093 283.767 269.212 282.923 268.978 281.41C268.778 280.114 269.756 278.433 268.686 277.664C268.318 277.397 267.825 277.38 267.44 277.154C266.913 276.845 266.688 276.21 266.495 275.633C265.994 274.12 265.492 272.598 264.99 271.085C264.74 270.333 264.43 269.513 263.711 269.171C262.365 268.535 261.763 270.592 261.488 271.461C260.033 276.059 264.389 281.376 265.977 285.439C266.671 287.211 266.888 289.887 265.676 291.509C264.974 292.445 263.887 293.013 262.85 293.54C259.958 295.02 257.065 296.491 254.173 297.971C255.234 307.518 256.296 317.073 257.358 326.621C257.843 330.984 259.874 330.466 263.268 329.822C267.365 329.037 271.536 328.802 275.633 327.866V327.883Z" fill="#FF9797"/>
</g>
<g style="mix-blend-mode:multiply">
<path d="M267.9 295.626C268.41 297.498 269.229 299.245 270.191 300.901C271.169 302.548 272.189 304.211 273.267 305.775C274.345 307.33 275.625 308.767 277.263 309.662C278.082 310.105 278.985 310.406 279.922 310.498C280.858 310.632 281.819 310.481 282.714 310.105C281.903 310.648 280.9 310.908 279.897 310.908C278.893 310.899 277.898 310.648 276.979 310.239C275.115 309.394 273.718 307.856 272.59 306.259C271.486 304.629 270.5 302.966 269.63 301.202C269.204 300.324 268.82 299.413 268.51 298.485C268.226 297.548 267.992 296.587 267.908 295.617L267.9 295.626Z" fill="#E2BFA8"/>
</g>
<g style="mix-blend-mode:multiply">
<path d="M265.25 300.364C265.885 303.691 266.395 307.002 266.98 310.304C267.54 313.614 268.176 316.908 268.694 320.252C267.532 317.075 266.746 313.773 266.153 310.446C265.593 307.119 265.216 303.741 265.241 300.355L265.25 300.364Z" fill="#E2BFA8"/>
</g>
<g style="mix-blend-mode:multiply">
<path d="M268.401 292.48C269.597 292.765 270.692 292.982 271.821 293.049C272.949 293.124 274.061 293.049 275.282 292.915C274.295 293.676 272.999 293.952 271.762 293.885C270.525 293.801 269.279 293.358 268.393 292.489L268.401 292.48Z" fill="#E2BFA8"/>
</g>
<g style="mix-blend-mode:multiply">
<path d="M265.375 283.62C265.383 282.742 265.776 281.948 266.303 281.296C266.846 280.652 267.557 280.117 268.41 279.941C267.925 280.66 267.432 281.22 266.947 281.822C266.445 282.408 265.994 283.01 265.375 283.62Z" fill="#E2BFA8"/>
</g>
<g style="mix-blend-mode:multiply">
<path d="M265.024 280.677C265.149 279.975 265.551 279.431 266.027 278.98C266.52 278.554 267.097 278.203 267.816 278.152C267.457 278.771 267.039 279.181 266.596 279.599C266.136 280 265.676 280.376 265.032 280.677H265.024Z" fill="#E2BFA8"/>
</g>
<path d="M327.807 320.144C327.465 320.169 327.122 320.161 326.779 320.144C324.53 320.011 322.265 319.317 320.058 319.776C317.909 320.22 316.003 321.716 313.813 321.683C313.42 321.683 313.019 321.616 312.693 321.407C311.514 320.646 311.949 318.832 310.937 317.904C312.224 316.859 314.013 316.75 315.493 316.065C314.674 312.871 314.08 309.552 313.361 306.325C312.785 303.767 312.116 301.226 311.347 298.718C310.828 296.126 310.427 294.404 308.914 292.214C307.869 292.581 306.581 292.924 305.528 292.715C306.297 291.378 306.13 289.722 306.214 288.217C306.222 287.992 306.247 287.749 306.397 287.582C306.866 287.072 308.245 287.774 308.864 287.691C309.65 287.574 310.093 287.147 310.803 286.905C312.793 286.245 314.783 285.977 316.58 284.773C317.884 283.904 319.18 282.692 320.743 282.8C322.373 282.909 323.527 284.397 324.338 285.81C324.455 286.01 324.589 286.228 324.815 286.286C324.957 286.32 325.107 286.286 325.249 286.245C327.925 285.517 330.458 284.949 332.865 283.578C335.415 282.123 338.166 279.623 341.259 279.674C342.446 279.699 343.591 280.125 344.77 280.209C350.196 280.61 354.05 274.148 359.475 273.855C360.921 273.78 362.46 274.139 363.755 273.504C364.859 272.96 365.662 271.74 366.89 271.665C367.559 271.623 368.195 271.957 368.847 272.108C370.46 272.492 372.115 271.798 373.637 271.13C381.847 267.485 390.048 263.84 398.257 260.203C399.11 263.698 399.076 267.769 399.352 271.38C399.645 275.343 399.779 279.306 399.921 283.277C399.988 285.091 401.451 306.743 401.166 306.743C397.873 306.074 394.621 307.813 391.343 308.582C389.086 309.109 386.754 309.176 384.446 309.352C376.095 309.987 367.944 312.069 359.751 313.791C358.405 314.075 357.042 314.351 355.671 314.267C353.991 314.175 352.378 313.548 350.697 313.415C347.462 313.147 344.394 314.677 341.351 315.797C339.361 316.524 337.137 317.118 334.997 316.85C333.894 316.717 331.611 315.153 330.591 316.04C330.123 316.449 330.483 317.193 330.533 317.804C330.6 318.631 330.006 319.417 329.262 319.785C328.819 320.002 328.334 320.103 327.841 320.136L327.807 320.144Z" fill="#287493"/>
<path d="M327.807 320.144C327.465 320.169 327.122 320.161 326.779 320.144C324.53 320.01 322.265 319.316 320.058 319.776C317.909 320.219 316.003 321.716 313.813 321.682C313.42 321.682 313.019 321.615 312.693 321.406C311.514 320.646 311.949 318.831 310.937 317.903C312.224 316.858 314.013 316.75 315.493 316.064C314.674 312.871 314.08 309.552 313.361 306.325C312.785 303.767 312.116 301.225 311.347 298.717C310.828 296.126 310.427 294.403 308.914 292.213C307.869 292.581 306.581 292.924 305.528 292.715C306.297 291.377 306.13 289.722 306.214 288.217C306.222 287.991 306.247 287.749 306.397 287.582C306.866 287.072 308.245 287.774 308.864 287.69C309.65 287.573 310.093 287.147 310.803 286.905C312.793 286.244 314.783 285.977 316.58 284.773C317.884 283.903 319.18 282.691 320.743 282.8C325.107 283.092 325.985 290.048 326.946 293.241C328.259 297.614 329.379 302.045 330.466 306.484C331.143 309.268 332.732 318.062 329.245 319.793C328.802 320.01 328.317 320.11 327.824 320.144H327.807Z" fill="#1C76BC"/>
<g style="mix-blend-mode:multiply" opacity="0.29">
<path d="M315.569 320.954C316.313 320.728 316.99 320.344 317.567 319.859C318.143 319.366 318.62 318.764 319.005 318.12C319.79 316.824 320.15 315.336 320.192 313.823C320.233 312.318 320.05 310.805 319.765 309.3C319.489 307.787 319.188 306.274 318.846 304.778C318.185 301.776 317.316 298.834 316.087 296.033C315.477 294.628 314.724 293.291 313.846 292.037C312.994 290.766 311.965 289.613 310.837 288.551C312.091 289.462 313.194 290.582 314.172 291.794C315.134 293.023 315.97 294.353 316.664 295.757C318.06 298.558 318.971 301.567 319.657 304.594C319.991 306.115 320.292 307.628 320.543 309.167C320.777 310.705 320.969 312.276 320.827 313.865C320.71 315.437 320.242 317.025 319.347 318.337C318.453 319.633 317.115 320.687 315.569 320.946V320.954Z" fill="#1C76BC"/>
<path d="M317.491 285.91C319.138 287.708 320.551 289.731 321.755 291.871C322.967 294.003 323.929 296.277 324.681 298.617C325.417 300.967 325.935 303.374 326.177 305.824L326.311 307.655L326.361 309.494L326.294 311.325C326.244 311.935 326.186 312.545 326.119 313.147C326.094 312.537 326.077 311.926 326.069 311.325L325.952 309.51L325.785 307.705L325.534 305.907C325.149 303.525 324.614 301.167 323.878 298.877C323.159 296.578 322.24 294.345 321.178 292.172C320.108 290.007 318.854 287.925 317.483 285.919L317.491 285.91Z" fill="#1C76BC"/>
<path d="M321.922 301.141C323.285 303.874 324.02 306.909 324.255 309.969C324.472 313.029 324.188 316.138 323.235 319.039C323.536 316.005 323.653 313.012 323.427 310.027C323.218 307.034 322.675 304.092 321.93 301.141H321.922Z" fill="#1C76BC"/>
<path d="M307.936 288.551C308.839 288.693 309.608 289.186 310.235 289.796C310.853 290.423 311.347 291.184 311.497 292.087C310.778 291.535 310.235 290.958 309.641 290.39C309.073 289.805 308.488 289.261 307.927 288.551H307.936Z" fill="#1C76BC"/>
</g>
<g style="mix-blend-mode:multiply" opacity="0.38">
<path d="M327.807 320.144C327.465 320.169 327.122 320.16 326.779 320.144C324.53 320.01 322.265 319.316 320.058 319.776C317.909 320.219 316.003 321.715 313.813 321.682C313.42 321.682 313.019 321.615 312.693 321.406C311.514 320.645 311.949 318.831 310.937 317.903C312.224 316.858 314.013 316.75 315.493 316.064C314.674 312.871 314.08 309.552 313.361 306.325C312.785 303.767 312.116 301.225 311.347 298.717C310.828 296.125 310.427 294.403 308.914 292.213C307.869 292.581 306.581 292.924 305.528 292.715C306.297 291.377 306.13 289.722 306.214 288.217C306.222 287.991 306.247 287.749 306.397 287.582C307.593 286.277 311.581 289.814 312.308 290.591C314.222 292.648 315.443 295.306 316.388 297.915C318.703 304.31 319.949 311.09 320.049 317.887C322.674 310.864 321.445 303.056 320.166 295.657C322.323 298.441 323.778 301.768 324.38 305.238C323.736 299.72 322.198 294.311 319.824 289.287C325.483 294.286 327.389 302.178 329.003 309.56C330.09 301.66 325.667 294.554 325.433 286.838C329.714 291.645 333.099 297.246 335.382 303.265C334.094 299.996 332.773 296.518 333.384 293.057C335.047 295.097 336.51 297.296 337.747 299.612C337.43 298.341 337.622 296.953 338.257 295.808C341.727 299.11 344.661 302.972 346.91 307.202C345.497 301.568 344.093 295.607 345.74 290.031C346.475 290.457 347.077 291.11 347.445 291.879C347.587 289.872 348.264 287.899 349.401 286.236C352.344 290.232 352.57 295.85 355.88 299.545C355.797 297.522 356.098 295.482 356.75 293.567C357.979 294.771 359.216 295.983 360.445 297.187C360.997 297.731 361.799 298.307 362.46 297.906C362.794 297.706 362.953 297.304 363.087 296.928C365.076 291.293 365.946 285.257 365.611 279.288C368.838 280.041 369.449 284.906 372.55 286.085C372.642 283.719 372.734 281.353 372.826 278.979C372.834 278.712 372.851 278.427 373.01 278.218C373.353 277.742 374.097 277.901 374.64 278.135C377.725 279.439 380.534 281.378 382.85 283.794C383.184 282.273 383.669 280.568 385.057 279.865C386.177 279.297 387.523 279.581 388.752 279.347C390.925 278.929 392.472 276.906 393.149 274.791C393.818 272.684 393.826 270.427 394.136 268.228C394.203 267.735 394.295 267.225 394.562 266.799C394.813 266.397 395.197 266.105 395.523 265.762C396.677 264.541 396.97 262.585 396.217 261.08C396.978 260.93 397.705 260.637 398.349 260.211C399.67 263.354 399.076 267.986 399.327 271.372C399.62 275.334 399.754 279.297 399.896 283.268C399.963 285.082 401.426 306.734 401.141 306.734C397.848 306.066 394.596 307.804 391.318 308.574C389.061 309.1 386.729 309.167 384.421 309.343C376.07 309.978 367.919 312.06 359.726 313.782C358.38 314.066 357.017 314.342 355.646 314.258C353.966 314.166 352.352 313.539 350.672 313.406C347.437 313.138 344.369 314.668 341.326 315.788C339.336 316.516 337.112 317.109 334.972 316.842C333.868 316.708 331.586 315.144 330.566 316.031C330.098 316.44 330.458 317.184 330.508 317.795C330.575 318.622 329.981 319.408 329.237 319.776C328.794 319.993 328.309 320.094 327.816 320.127L327.807 320.144Z" fill="#125066"/>
</g>
<g style="mix-blend-mode:multiply" opacity="0.29">
<path d="M353.381 276.414C352.394 277.083 351.667 278.044 351.207 279.114C350.731 280.176 350.446 281.313 350.254 282.475C349.911 284.799 349.661 287.165 349.51 289.514C349.351 291.872 349.301 294.238 349.326 296.603C349.351 298.969 349.493 301.335 349.661 303.709C349.401 302.547 349.217 301.369 349.042 300.19C348.891 299.003 348.774 297.816 348.691 296.629C348.515 294.246 348.54 291.847 348.691 289.464C348.858 287.073 349.134 284.707 349.635 282.35C349.911 281.179 350.271 280.009 350.848 278.93C351.45 277.877 352.294 276.924 353.381 276.414Z" fill="#1C76BC"/>
<path d="M345.029 283.422C345.848 285.269 346.291 287.251 346.534 289.24C346.76 291.238 346.785 293.262 346.417 295.251C346.116 293.253 345.949 291.297 345.706 289.341C345.489 287.376 345.205 285.437 345.029 283.422Z" fill="#1C76BC"/>
<path d="M361.448 273.79C362.895 274.509 364.006 275.797 364.884 277.134C365.779 278.472 366.514 279.918 367.116 281.406C367.409 282.158 367.668 282.919 367.894 283.697C368.111 284.474 368.237 285.26 368.387 286.046C368.538 286.832 368.671 287.618 368.805 288.403C368.897 289.198 369.014 289.983 369.073 290.778C368.613 289.248 368.17 287.718 367.752 286.196C367.526 285.444 367.384 284.658 367.133 283.914C366.891 283.17 366.631 282.426 366.339 281.707C365.77 280.252 365.085 278.84 364.324 277.46C363.555 276.098 362.711 274.768 361.448 273.773V273.79Z" fill="#1C76BC"/>
<path d="M369.332 272.602C371.463 274.048 373.11 276.205 374.155 278.588C375.184 280.979 375.643 283.654 375.234 286.195C374.975 283.646 374.389 281.205 373.386 278.914C372.4 276.623 371.02 274.525 369.332 272.594V272.602Z" fill="#1C76BC"/>
<path d="M356.19 310.817C356.992 307.766 357.519 304.706 357.619 301.604C357.745 298.503 357.444 295.41 356.858 292.316C358.079 295.234 358.556 298.461 358.455 301.638C358.33 304.815 357.619 307.991 356.19 310.817Z" fill="#1C76BC"/>
<path d="M365.369 297.223C365.762 297.983 365.904 298.761 365.979 299.547C366.029 300.333 366.021 301.127 365.762 301.946C365.369 301.185 365.227 300.408 365.152 299.622C365.101 298.836 365.11 298.042 365.369 297.231V297.223Z" fill="#1C76BC"/>
<path d="M336.611 303.142C335.031 300.032 333.76 296.738 333.124 293.26C332.824 291.521 332.673 289.749 332.773 287.985C332.865 286.221 333.216 284.466 333.869 282.844C333.208 286.28 333.333 289.732 333.944 293.11C334.537 296.496 335.633 299.781 336.611 303.142Z" fill="#1C76BC"/>
<path d="M339.787 301.945C340.623 303.45 341.158 305.072 341.568 306.719C341.961 308.374 342.229 310.055 342.17 311.777C341.568 310.163 341.158 308.541 340.749 306.92C340.364 305.289 339.98 303.659 339.779 301.954L339.787 301.945Z" fill="#1C76BC"/>
</g>
<path d="M242.448 359.971L101.934 347.725L92.3852 250.796L239.974 260.7L242.448 359.971Z" fill="#335B96" stroke="black"/>
<g style="mix-blend-mode:soft-light" opacity="0.3">
<g filter="url(#filter0_i_19183_37661)">
<path d="M109 336.117L105 265L115.5 265.883L119 337L109 336.117Z" fill="black"/>
</g>
<path d="M109 336.117L105 265L115.5 265.883L119 337L109 336.117Z" stroke="black"/>
</g>
<g style="mix-blend-mode:soft-light" opacity="0.3">
<g filter="url(#filter1_i_19183_37661)">
<path d="M128 337.117L124 266L134.5 266.883L138 338L128 337.117Z" fill="black"/>
</g>
<path d="M128 337.117L124 266L134.5 266.883L138 338L128 337.117Z" stroke="black"/>
</g>
<g style="mix-blend-mode:soft-light" opacity="0.3">
<g filter="url(#filter2_i_19183_37661)">
<path d="M148 338.123L144 268L154.5 268.877L158 339L148 338.123Z" fill="black"/>
</g>
<path d="M148 338.123L144 268L154.5 268.877L158 339L148 338.123Z" stroke="black"/>
</g>
<g style="mix-blend-mode:soft-light" opacity="0.3">
<g filter="url(#filter3_i_19183_37661)">
<path d="M166.5 340.118L163 270L173 270.441L176 341L166.5 340.118Z" fill="black"/>
</g>
<path d="M166.5 340.118L163 270L173 270.441L176 341L166.5 340.118Z" stroke="black"/>
</g>
<g style="mix-blend-mode:soft-light" opacity="0.3">
<g filter="url(#filter4_i_19183_37661)">
<path d="M184.5 341.558L181 270L190.87 270.883L194 342L184.5 341.558Z" fill="black"/>
</g>
<path d="M184.5 341.558L181 270L190.87 270.883L194 342L184.5 341.558Z" stroke="black"/>
</g>
<g style="mix-blend-mode:soft-light" opacity="0.3">
<g filter="url(#filter5_i_19183_37661)">
<path d="M203.5 343.558L200 272L209.87 272.883L213 344L203.5 343.558Z" fill="black"/>
</g>
<path d="M203.5 343.558L200 272L209.87 272.883L213 344L203.5 343.558Z" stroke="black"/>
</g>
<g style="mix-blend-mode:soft-light" opacity="0.3">
<g filter="url(#filter6_i_19183_37661)">
<path d="M223.5 345.558L220 273L229.87 273.885L233 346L223.5 345.558Z" fill="black"/>
</g>
<path d="M223.5 345.558L220 273L229.87 273.885L233 346L223.5 345.558Z" stroke="black"/>
</g>
<g style="mix-blend-mode:multiply" opacity="0.32">
<path d="M99.2868 322.196C99.2868 322.304 99.2951 322.413 99.3035 322.522C98.409 316.243 97.5981 309.957 96.8958 303.661C96.3775 299.013 95.8341 294.374 95.3576 289.717C94.9396 285.604 95.182 281.708 94.9563 277.654C94.438 268.466 92.7409 259.404 91.838 250.258C91.8965 250.835 113.031 251.679 114.301 251.763C122.018 252.281 129.726 252.799 137.442 253.318C139.231 253.435 156.436 254.647 151.177 261.042C150.525 261.836 149.422 262.129 148.753 262.906C147.574 264.278 148.301 266.434 149.405 267.864C150.508 269.294 151.997 270.564 152.373 272.337C153.125 275.881 149.204 278.49 145.902 279.978C148.343 281.716 147.449 285.88 144.991 287.594C142.533 289.307 139.306 289.282 136.305 289.199C136.096 293.17 133.12 296.606 129.533 298.336C125.955 300.067 121.85 300.359 117.871 300.276C113.934 300.2 109.762 299.833 106.284 301.689C99.1029 305.526 99.0025 315.09 99.2868 322.196Z" fill="#9E7051"/>
</g>
<path d="M240.462 260.233L265.024 228.766L265.785 324.479L242.962 360.519L240.462 260.233Z" fill="#64A4EB"/>
<path d="M93.2984 249.855L132.411 222.976L264.035 229.218L240.231 259.714L93.2984 249.855Z" fill="#64A4EB" stroke="black"/>
<g style="mix-blend-mode:multiply" opacity="0.53">
<path d="M120.805 243.034C120.73 242.482 120.454 241.989 120.162 241.521C119.886 241.069 119.577 240.609 119.117 240.35C118.498 239.999 117.729 240.066 117.027 240.166C115.071 240.442 113.123 240.894 111.15 240.777C108.575 240.626 106.811 240.25 104.529 241.537C102.263 242.825 100.148 244.547 97.9994 246.027C96.9377 246.754 93.1924 250.349 91.8464 250.257C94.2625 250.416 96.6869 250.583 99.1029 250.742C101.862 250.926 104.612 251.109 107.371 251.293C109.06 251.41 110.757 251.536 112.445 251.636C112.914 251.661 115.154 251.527 115.38 251.728C114.418 250.867 114.77 249.203 115.664 248.267C116.559 247.331 117.821 246.863 118.908 246.16C119.995 245.458 120.998 244.313 120.822 243.025L120.805 243.034Z" fill="#C6926F"/>
</g>
<path d="M251.907 299.106L250.452 247.424L107.103 240.368L124.225 228.004L259.598 235.72L260.727 280.689L258.628 278.908L257.358 285.529L255.61 282.611L251.907 299.106Z" fill="#A1DFFD"/>
<path d="M253.119 308.236L254.958 342.186L263.268 329.846L261.12 297.226L258.812 308.236L255.61 293.48L253.119 308.236Z" fill="#A1DFFD"/>
<path d="M139.306 275.921C140.477 276.105 141.605 276.448 142.391 277.284C142.809 277.719 143.043 278.296 143.177 278.881C144.573 285.101 136.372 283.295 133.095 282.877C129.391 282.409 125.671 282.041 121.968 281.539C118.147 281.539 114.318 280.837 110.565 280.193C107.129 279.608 103.96 278.688 100.65 280.185C108.366 282.325 116.433 283.529 124.417 284.181C126.114 284.323 127.937 284.482 129.266 285.56C130.595 286.63 131.013 288.98 129.625 289.966C129.232 290.25 128.748 290.384 128.271 290.501C122.946 291.797 117.319 291.187 111.994 289.908C108.709 289.113 105.49 288.077 102.263 287.065C98.6766 285.945 95.9429 285.326 92.1893 285.477C89.4305 285.594 86.6633 285.702 83.9045 285.585C79.0641 285.376 74.2153 284.44 69.8179 282.4C68.1626 281.631 66.5324 280.695 64.7267 280.469C63.3138 280.285 61.8843 280.553 60.4881 280.812C51.033 282.584 41.5862 284.357 32.131 286.129C30.8101 276.323 29.9323 266.466 29.506 256.576C36.9213 255.765 44.0858 254.06 51.3841 252.864C57.8129 251.819 64.4926 250.039 69.333 245.424C70.261 244.546 71.1137 243.56 72.2172 242.908C73.4712 242.164 74.9509 241.913 76.3889 241.67C80.7193 240.943 85.3173 240.567 89.4639 239.154C93.251 237.867 97.339 237.716 101.151 236.362C102.062 236.036 102.99 235.668 103.96 235.701C104.713 235.726 105.431 236.002 106.142 236.245C110.439 237.724 114.811 237.816 119.2 238.652C120.705 240.166 119.602 242.941 117.737 243.969C115.438 245.24 111.927 245.315 109.336 245.449C107.028 245.575 104.738 245.884 102.439 246.009C100.357 246.118 98.2586 245.875 96.1519 246.068C100.457 247.539 104.345 247.782 108.792 247.823C112.864 247.857 116.952 247.656 121.015 247.949C125.913 248.3 130.72 249.428 135.41 250.858C138.788 251.886 145.819 252.923 147.248 256.668C149.464 262.487 141.672 262.077 138.295 261.275C134.758 260.439 131.205 259.736 127.594 259.31C123.589 258.833 119.61 258.892 115.606 258.658C111.885 258.449 107.99 258.616 104.412 259.862C114.427 260.347 124.425 261.224 134.374 262.495C137.826 262.938 141.288 263.431 144.615 264.468C146.262 264.978 147.934 265.672 149.037 267.001C150.141 268.322 150.467 270.429 149.355 271.741C148.26 273.029 146.32 273.096 144.632 273.012C137.643 272.653 130.746 271.449 123.798 270.713C120.187 270.713 116.475 269.718 112.864 269.434C112.019 269.367 104.295 269.827 104.311 270.178C104.32 270.521 104.437 270.863 104.637 271.139C108.366 272.084 112.37 271.95 116.174 272.678C120.446 273.497 124.751 274.107 129.065 274.642C131.54 274.952 134.006 275.244 136.472 275.587C137.35 275.712 138.345 275.754 139.315 275.913L139.306 275.921Z" fill="#FFD2D2"/>
<path d="M140.844 254.553C139.816 254.753 138.763 255.263 138.328 256.208C137.81 257.336 138.387 258.733 139.356 259.518C140.326 260.304 141.58 260.614 142.801 260.856C144.581 261.207 147.817 261.575 147.842 258.858C147.867 255.188 143.854 253.951 140.853 254.544L140.844 254.553Z" fill="#FFEEDE"/>
<path d="M144.381 265.9C142.617 265.766 140.895 266.034 140.067 266.895C138.178 268.868 141.262 271.208 142.968 271.61C144.498 271.969 146.061 272.187 147.633 272.262C149.84 272.37 150.55 268.893 149.196 267.547C148.327 266.686 146.337 266.05 144.381 265.9Z" fill="#FFEEDE"/>
<path d="M137.701 276.934C135.912 276.967 133.387 278.129 134.19 280.337C134.951 282.435 138.621 282.627 140.46 282.619C141.346 282.619 142.299 282.519 142.951 281.917C143.695 281.231 143.796 280.036 143.369 279.116C142.433 277.118 139.649 276.892 137.701 276.934Z" fill="#FFEEDE"/>
<path d="M122.636 287.945C122.787 288.472 123.155 288.982 123.648 289.333C124.542 289.985 125.679 290.194 126.783 290.261C127.502 290.303 128.237 290.286 128.906 290.027C130.21 289.534 131.038 287.895 130.185 286.658C129.96 286.323 129.608 286.089 129.241 285.922C127.987 285.354 126.532 285.504 125.161 285.671C124.559 285.747 123.949 285.822 123.414 286.114C122.619 286.557 122.436 287.26 122.628 287.937L122.636 287.945Z" fill="#FFEEDE"/>
<g style="mix-blend-mode:multiply" opacity="0.57">
<path d="M111.626 237.499C113.917 238.352 116.358 238.77 118.807 238.737C118.975 238.737 119.108 238.712 119.234 238.603C119.192 238.168 118.816 238.06 118.398 238.009C116.96 237.842 115.522 237.683 114.092 237.516C113.231 237.416 112.354 237.516 111.476 237.449C111.526 237.466 111.576 237.491 111.635 237.508L111.626 237.499Z" fill="#FFD2D2"/>
</g>
<g style="mix-blend-mode:multiply" opacity="0.57">
<path d="M117.971 243.842C117.896 243.892 117.821 243.934 117.746 243.976C115.447 245.246 111.935 245.322 109.344 245.455C107.036 245.581 104.746 245.89 102.447 246.016C99.036 246.2 95.1486 246.166 91.838 245.288C94.2875 244.068 96.737 242.856 99.1781 241.635C100.524 240.966 101.903 240.281 103.4 240.113C104.629 239.971 105.874 240.18 107.103 240.356C109.528 240.699 111.793 241.693 114.293 241.802C116.291 241.886 118.364 241.501 119.986 240.331C119.869 241.785 119.25 242.998 117.971 243.834V243.842Z" fill="#FFD2D2"/>
</g>
<g style="mix-blend-mode:multiply" opacity="0.53">
<path d="M117.971 243.843C117.896 243.893 117.821 243.934 117.746 243.976C115.447 245.247 111.936 245.322 109.344 245.456C107.037 245.581 104.746 245.891 102.447 246.016C101.001 246.091 94.622 246.969 94.4799 244.913C97.0464 244.319 99.6965 243.968 102.296 243.466C103.325 243.266 104.445 243.015 105.105 242.204C105.331 241.928 105.557 241.56 105.916 241.544C106.518 241.518 106.635 242.38 106.97 242.881C107.346 243.45 108.132 243.583 108.801 243.475C109.469 243.366 110.096 243.073 110.774 242.973C111.409 242.881 112.061 242.965 112.705 243.007C114.937 243.157 117.194 242.798 119.267 241.962C119.359 241.928 118.364 243.592 117.988 243.834L117.971 243.843Z" fill="#FFD2D2"/>
</g>
<g style="mix-blend-mode:multiply" opacity="0.57">
<path d="M139.632 272.625C134.34 272.098 129.082 271.271 123.79 270.711C120.178 270.711 116.467 269.716 112.855 269.431C111.2 269.306 109.528 269.247 107.873 269.415C107.304 269.473 103.032 270.017 104.88 271.371C105.314 271.689 105.908 271.655 106.451 271.613C103.316 271.889 99.638 272.123 96.6869 273.252C96.3441 273.386 95.9261 273.737 96.1435 274.046C96.202 274.13 96.3023 274.18 96.3943 274.222C101.402 276.629 107.137 277.482 112.629 276.629C113.608 276.479 114.627 276.27 115.58 276.546C116.224 276.73 116.793 277.123 117.403 277.399C118.381 277.842 119.468 277.975 120.538 278.109C124.91 278.653 129.291 279.196 133.663 279.731C136.781 280.115 140.694 281.487 143.653 279.806C143.754 279.748 143.302 281.704 142.985 282.047C142.224 282.874 140.928 283.217 139.866 283.359C137.626 283.66 135.327 283.15 133.111 282.866C129.408 282.398 125.688 282.03 121.984 281.528C118.164 281.528 114.335 280.826 110.581 280.182C108.366 279.806 106.117 279.221 103.851 279.388C101.786 279.388 99.4875 280.592 97.5312 281.186C97.3473 281.244 97.1467 281.311 97.0296 281.461C96.7203 281.888 97.2721 282.406 97.757 282.624C101.218 284.187 105.064 284.906 108.859 284.68C109.202 284.663 109.62 284.68 109.77 284.981C109.862 285.157 109.82 285.366 109.837 285.566C109.912 286.294 110.765 286.628 111.476 286.787C113.624 287.263 115.848 287.472 118.047 287.38C118.841 287.347 122.987 287.33 123.263 286.486C122.235 289.646 130.545 289.186 130.896 288.2C130.478 289.395 129.533 290.181 128.296 290.482C122.971 291.778 117.344 291.167 112.019 289.888C108.734 289.094 105.515 288.057 102.288 287.046C98.7016 285.926 95.9679 285.307 92.2143 285.458C89.4555 285.575 86.6883 285.683 83.9295 285.566C79.0891 285.357 74.2403 284.421 69.8429 282.381C68.1876 281.612 66.5574 280.676 64.7517 280.45C63.3388 280.266 61.9093 280.534 60.5132 280.793C51.058 282.565 41.6112 284.337 32.156 286.11C30.8352 276.303 29.9574 266.447 29.531 256.557C31.6879 256.323 33.8364 256.005 35.9766 255.654C38.9444 255.161 41.9122 254.944 44.788 253.89C44.5456 253.982 45.8079 258.003 45.9751 258.388C46.6606 259.985 47.6806 261.481 49.2021 262.384C50.2053 262.977 51.3506 263.278 52.4959 263.462C56.3248 264.089 60.2456 263.571 64.0494 262.785C70.1355 261.523 76.0795 259.592 81.7392 257.025C82.6254 256.624 83.5951 256.198 84.5314 256.448C86.3623 256.933 86.7218 259.466 88.26 260.561C90.4169 262.1 93.811 260.26 95.9596 259.458C97.3139 258.956 98.7434 258.288 99.4122 257C97.991 257.452 96.4194 257.435 95.0149 256.942C94.0702 256.607 93.1422 256.005 92.7828 255.069C92.6657 254.76 92.6239 254.383 92.8246 254.116C93.4348 253.322 96.1518 252.461 97.1885 252.034C98.8521 251.34 100.9 251.533 102.464 252.402C102.848 252.619 103.216 252.879 103.634 253.029C105.097 253.573 107.404 252.803 108.959 252.77C111.033 252.728 113.098 252.686 115.171 252.636C118.13 252.569 121.098 252.511 124.032 252.912C127.953 253.455 131.707 254.818 135.544 255.788C138.445 256.524 141.405 257.034 144.389 257.309C145.417 257.401 146.63 257.393 147.248 256.565C147.574 259.04 147.758 260.653 144.874 261.439C142.801 261.999 140.385 261.732 138.32 261.255C134.783 260.419 131.23 259.717 127.619 259.291C123.614 258.814 119.635 258.873 115.631 258.639C113.198 258.497 110.748 258.522 108.332 258.898C103.417 259.659 98.8521 260.612 95.9261 265.076C96.2689 264.549 101.026 265.076 101.761 265.101C103.826 265.168 105.891 265.285 107.956 265.435C111.844 265.728 115.773 266.129 119.627 265.251C120.204 265.118 120.822 264.967 121.374 265.176C121.809 265.335 122.126 265.695 122.494 265.979C123.263 266.564 124.233 266.79 125.169 267.007C130.093 268.152 134.808 267.667 139.808 267.4C139.03 267.442 142.073 269.323 142.249 269.373C143.821 269.891 145.451 270.217 147.106 270.334C148.109 270.401 149.179 270.384 150.04 269.858C149.522 272.658 147.273 273.127 144.657 272.984C142.985 272.901 141.321 272.767 139.666 272.6L139.632 272.625Z" fill="#FFD2D2"/>
</g>
<g style="mix-blend-mode:multiply" opacity="0.53">
<path d="M130.47 289.245C129.023 291.051 125.211 291.109 123.13 291.193C119.376 291.343 115.631 290.775 111.986 289.897C108.7 289.103 105.482 288.066 102.255 287.055C98.6682 285.934 95.9345 285.316 92.1808 285.466C89.422 285.583 86.6549 285.692 83.8961 285.575C79.0556 285.366 74.2068 284.43 69.8095 282.39C68.1542 281.621 66.524 280.684 64.7182 280.459C63.3054 280.275 61.8758 280.542 60.4797 280.801C51.0246 282.574 41.5778 284.346 32.1226 286.118C30.8017 276.312 29.9239 266.456 29.4976 256.566C31.6544 256.332 33.803 256.014 35.9431 255.663C37.5817 255.395 40.0479 254.359 40.7585 256.44C42.5642 261.757 44.37 267.083 46.1674 272.399C47.7474 271.781 49.3191 271.162 50.8992 270.544C51.3172 270.376 51.7435 270.218 52.195 270.234C52.8303 270.268 53.3737 270.661 53.9255 270.962C57.0438 272.642 60.8977 271.338 64.0244 269.674C64.6263 269.356 65.2449 269.014 65.9221 268.938C66.6996 268.855 67.4603 269.122 68.2127 269.331C70.8127 270.059 73.6049 270.075 76.2132 269.398C78.1193 268.905 79.9167 268.044 81.8479 267.668C87.6246 266.547 93.8779 269.866 99.3203 267.643C100.064 267.342 100.783 266.932 101.577 266.823C102.121 266.748 102.673 266.815 103.216 266.882C110.523 267.76 117.804 269.039 124.977 270.677C123.297 270.226 121.458 270.594 119.719 270.36C117.428 270.05 115.154 269.582 112.838 269.407C111.183 269.281 109.511 269.223 107.856 269.39C107.287 269.448 103.015 269.992 104.863 271.346C105.298 271.664 105.891 271.63 106.435 271.589C103.433 271.848 100.39 271.772 97.4142 272.308C96.5448 272.466 90.2998 274.071 93.4599 275.785C96.528 277.449 100.039 277.967 103.492 278.118C105.064 278.185 106.761 277.976 108.299 278.268C109.971 278.586 111.676 279.205 113.365 279.572C114.661 279.857 115.957 280.132 117.211 280.55C112.721 280.325 108.274 279.363 103.826 279.363C101.97 279.363 100.006 280.174 98.3254 280.893C95.9428 281.913 97.2386 282.958 99.2283 283.685C104.378 285.575 109.578 287.414 114.962 288.543C120.296 289.663 125.136 289.211 130.461 289.22L130.47 289.245Z" fill="#FFD2D2"/>
</g>
<path d="M19.9756 250.634C18.1949 249.907 16.1801 250.391 14.3075 250.851C3.58162 253.501 -7.67094 255.232 -18.4804 252.941C-21.8328 252.231 -25.8539 252.264 -28.9137 250.676C-28.8886 266.334 -28.6545 281.984 -28.1864 297.634C-28.1279 299.59 -28.0693 301.546 -28.0025 303.503C-27.969 304.456 -28.4205 308.519 -27.7935 309.137C-27.1247 309.798 -23.9061 307.599 -22.5601 307.323C-15.2367 305.81 -7.95518 304.213 -0.765579 302.148C3.57326 300.903 7.97062 299.523 12.485 299.557C16.2554 299.582 20.4019 300.501 23.5119 298.386C26.5382 296.33 27.4578 292.041 30.5259 290.043C30.8937 289.809 31.3117 289.566 31.4371 289.148C31.5207 288.873 31.4455 288.58 31.3786 288.304C28.8873 278.289 27.9677 267.881 28.6867 257.589C28.7285 257.046 28.7536 256.452 28.461 255.993C28.1935 255.575 27.7169 255.349 27.2571 255.148C25.7774 254.496 24.3479 253.928 23.1022 252.966C22.0405 252.147 21.2547 251.169 19.9672 250.642L19.9756 250.634Z" fill="#EFA029"/>
<g style="mix-blend-mode:multiply" opacity="0.53">
<path d="M19.9086 252.113C19.7163 252.113 19.524 252.113 19.3318 252.113C20.2096 254.738 21.706 257.154 23.6623 259.111C18.1196 259.637 12.4849 257.154 7.05093 258.358C6.76669 258.425 6.45737 258.517 6.29853 258.759C5.98085 259.261 6.53261 259.855 7.02585 260.181C11.6907 263.282 16.7736 265.765 22.0906 267.529C20.6025 269.536 17.8437 270.071 15.3524 270.137C4.09149 270.438 -6.71799 264.377 -17.9455 265.247C-6.17459 269.235 6.04773 271.793 18.3536 273.548C11.6406 274.97 4.86061 276.081 -1.95279 276.884C5.13649 280.437 13.6135 278.656 21.497 279.559C17.9356 281.465 14.2154 283.121 10.2946 284.099C3.02141 285.904 -4.60291 285.294 -12.0768 284.675C-14.5764 284.466 -17.2349 284.199 -19.1828 282.619C-20.9634 281.173 -21.8078 278.907 -22.5518 276.733C-24.7422 270.346 -26.7318 263.884 -28.5042 257.363C-28.1614 270.706 -28.571 284.199 -28.1865 297.633C-28.128 299.59 -28.0694 301.546 -28.0026 303.502C-27.9691 304.455 -28.4206 308.518 -27.7936 309.137C-27.1248 309.797 -23.9062 307.599 -22.5602 307.323C-15.2368 305.81 -7.95527 304.213 -0.765671 302.148C3.57317 300.902 7.97053 299.523 12.4849 299.556C16.2553 299.581 20.4018 300.501 23.5118 298.386C26.5381 296.329 27.4577 292.041 30.5258 290.043C30.8936 289.809 31.3116 289.566 31.437 289.148C31.5206 288.872 31.4454 288.58 31.3785 288.304C28.8872 278.288 27.9676 267.88 28.6866 257.589C28.7284 257.046 28.7535 256.452 28.4609 255.992C28.1934 255.574 27.7168 255.349 27.257 255.148C24.8076 254.061 22.6172 252.239 19.9002 252.122L19.9086 252.113Z" fill="#ED7525"/>
</g>
<g style="mix-blend-mode:multiply" opacity="0.57">
<path d="M27.65 283.84C26.5549 286.516 24.7324 288.907 22.4501 290.746C21.3215 291.682 20.0591 292.46 18.7299 293.087C17.3923 293.714 15.9711 294.14 14.5499 294.458C11.6824 295.068 8.7815 295.202 5.92237 295.452C4.49282 295.578 3.07161 295.745 1.66713 296.029C0.262655 296.288 -1.11675 296.698 -2.45435 297.25C-1.20035 296.523 0.170696 296.029 1.56682 295.628C2.9713 295.252 4.40922 295.009 5.83878 294.809C8.70626 294.407 11.5821 294.24 14.3576 293.638C17.1331 293.07 19.7665 291.933 22.0405 290.236C23.1858 289.4 24.2391 288.43 25.1671 287.343C26.1201 286.281 26.9311 285.086 27.6333 283.832L27.65 283.84Z" fill="#ED7525"/>
</g>
<g style="mix-blend-mode:multiply" opacity="0.57">
<path d="M0.0620117 281.966C2.23561 282.075 4.39249 282.024 6.54101 281.815C8.68953 281.598 10.8213 281.28 12.9448 280.896C15.0766 280.536 17.2084 280.118 19.3653 279.809C20.4437 279.658 21.5221 279.516 22.6089 279.391C23.6957 279.307 24.7825 279.215 25.8693 279.207C25.3343 279.307 24.7992 279.408 24.2642 279.491L22.6674 279.801C21.6057 280.001 20.544 280.219 19.4823 280.444C17.3672 280.904 15.2354 281.347 13.0953 281.723C10.9467 282.083 8.78149 282.384 6.59117 282.459L4.95261 282.476L3.31405 282.417L1.68385 282.242C1.14045 282.158 0.60541 282.066 0.0703703 281.966H0.0620117Z" fill="#ED7525"/>
</g>
<g style="mix-blend-mode:multiply" opacity="0.57">
<path d="M11.2811 276.593C14.1068 276.209 16.8489 275.573 19.7247 275.356C22.5922 275.155 25.5098 275.423 28.2268 276.326C25.3844 276.075 22.5838 275.975 19.7916 276.184C17.0077 276.376 14.1486 276.861 11.2895 276.593H11.2811Z" fill="#ED7525"/>
</g>
<g style="mix-blend-mode:multiply" opacity="0.57">
<path d="M27.6166 272.562C24.7073 272.663 21.7897 272.579 18.8888 272.395C15.9795 272.22 13.0786 271.902 10.1944 271.492C7.31016 271.066 4.44268 270.548 1.60028 269.887C0.179084 269.553 -1.23376 269.202 -2.63824 268.825C-4.03436 268.416 -5.43884 268.023 -6.81824 267.555L-2.54628 268.424C-1.12508 268.717 0.296122 268.993 1.72568 269.252C4.57644 269.762 7.43556 270.255 10.303 270.665C13.1705 271.091 16.0464 271.434 18.9306 271.76C21.8148 272.077 24.7073 272.312 27.6082 272.562H27.6166Z" fill="#ED7525"/>
</g>
<g style="mix-blend-mode:multiply" opacity="0.57">
<path d="M27.4493 269.102C26.1117 269.068 24.7741 268.876 23.4532 268.642C22.1324 268.374 20.8366 268.032 19.5491 267.655C16.9742 266.895 14.4746 265.908 11.975 265.005C9.47532 264.086 6.95896 263.241 4.37572 262.639C3.08828 262.338 1.77576 262.113 0.454882 262.004C-0.865998 261.862 -2.19524 261.862 -3.53284 261.945C-2.22032 261.67 -0.865996 261.586 0.479964 261.594C1.82592 261.628 3.17188 261.778 4.50112 262.012C7.1596 262.48 9.73448 263.316 12.2592 264.228C14.7756 265.156 17.2418 266.159 19.7498 267.053C22.2578 267.94 24.8076 268.692 27.4577 269.11L27.4493 269.102Z" fill="#ED7525"/>
</g>
<g style="mix-blend-mode:multiply" opacity="0.57">
<path d="M26.7722 262.823C25.861 260.959 24.281 259.538 22.4919 258.576C20.7196 257.565 18.7466 256.988 16.7486 256.57C12.7525 255.7 8.62268 255.893 4.56808 256.436C0.496763 256.946 -3.54112 257.84 -7.65424 258.35C-9.7108 258.568 -11.7841 258.768 -13.8574 258.718C-15.9306 258.718 -17.9956 258.434 -20.0187 258.008C-15.9223 258.593 -11.8008 258.334 -7.7462 257.707C-3.6916 257.071 0.337923 256.177 4.45104 255.6C5.48768 255.491 6.5076 255.349 7.5526 255.299L9.10756 255.207H10.6709H11.4484L12.2258 255.266L13.7892 255.383C14.8174 255.55 15.8624 255.667 16.8656 255.943C18.8888 256.444 20.8952 257.105 22.6758 258.225C24.4398 259.329 26.0115 260.875 26.7472 262.823H26.7722Z" fill="#ED7525"/>
</g>
<g style="mix-blend-mode:multiply" opacity="0.57">
<path d="M26.8224 265.977C24.5067 264.798 22.2077 263.678 19.8168 262.767C17.4342 261.83 14.993 261.111 12.4767 260.426C15.085 260.459 17.6766 261.053 20.1177 261.989C22.5505 262.942 24.8662 264.246 26.8224 265.977Z" fill="#ED7525"/>
</g>
<g style="mix-blend-mode:multiply" opacity="0.57">
<path d="M-19.0405 294.583C-15.5042 295.059 -11.9345 294.925 -8.44841 294.374C-4.96229 293.814 -1.52633 292.902 1.80931 291.724C5.17003 290.612 8.45551 289.249 11.7744 287.962C13.4381 287.318 15.1017 286.682 16.7737 286.072C18.4624 285.487 20.1428 284.91 21.865 284.434C20.2097 285.086 18.5544 285.738 16.9242 286.448C15.2856 287.134 13.6471 287.836 12.0169 288.555C8.74811 289.968 5.44591 291.331 2.07683 292.518C-1.31733 293.638 -4.79509 294.583 -8.36481 295.009C-10.1455 295.218 -11.9429 295.318 -13.7319 295.268C-15.521 295.193 -17.31 295.001 -19.0405 294.583Z" fill="#ED7525"/>
</g>
<g style="mix-blend-mode:multiply" opacity="0.57">
<path d="M22.9016 295.243C22.3331 295.945 21.564 296.396 20.7614 296.714C19.9505 297.015 19.081 297.191 18.1865 297.04C18.9389 296.539 19.6997 296.238 20.4604 295.928C21.2379 295.644 21.9987 295.368 22.8932 295.234L22.9016 295.243Z" fill="#ED7525"/>
</g>
<path d="M43.8015 287.358C43.8182 287.818 43.8349 288.278 43.8517 288.729C38.4009 289.875 32.992 291.254 27.6583 292.851C27.3908 292.851 25.4346 276.507 25.3259 275.395C24.6738 268.473 24.7323 261.476 25.3092 254.545C27.3657 254.044 29.8737 254.671 32.0306 254.562C34.7727 254.428 37.4981 253.968 40.1398 253.199C42.1379 264.485 43.3668 275.905 43.8099 287.358H43.8015Z" fill="#EFA029"/>
<g style="mix-blend-mode:multiply" opacity="0.53">
<path d="M43.8015 287.358C43.8182 287.818 43.8349 288.278 43.8517 288.729C38.4009 289.875 32.992 291.254 27.6583 292.851C27.3908 292.851 25.4346 276.507 25.3259 275.395C24.6738 268.473 24.7323 261.476 25.3092 254.545C25.4011 253.425 28.4693 254.796 28.7535 255.557C29.0377 256.318 28.9876 257.154 28.9458 257.964C28.4609 266.341 28.5863 275.002 31.7547 282.777C31.2949 275.838 30.8268 268.899 30.7181 261.952C30.6847 259.929 30.7014 257.822 31.5708 255.991C33.2846 266.291 32.248 277.335 36.8627 286.698C36.2023 278.271 35.5418 269.844 35.1071 261.4C35.4582 265.146 36.3277 268.841 37.6903 272.352C39.3289 266.291 39.4209 259.829 37.9662 253.726C38.6852 253.651 39.3874 253.467 40.0562 253.199C41.8787 258.165 41.9623 264.686 42.5391 269.986C43.1661 275.763 43.5925 281.565 43.8182 287.367L43.8015 287.358Z" fill="#ED7525"/>
</g>
<path d="M328.284 358.634C325.065 350.835 322.942 342.207 319.021 334.808C307.25 337.768 295.346 340.234 283.366 342.182C283.123 342.224 282.873 342.257 282.647 342.182C281.911 341.94 280.699 340.828 279.98 340.376C278.935 339.716 277.949 338.947 276.87 338.328C274.287 336.84 271.695 335.352 269.112 333.872C267.206 332.777 265.266 331.665 263.143 331.105C261.27 330.603 259.306 330.545 257.366 330.52C250.06 330.419 242.552 330.771 235.647 328.371C234.585 328.003 233.532 327.569 232.412 327.46C231.291 327.351 230.071 327.627 229.327 328.48C228.691 329.207 228.516 330.236 228.591 331.197C228.967 336.263 234.268 337.785 238.372 339.055C241.156 339.916 244.015 340.518 246.883 341.012C249.625 341.471 252.2 341.965 254.959 342.199C253.746 345.442 251.222 347.148 248.262 348.619C244.609 350.442 240.972 352.306 237.26 354.011C229.812 357.447 222.221 360.549 214.58 363.508C212.782 364.202 210.885 364.946 209.681 366.451C208.527 367.889 208.117 371.367 210.45 371.994C211.754 372.345 214.22 371.4 215.558 371.174C217.464 370.848 219.362 370.522 221.268 370.196C221.61 371.409 222.689 372.303 223.876 372.729C225.063 373.156 226.351 373.172 227.613 373.139C230.882 373.039 234.134 372.587 237.302 371.793C237.612 371.718 237.946 371.634 238.23 371.76C238.514 371.885 238.682 372.161 238.874 372.403C239.952 373.749 241.934 373.85 243.647 373.774C251.439 373.432 258.921 372.027 266.537 370.439C277.121 368.232 287.696 366.025 298.347 364.169C303.447 363.283 308.529 362.438 313.579 361.402C318.461 360.398 323.36 359.462 328.276 358.634H328.284Z" fill="#FFBBBB"/>
<path d="M238.138 331.005C238.138 330.654 238.063 330.311 237.887 330.002C236.943 328.338 233.114 327.143 231.325 327.352C230.547 327.444 229.736 327.778 229.36 328.464C228.616 329.801 229.795 331.507 230.823 332.334C231.567 332.936 232.445 333.354 233.306 333.764C233.849 334.023 234.401 334.282 234.995 334.332C235.797 334.399 236.617 334.065 237.185 333.488C237.754 332.911 238.071 332.117 238.13 331.314C238.13 331.214 238.138 331.105 238.13 331.005H238.138Z" fill="#FFD2D2"/>
<path d="M210.951 369.019C212.598 368.392 214.346 368.008 216.11 367.899C217.104 367.832 219.495 368.534 218.475 370.031C218.175 370.474 217.614 370.641 217.104 370.783C215.499 371.226 213.894 371.661 212.289 372.104C211.177 372.405 209.221 372.831 209.087 371.168C208.987 369.922 210.024 369.379 210.951 369.027V369.019Z" fill="#FFD2D2"/>
<g style="mix-blend-mode:multiply" opacity="0.24">
<path d="M328.284 358.635C326.754 358.894 322.265 340.017 322.19 340.026C309.625 342.408 296.642 345.903 283.834 346.196C282.103 346.237 280.356 346.196 278.693 345.727C276.795 345.201 275.098 344.156 273.409 343.144C270.366 341.313 267.281 339.541 264.163 337.836C262.098 336.707 260 335.595 257.717 335.027C254.499 334.224 251.121 334.567 247.802 334.583C243.89 334.609 239.977 334.182 236.165 333.313C233.524 332.711 230.74 331.766 229.185 329.551C228.549 332.034 229.87 334.701 231.852 336.331C233.833 337.961 236.358 338.747 238.849 339.39C244.835 340.937 250.979 341.848 257.157 342.107C255.761 344.574 253.797 346.714 251.472 348.336C254.933 348.386 258.361 346.555 260.25 343.654C259.791 346.078 258.294 348.545 256.614 350.3C251.297 355.86 244.191 357.883 236.985 359.755C228.7 361.904 220.507 364.412 212.44 367.279C211.487 367.622 210.492 367.982 209.781 368.709C208.602 369.913 208.786 371.543 210.467 371.994C211.771 372.346 214.237 371.401 215.575 371.175C217.481 370.849 219.378 370.523 221.284 370.197C221.627 371.409 222.706 372.304 223.893 372.73C225.08 373.157 226.367 373.173 227.63 373.14C230.898 373.039 234.151 372.588 237.319 371.794C237.628 371.719 237.963 371.635 238.247 371.76C238.531 371.886 238.698 372.162 238.891 372.404C239.969 373.75 241.95 373.85 243.664 373.775C251.456 373.432 258.938 372.028 266.554 370.44C277.138 368.232 287.713 366.025 298.364 364.17C303.463 363.283 308.546 362.439 313.596 361.402C318.478 360.399 323.377 359.463 328.292 358.635H328.284Z" fill="#C6926F"/>
</g>
<g style="mix-blend-mode:multiply" opacity="0.35">
<path d="M328.284 358.636C327.08 355.718 326.044 352.733 325.015 349.757C324.48 348.202 323.995 346.614 323.385 345.092C323.051 344.248 321.956 342.651 322.006 341.773C321.78 345.402 320.158 348.921 317.541 351.446C314.791 354.104 311.138 355.576 307.56 356.922C286.643 364.83 264.848 370.783 242.561 372.63C240.922 372.764 238.782 372.555 238.339 370.967C242.577 370.423 246.799 369.713 250.979 368.851C253.613 368.308 256.296 367.99 258.904 367.288C259.949 367.004 260.969 366.787 261.939 366.318C262.917 365.834 263.703 364.705 264.639 364.304C258.846 366.795 252.308 367.397 246.122 368.258C239.584 369.169 233.047 370.072 226.509 370.983C224.704 371.234 222.681 371.426 221.243 370.306C229.661 367.489 238.305 365.349 247.067 363.919C252.467 363.041 257.375 362.063 261.529 358.276C253.947 361.62 245.554 362.021 237.528 363.677C229.335 365.365 221.293 367.74 213.05 369.328C211.537 369.621 209.279 369.554 209.305 367.43C208.377 368.994 208.352 371.451 210.442 372.012C211.746 372.363 214.212 371.418 215.549 371.192C217.456 370.866 219.353 370.54 221.259 370.214C221.602 371.426 222.681 372.321 223.868 372.747C225.055 373.174 226.342 373.19 227.605 373.157C230.873 373.057 234.125 372.605 237.294 371.811C237.603 371.736 237.938 371.652 238.222 371.777C238.506 371.903 238.673 372.179 238.866 372.421C239.944 373.767 241.925 373.867 243.639 373.792C251.431 373.449 258.913 372.045 266.529 370.457C277.113 368.25 287.688 366.043 298.339 364.187C303.438 363.3 308.521 362.456 313.57 361.419C318.453 360.416 323.352 359.48 328.267 358.652L328.284 358.636Z" fill="#FF9797"/>
</g>
<g style="mix-blend-mode:multiply" opacity="0.35">
<path d="M257.358 339.45C250.879 339.241 244.433 337.987 238.347 335.755C235.63 334.76 232.913 333.514 230.949 331.391C230.163 330.546 229.486 329.418 229.753 328.289C228.817 329.092 228.499 329.919 228.6 331.19C228.976 336.256 234.276 337.778 238.381 339.048C241.165 339.909 244.024 340.511 246.891 341.005C247.585 341.122 254.875 342.585 254.967 342.392C255.527 341.247 256.355 340.227 257.366 339.458L257.358 339.45Z" fill="#FF9797"/>
</g>
<g style="mix-blend-mode:multiply">
<path d="M209.33 371.668C209.723 372.044 210.299 372.103 210.809 372.027C211.336 371.969 211.838 371.802 212.348 371.651C212.849 371.484 213.401 371.367 213.919 371.267L215.491 370.949C217.589 370.556 219.688 370.171 221.761 369.687C223.834 369.202 225.899 368.708 227.931 368.081C229.945 367.429 232.002 366.744 234.058 366.184C238.205 365.089 242.402 364.211 246.632 363.559C248.747 363.224 250.87 362.999 252.96 362.606C255.042 362.229 257.124 361.653 258.938 360.516C257.224 361.82 255.117 362.497 253.044 363.007C250.946 363.492 248.831 363.784 246.741 364.194C242.552 364.972 238.381 365.841 234.276 366.995C232.211 367.538 230.205 368.173 228.148 368.817C226.083 369.419 224.001 369.937 221.895 370.322C219.788 370.732 217.673 371.049 215.558 371.359L213.969 371.584C213.434 371.651 212.924 371.726 212.406 371.869C211.888 371.994 211.361 372.128 210.818 372.161C210.283 372.203 209.689 372.086 209.33 371.676V371.668Z" fill="#E2BFA8"/>
</g>
<g style="mix-blend-mode:multiply">
<path d="M228.365 373.315C231.25 372.939 234.033 372.203 236.826 371.434C238.222 371.041 239.626 370.674 241.047 370.348C242.477 370.03 243.907 369.796 245.328 369.528C248.179 369.027 251.029 368.525 253.897 368.09L258.194 367.438C259.623 367.229 261.07 367.029 262.307 366.234C261.178 367.196 259.665 367.505 258.277 367.84L254.022 368.726C251.18 369.311 248.329 369.838 245.478 370.356C244.049 370.607 242.619 370.841 241.215 371.125C239.802 371.401 238.397 371.752 236.985 372.061C235.572 372.371 234.15 372.688 232.713 372.922C231.275 373.14 229.82 373.315 228.374 373.315H228.365Z" fill="#E2BFA8"/>
</g>
<g style="mix-blend-mode:multiply">
<path d="M255.611 358.652C256.246 358.309 256.748 358.067 257.249 357.758C257.759 357.465 258.211 357.139 258.812 356.746C258.779 357.49 258.277 358.109 257.676 358.477C257.057 358.836 256.271 358.978 255.611 358.652Z" fill="#E2BFA8"/>
</g>
<g style="mix-blend-mode:multiply">
<path d="M260.727 364.721C261.17 364.328 261.546 364.119 261.931 363.893C262.332 363.684 262.708 363.484 263.277 363.316C263.21 363.918 262.8 364.353 262.332 364.621C261.856 364.871 261.262 364.98 260.727 364.721Z" fill="#E2BFA8"/>
</g>
<g style="mix-blend-mode:multiply">
<path d="M258.629 332.383C259.239 332.108 259.874 331.924 260.543 331.823C261.203 331.715 261.906 331.723 262.591 331.874C263.277 332.032 263.937 332.4 264.422 332.86C264.932 333.311 265.333 333.796 265.785 334.29C265.141 334.089 264.573 333.704 264.037 333.387C263.494 333.061 262.976 332.818 262.399 332.693C261.245 332.409 259.966 332.509 258.629 332.392V332.383Z" fill="#E2BFA8"/>
</g>
<path d="M375.384 353.133C381.328 351.854 387.206 350.332 392.882 348.175C394.755 348.752 396.861 348.518 398.55 347.54C397.781 347.54 398.048 319.985 398.115 317.477C398.366 307.496 399.336 297.556 398.951 287.582C399.001 288.794 390.733 292.431 389.279 293.225C386.796 294.571 383.193 295.424 381.713 298.049C381.195 298.968 380.919 300.139 379.999 300.649C379.238 301.067 378.31 300.874 377.449 301.008C375.828 301.251 374.64 302.588 373.386 303.642C371.204 305.464 368.529 306.559 365.946 307.746C360.161 310.396 354.643 313.598 349.201 316.892C347.688 317.803 346.133 318.748 344.394 319.032C343.575 319.166 342.689 319.166 341.995 319.609C341.184 320.128 340.824 321.122 340.206 321.866C338.667 323.714 336.076 323.689 333.944 324.282C331.637 324.926 330.7 326.54 328.677 327.493C328.067 327.785 327.406 328.078 326.738 327.961C326.127 327.861 325.634 327.434 325.066 327.192C322.332 326.038 319.364 329.14 316.864 329.85C315.301 330.293 314.54 330.076 313.47 331.639C313.102 332.183 312.601 336.162 312.96 335.92C315.41 334.222 318.16 337.291 319.105 339.222C321.513 344.162 322.867 349.58 323.377 355.056C323.502 356.435 323.561 357.898 322.875 359.102C322.19 360.306 320.493 361.016 319.372 360.214C319.824 362.22 321.504 363.683 323.469 364.402C324.213 364.67 324.999 364.837 325.768 364.879C328.594 365.046 331.344 363.992 333.977 362.964C334.705 362.68 335.474 362.362 335.925 361.719C336.368 361.075 336.276 360.005 335.557 359.712C337.112 360.356 340.782 359.302 342.379 358.976C344.962 358.45 347.529 357.539 349.452 355.649C349.861 356.903 351.542 357.221 352.821 356.878C354.1 356.535 355.262 355.775 356.583 355.674C357.327 355.616 358.071 355.766 358.815 355.841C360.696 356.025 362.594 355.674 364.45 355.323C368.103 354.638 371.765 353.944 375.401 353.166L375.384 353.133Z" fill="#1C76BC"/>
<path d="M336.076 356.319C335.875 353.953 335.382 351.52 335.298 350.007C335.164 347.516 335.039 345.016 334.579 342.567C333.543 336.982 330.541 329.517 325.049 327.184C322.315 326.031 319.347 329.132 316.848 329.843C315.284 330.286 314.524 330.068 313.454 331.632C313.086 332.175 312.584 336.154 312.944 335.912C315.393 334.215 318.144 337.283 319.088 339.214C321.496 344.155 322.85 349.572 323.36 355.048C323.486 356.428 323.544 357.89 322.859 359.094C322.173 360.298 320.476 361.009 319.356 360.206C319.807 362.213 321.488 363.676 323.452 364.395C324.196 364.662 324.982 364.829 325.751 364.871C328.577 365.038 331.327 363.985 333.961 362.957C336.092 362.179 336.318 359.312 336.067 356.336L336.076 356.319Z" fill="#64A4EB"/>
<g style="mix-blend-mode:multiply" opacity="0.4">
<path d="M328.318 364.728C328.694 363.207 328.903 361.66 328.945 360.105C329.011 358.55 328.953 356.995 328.802 355.448C328.535 352.355 328.008 349.279 327.189 346.286C326.395 343.285 325.308 340.367 323.987 337.55C323.327 336.145 322.624 334.741 321.78 333.453C320.961 332.141 319.933 330.954 318.637 330.051C320.033 330.786 321.161 331.957 322.114 333.219C323.051 334.498 323.82 335.878 324.564 337.265C326.035 340.058 327.172 343.026 327.992 346.069C328.802 349.12 329.312 352.255 329.438 355.407C329.58 358.542 329.413 361.777 328.309 364.728H328.318Z" fill="#1C76BC"/>
<path d="M323.452 331.454C325.082 333.343 326.487 335.433 327.699 337.632C328.92 339.822 329.898 342.154 330.675 344.537C331.436 346.928 332.004 349.386 332.305 351.877L332.489 353.75L332.598 355.622V357.495C332.565 358.122 332.523 358.741 332.481 359.368C332.431 358.741 332.397 358.122 332.364 357.503L332.188 355.648L331.971 353.8L331.678 351.969C331.235 349.536 330.658 347.129 329.889 344.788C329.137 342.439 328.201 340.148 327.139 337.916C326.06 335.684 324.815 333.544 323.46 331.445L323.452 331.454Z" fill="#1C76BC"/>
<path d="M331.737 342.062C332.33 342.781 332.631 343.643 332.807 344.512C332.966 345.39 332.999 346.293 332.715 347.179C332.339 346.326 332.163 345.507 331.988 344.662C331.837 343.818 331.703 342.99 331.737 342.062Z" fill="#1C76BC"/>
</g>
<g style="mix-blend-mode:multiply" opacity="0.22">
<path d="M375.384 353.132C381.328 351.853 387.205 350.331 392.882 348.174C394.754 348.751 396.861 348.517 398.55 347.539C397.781 347.539 398.048 319.984 398.115 317.476C398.324 309.166 399.453 300.706 398.959 292.43C394.445 298.206 393.977 306.073 393.693 313.405C391.887 309.1 388.844 305.321 385.015 302.637C385.366 305.705 385.726 308.765 386.077 311.833C384.555 308.548 382.206 305.647 379.305 303.482C382.281 309.752 383.05 317.05 381.454 323.805C377.675 319.976 373.712 316.03 368.638 314.224C372.517 323.194 376.479 333.026 373.946 342.464C370.979 335.793 365.628 330.217 359.099 326.965C359.316 329.423 359.96 331.847 360.972 334.088C358.129 329.138 353.916 324.975 348.933 322.191C353.414 328.261 355.747 335.885 355.429 343.426C352.904 338.527 348.875 334.414 344.026 331.797C345.38 333.996 346.467 336.353 347.261 338.811C344.987 336.721 342.713 334.623 340.439 332.533C343.399 337.674 344.461 343.894 343.374 349.729C341.359 340.725 336.443 331.755 328.125 327.776C332.564 333.193 334.462 340.608 333.183 347.489C332.247 342.021 329.572 336.855 325.642 332.942C329.12 338.711 330.959 345.449 330.909 352.179C330.876 356.551 329.446 361.676 325.325 363.13C328.368 356.885 326.286 349.453 323.928 342.916C323.017 340.391 322.047 337.841 320.401 335.718C318.754 333.603 316.296 331.947 313.621 331.897C313.403 332.391 312.843 335.977 312.952 335.893C315.401 334.196 318.152 337.264 319.088 339.196C321.496 344.136 322.85 349.554 323.36 355.029C323.485 356.409 323.544 357.872 322.858 359.076C322.173 360.279 320.476 360.99 319.356 360.188C319.807 362.194 321.487 363.657 323.452 364.376C324.196 364.643 324.982 364.811 325.751 364.852C328.577 365.02 331.327 363.966 333.96 362.938C334.688 362.654 335.457 362.336 335.908 361.692C336.351 361.049 336.26 359.978 335.541 359.686C337.096 360.33 340.766 359.276 342.362 358.95C344.946 358.424 347.512 357.512 349.435 355.623C349.844 356.877 351.525 357.195 352.804 356.852C354.083 356.509 355.245 355.748 356.566 355.648C357.31 355.59 358.054 355.74 358.798 355.815C360.679 355.999 362.577 355.648 364.433 355.297C368.086 354.611 371.748 353.918 375.384 353.14V353.132Z" fill="#125066"/>
</g>
<g style="mix-blend-mode:multiply" opacity="0.4">
<path d="M343.533 319.057C344.486 318.639 345.589 319.007 346.467 319.492C347.353 320.01 348.114 320.662 348.891 321.289C350.438 322.577 351.843 324.023 353.105 325.586C354.359 327.158 355.504 328.822 356.432 330.602C356.892 331.497 357.343 332.391 357.72 333.319C358.096 334.247 358.439 335.192 358.706 336.145C358.255 335.25 357.837 334.356 357.343 333.495C356.892 332.617 356.382 331.764 355.864 330.928C354.819 329.256 353.682 327.643 352.444 326.121C351.224 324.583 349.861 323.154 348.448 321.774C347.738 321.097 347.019 320.395 346.233 319.843C345.464 319.274 344.519 318.84 343.516 319.066L343.533 319.057Z" fill="#1C76BC"/>
<path d="M359.651 329.098C361.089 330.118 362.368 331.38 363.455 332.793C364.567 334.189 365.436 335.769 366.138 337.416C366.799 339.08 367.284 340.819 367.476 342.591C367.576 343.469 367.643 344.338 367.802 345.191C367.927 346.052 368.178 346.88 368.588 347.666C368.011 346.989 367.668 346.136 367.401 345.283C367.158 344.422 367.016 343.544 366.84 342.692C366.506 340.986 366.021 339.331 365.361 337.734C364.709 336.137 363.889 334.607 362.936 333.161C362.468 332.434 361.942 331.74 361.39 331.063C360.855 330.369 360.244 329.742 359.651 329.09V329.098Z" fill="#1C76BC"/>
<path d="M334.429 324.477C335.006 324.761 335.574 325.045 336.143 325.346L337.798 326.341L339.369 327.461L340.874 328.682C342.831 330.37 344.536 332.343 345.991 334.483C347.429 336.632 348.616 338.956 349.443 341.406L350.012 343.253L350.463 345.134L350.756 347.04C350.814 347.684 350.873 348.319 350.915 348.955C350.781 348.328 350.655 347.701 350.538 347.074L350.062 345.226L349.502 343.404L348.841 341.623C347.888 339.282 346.71 337.033 345.297 334.943C343.892 332.845 342.254 330.914 340.44 329.15C338.617 327.394 336.594 325.839 334.429 324.477Z" fill="#1C76BC"/>
<path d="M349.034 356.034C349.025 353.543 348.691 351.127 347.947 348.828C347.211 346.52 346.083 344.364 344.645 342.332C346.576 343.92 347.964 346.169 348.741 348.577C349.502 350.985 349.686 353.618 349.034 356.042V356.034Z" fill="#1C76BC"/>
<path d="M357.218 355.449C357.026 352.966 356.666 350.558 355.989 348.226C355.329 345.885 354.367 343.653 353.222 341.438C354.919 343.277 356.089 345.576 356.792 347.992C357.469 350.408 357.686 352.991 357.218 355.441V355.449Z" fill="#1C76BC"/>
<path d="M359.342 341.07C359.776 341.714 359.952 342.391 360.069 343.085C360.161 343.779 360.194 344.481 359.977 345.225C359.542 344.582 359.367 343.904 359.25 343.21C359.158 342.517 359.124 341.814 359.342 341.07Z" fill="#1C76BC"/>
<path d="M367.902 313.383C369.173 313.876 370.343 314.654 371.338 315.623C372.341 316.576 373.169 317.705 373.854 318.909C375.192 321.342 375.894 324.05 376.087 326.759C375.251 324.176 374.415 321.626 373.127 319.318C371.848 317.011 370.134 314.954 367.91 313.383H367.902Z" fill="#1C76BC"/>
<path d="M337.748 335.91C338.692 337.39 339.461 338.987 340.105 340.625C340.757 342.264 341.234 343.969 341.602 345.7C341.944 347.43 342.17 349.194 342.22 350.958C342.237 351.844 342.229 352.722 342.195 353.6C342.12 354.478 342.053 355.356 341.902 356.225C341.877 355.782 341.861 355.347 341.861 354.912L341.785 353.608C341.735 352.739 341.668 351.869 341.576 351.008C341.384 349.286 341.142 347.572 340.782 345.875C340.448 344.178 339.996 342.506 339.503 340.843C338.993 339.179 338.391 337.549 337.748 335.91Z" fill="#1C76BC"/>
</g>
</g>
</g>
<defs>
<filter id="filter0_i_19183_37661" x="104.469" y="264.454" width="15.0591" height="77.0947" filterUnits="userSpaceOnUse" color-interpolation-filters="sRGB">
<feFlood flood-opacity="0" result="BackgroundImageFix"/>
<feBlend mode="normal" in="SourceGraphic" in2="BackgroundImageFix" result="shape"/>
<feColorMatrix in="SourceAlpha" type="matrix" values="0 0 0 0 0 0 0 0 0 0 0 0 0 0 0 0 0 0 127 0" result="hardAlpha"/>
<feOffset dy="4"/>
<feGaussianBlur stdDeviation="3.5"/>
<feComposite in2="hardAlpha" operator="arithmetic" k2="-1" k3="1"/>
<feColorMatrix type="matrix" values="0 0 0 0 0 0 0 0 0 0 0 0 0 0 0 0 0 0 1 0"/>
<feBlend mode="normal" in2="shape" result="effect1_innerShadow_19183_37661"/>
</filter>
<filter id="filter1_i_19183_37661" x="123.469" y="265.454" width="15.0591" height="77.0947" filterUnits="userSpaceOnUse" color-interpolation-filters="sRGB">
<feFlood flood-opacity="0" result="BackgroundImageFix"/>
<feBlend mode="normal" in="SourceGraphic" in2="BackgroundImageFix" result="shape"/>
<feColorMatrix in="SourceAlpha" type="matrix" values="0 0 0 0 0 0 0 0 0 0 0 0 0 0 0 0 0 0 127 0" result="hardAlpha"/>
<feOffset dy="4"/>
<feGaussianBlur stdDeviation="3.5"/>
<feComposite in2="hardAlpha" operator="arithmetic" k2="-1" k3="1"/>
<feColorMatrix type="matrix" values="0 0 0 0 0 0 0 0 0 0 0 0 0 0 0 0 0 0 1 0"/>
<feBlend mode="normal" in2="shape" result="effect1_innerShadow_19183_37661"/>
</filter>
<filter id="filter2_i_19183_37661" x="143.468" y="267.454" width="15.0599" height="76.0947" filterUnits="userSpaceOnUse" color-interpolation-filters="sRGB">
<feFlood flood-opacity="0" result="BackgroundImageFix"/>
<feBlend mode="normal" in="SourceGraphic" in2="BackgroundImageFix" result="shape"/>
<feColorMatrix in="SourceAlpha" type="matrix" values="0 0 0 0 0 0 0 0 0 0 0 0 0 0 0 0 0 0 127 0" result="hardAlpha"/>
<feOffset dy="4"/>
<feGaussianBlur stdDeviation="3.5"/>
<feComposite in2="hardAlpha" operator="arithmetic" k2="-1" k3="1"/>
<feColorMatrix type="matrix" values="0 0 0 0 0 0 0 0 0 0 0 0 0 0 0 0 0 0 1 0"/>
<feBlend mode="normal" in2="shape" result="effect1_innerShadow_19183_37661"/>
</filter>
<filter id="filter3_i_19183_37661" x="162.473" y="269.476" width="14.0507" height="76.0747" filterUnits="userSpaceOnUse" color-interpolation-filters="sRGB">
<feFlood flood-opacity="0" result="BackgroundImageFix"/>
<feBlend mode="normal" in="SourceGraphic" in2="BackgroundImageFix" result="shape"/>
<feColorMatrix in="SourceAlpha" type="matrix" values="0 0 0 0 0 0 0 0 0 0 0 0 0 0 0 0 0 0 127 0" result="hardAlpha"/>
<feOffset dy="4"/>
<feGaussianBlur stdDeviation="3.5"/>
<feComposite in2="hardAlpha" operator="arithmetic" k2="-1" k3="1"/>
<feColorMatrix type="matrix" values="0 0 0 0 0 0 0 0 0 0 0 0 0 0 0 0 0 0 1 0"/>
<feBlend mode="normal" in2="shape" result="effect1_innerShadow_19183_37661"/>
</filter>
<filter id="filter4_i_19183_37661" x="180.473" y="269.451" width="14.051" height="77.0742" filterUnits="userSpaceOnUse" color-interpolation-filters="sRGB">
<feFlood flood-opacity="0" result="BackgroundImageFix"/>
<feBlend mode="normal" in="SourceGraphic" in2="BackgroundImageFix" result="shape"/>
<feColorMatrix in="SourceAlpha" type="matrix" values="0 0 0 0 0 0 0 0 0 0 0 0 0 0 0 0 0 0 127 0" result="hardAlpha"/>
<feOffset dy="4"/>
<feGaussianBlur stdDeviation="3.5"/>
<feComposite in2="hardAlpha" operator="arithmetic" k2="-1" k3="1"/>
<feColorMatrix type="matrix" values="0 0 0 0 0 0 0 0 0 0 0 0 0 0 0 0 0 0 1 0"/>
<feBlend mode="normal" in2="shape" result="effect1_innerShadow_19183_37661"/>
</filter>
<filter id="filter5_i_19183_37661" x="199.473" y="271.451" width="14.051" height="77.0742" filterUnits="userSpaceOnUse" color-interpolation-filters="sRGB">
<feFlood flood-opacity="0" result="BackgroundImageFix"/>
<feBlend mode="normal" in="SourceGraphic" in2="BackgroundImageFix" result="shape"/>
<feColorMatrix in="SourceAlpha" type="matrix" values="0 0 0 0 0 0 0 0 0 0 0 0 0 0 0 0 0 0 127 0" result="hardAlpha"/>
<feOffset dy="4"/>
<feGaussianBlur stdDeviation="3.5"/>
<feComposite in2="hardAlpha" operator="arithmetic" k2="-1" k3="1"/>
<feColorMatrix type="matrix" values="0 0 0 0 0 0 0 0 0 0 0 0 0 0 0 0 0 0 1 0"/>
<feBlend mode="normal" in2="shape" result="effect1_innerShadow_19183_37661"/>
</filter>
<filter id="filter6_i_19183_37661" x="219.473" y="272.451" width="14.0503" height="78.0742" filterUnits="userSpaceOnUse" color-interpolation-filters="sRGB">
<feFlood flood-opacity="0" result="BackgroundImageFix"/>
<feBlend mode="normal" in="SourceGraphic" in2="BackgroundImageFix" result="shape"/>
<feColorMatrix in="SourceAlpha" type="matrix" values="0 0 0 0 0 0 0 0 0 0 0 0 0 0 0 0 0 0 127 0" result="hardAlpha"/>
<feOffset dy="4"/>
<feGaussianBlur stdDeviation="3.5"/>
<feComposite in2="hardAlpha" operator="arithmetic" k2="-1" k3="1"/>
<feColorMatrix type="matrix" values="0 0 0 0 0 0 0 0 0 0 0 0 0 0 0 0 0 0 1 0"/>
<feBlend mode="normal" in2="shape" result="effect1_innerShadow_19183_37661"/>
</filter>
<linearGradient id="paint0_linear_19183_37661" x1="186.824" y1="34.1758" x2="186.824" y2="383.824" gradientUnits="userSpaceOnUse">
<stop stop-color="#DEF6FF"/>
<stop offset="1" stop-color="#DEF6FF" stop-opacity="0"/>
</linearGradient>
<clipPath id="clip0_19183_37661">
<rect width="375" height="418" fill="white"/>
</clipPath>
</defs>
</svg>
