<svg width="33" height="32" viewBox="0 0 33 32" fill="none" xmlns="http://www.w3.org/2000/svg">
<rect x="0.25" width="32" height="32" rx="16" fill="#F3F5F6"/>
<path d="M12.917 22.8405L13.1566 22.2632L12.9077 22.1599L12.6616 22.27L12.917 22.8405ZM9.58366 24.3327L8.98013 24.1703C8.91743 24.4033 8.99444 24.6515 9.17798 24.8081C9.36152 24.9647 9.61881 25.0017 9.83903 24.9031L9.58366 24.3327ZM10.417 21.236L11.0205 21.3984L11.1183 21.0351L10.843 20.7786L10.417 21.236ZM16.2503 7.04102C11.3339 7.04102 7.29199 10.8358 7.29199 15.5827H8.54199C8.54199 11.5858 11.963 8.29102 16.2503 8.29102V7.04102ZM23.9587 15.5827C23.9587 19.5796 20.5376 22.8743 16.2503 22.8743V24.1243C21.1668 24.1243 25.2087 20.3296 25.2087 15.5827H23.9587ZM12.6774 23.4177C13.7733 23.8727 14.9821 24.1243 16.2503 24.1243V22.8743C15.1483 22.8743 14.1023 22.6558 13.1566 22.2632L12.6774 23.4177ZM12.6616 22.27L9.32829 23.7622L9.83903 24.9031L13.1724 23.4109L12.6616 22.27ZM7.29199 15.5827C7.29199 17.9828 8.33061 20.1469 9.99103 21.6934L10.843 20.7786C9.41788 19.4514 8.54199 17.6113 8.54199 15.5827H7.29199ZM10.1872 24.4951L11.0205 21.3984L9.81346 21.0736L8.98013 24.1703L10.1872 24.4951ZM16.2503 8.29102C16.7812 8.29102 17.299 8.34173 17.7986 8.43811L18.0354 7.21073C17.458 7.09936 16.861 7.04102 16.2503 7.04102V8.29102Z" fill="#364152"/>
<path d="M25.4173 10.5827C25.4173 12.1935 24.1115 13.4993 22.5007 13.4993C20.8898 13.4993 19.584 12.1935 19.584 10.5827C19.584 8.97185 20.8898 7.66602 22.5007 7.66602C24.1115 7.66602 25.4173 8.97185 25.4173 10.5827Z" fill="#F04438"/>
<path d="M16.2466 16H16.2541M19.5762 16H19.5837M12.917 16H12.9245" stroke="#364152" stroke-width="1.66667" stroke-linecap="square" stroke-linejoin="round"/>
</svg>
