<svg width="17" height="17" viewBox="0 0 17 17" fill="none" xmlns="http://www.w3.org/2000/svg">
<g clip-path="url(#clip0_22802_17259)">
<path d="M8.61654 14.3424H4.61654C4.26291 14.3424 3.92378 14.202 3.67373 13.9519C3.42368 13.7019 3.2832 13.3627 3.2832 13.0091V5.00911C3.2832 4.65549 3.42368 4.31635 3.67373 4.06631C3.92378 3.81626 4.26291 3.67578 4.61654 3.67578H12.6165C12.9702 3.67578 13.3093 3.81626 13.5593 4.06631C13.8094 4.31635 13.9499 4.65549 13.9499 5.00911V8.34245" stroke="#697586" stroke-width="1.33333" stroke-linecap="round" stroke-linejoin="round"/>
<path d="M11.2842 2.34375V5.01042" stroke="#697586" stroke-width="1.33333" stroke-linecap="round" stroke-linejoin="round"/>
<path d="M5.9502 2.34375V5.01042" stroke="#697586" stroke-width="1.33333" stroke-linecap="round" stroke-linejoin="round"/>
<path d="M3.2832 7.67578H13.9499" stroke="#697586" stroke-width="1.33333" stroke-linecap="round" stroke-linejoin="round"/>
<path d="M11.9512 13.0091C11.9512 13.3627 12.0916 13.7019 12.3417 13.9519C12.5917 14.202 12.9309 14.3424 13.2845 14.3424C13.6381 14.3424 13.9773 14.202 14.2273 13.9519C14.4774 13.7019 14.6178 13.3627 14.6178 13.0091C14.6178 12.6555 14.4774 12.3164 14.2273 12.0663C13.9773 11.8163 13.6381 11.6758 13.2845 11.6758C12.9309 11.6758 12.5917 11.8163 12.3417 12.0663C12.0916 12.3164 11.9512 12.6555 11.9512 13.0091Z" stroke="#697586" stroke-width="1.33333" stroke-linecap="round" stroke-linejoin="round"/>
<path d="M13.2852 10.6758V11.6758" stroke="#697586" stroke-width="1.33333" stroke-linecap="round" stroke-linejoin="round"/>
<path d="M13.2842 14.3438V15.3438" stroke="#697586" stroke-width="1.33333" stroke-linecap="round" stroke-linejoin="round"/>
<path d="M15.3055 11.8438L14.4395 12.3438" stroke="#697586" stroke-width="1.33333" stroke-linecap="round" stroke-linejoin="round"/>
<path d="M12.1303 13.6758L11.2637 14.1758" stroke="#697586" stroke-width="1.33333" stroke-linecap="round" stroke-linejoin="round"/>
<path d="M11.2637 11.8438L12.1303 12.3438" stroke="#697586" stroke-width="1.33333" stroke-linecap="round" stroke-linejoin="round"/>
<path d="M14.4395 13.6758L15.3061 14.1758" stroke="#697586" stroke-width="1.33333" stroke-linecap="round" stroke-linejoin="round"/>
</g>
<defs>
<clipPath id="clip0_22802_17259">
<rect width="16" height="16" fill="white" transform="translate(0.617188 0.34375)"/>
</clipPath>
</defs>
</svg>
