<svg width="37" height="37" viewBox="0 0 37 37" fill="none" xmlns="http://www.w3.org/2000/svg">
<rect x="0.367188" y="0.34375" width="36" height="36" rx="18" fill="#E3AD7F"/>
<path opacity="0.24" d="M11.69 15.0454C11.8424 14.93 11.9686 14.8357 11.9926 14.8216C12.258 14.6648 12.6817 14.4836 13.3575 14.1977C13.7627 14.0263 13.935 13.5951 13.7423 13.2347C13.5495 12.8743 13.0648 12.7211 12.6595 12.8925L12.6045 12.9158L12.6045 12.9158C12.0005 13.1712 11.4682 13.3963 11.0937 13.6175C10.7222 13.8369 10.2422 14.2034 10.2422 14.8079V22.6852C10.2422 23.6232 10.9165 24.2517 11.7579 24.7645C12.6068 25.2819 14.0331 25.8939 15.6105 26.5707C16.7915 27.0778 17.5553 27.4057 18.3672 27.4057C19.1791 27.4057 19.9428 27.0778 21.1238 26.5707C22.7012 25.8939 24.1276 25.2819 24.9764 24.7645C25.8178 24.2517 26.4922 23.6232 26.4922 22.6852V14.8079C26.4922 14.2034 26.0122 13.8369 25.6406 13.6175C25.2662 13.3964 24.7339 13.1713 24.1299 12.9158L24.0748 12.8925C23.6696 12.7211 23.1849 12.8743 22.9921 13.2347C22.7994 13.5951 22.9716 14.0263 23.3769 14.1977C24.0527 14.4836 24.4764 14.6648 24.7418 14.8216C24.7657 14.8357 24.8919 14.93 25.0444 15.0454C24.7567 15.2364 24.2817 15.4688 23.5948 15.7955L21.1605 16.9533C19.605 17.6932 19.0013 17.9647 18.3672 17.9647C17.7331 17.9647 17.1294 17.6932 15.5739 16.9533L13.1396 15.7955C12.4527 15.4688 11.9776 15.2364 11.69 15.0454Z" fill="#141B34"/>
<path fill-rule="evenodd" clip-rule="evenodd" d="M13.0793 19.2727C13.2276 18.961 13.6004 18.8285 13.9122 18.9768L15.5737 19.767C15.8854 19.9153 16.0179 20.2882 15.8697 20.5999C15.7214 20.9116 15.3485 21.0441 15.0368 20.8959L13.3752 20.1056C13.0635 19.9573 12.931 19.5844 13.0793 19.2727Z" fill="white"/>
<path fill-rule="evenodd" clip-rule="evenodd" d="M18.3669 9.28125C18.8271 9.28125 19.2002 9.65435 19.2002 10.1146V11.7812C19.2002 12.2415 18.8271 12.6146 18.3669 12.6146C17.9067 12.6146 17.5336 12.2415 17.5336 11.7812V10.1146C17.5336 9.65435 17.9067 9.28125 18.3669 9.28125ZM14.5336 10.2813C14.9018 10.0051 15.4241 10.0797 15.7002 10.4479L16.9502 12.1146C17.2264 12.4828 17.1518 13.0051 16.7836 13.2813C16.4154 13.5574 15.8931 13.4828 15.6169 13.1146L14.3669 11.4479C14.0908 11.0797 14.1654 10.5574 14.5336 10.2813ZM22.2002 10.2813C22.5684 10.5574 22.6431 11.0797 22.3669 11.4479L21.1169 13.1146C20.8408 13.4828 20.3184 13.5574 19.9502 13.2813C19.5821 13.0051 19.5074 12.4828 19.7836 12.1146L21.0336 10.4479C21.3097 10.0797 21.8321 10.0051 22.2002 10.2813Z" fill="white"/>
</svg>
