<?xml version="1.0" encoding="UTF-8"?>
<!DOCTYPE svg PUBLIC "-//W3C//DTD SVG 1.1//EN" "http://www.w3.org/Graphics/SVG/1.1/DTD/svg11.dtd">
<svg xmlns="http://www.w3.org/2000/svg" version="1.1" width="145px" height="145px" style="shape-rendering:geometricPrecision; text-rendering:geometricPrecision; image-rendering:optimizeQuality; fill-rule:evenodd; clip-rule:evenodd" xmlns:xlink="http://www.w3.org/1999/xlink">
<g><path style="opacity:0.99" fill="#7fe2cb" d="M 144.5,50.5 C 144.5,65.5 144.5,80.5 144.5,95.5C 134.638,121.363 116.305,137.696 89.5,144.5C 80.1667,144.5 70.8333,144.5 61.5,144.5C 21.1182,133.263 1.61818,106.597 3,64.5C 9.37904,29.1209 30.2124,7.9542 65.5,1C 103.767,-1.21486 130.101,15.2851 144.5,50.5 Z"/></g>
<g><path style="opacity:1" fill="#fcfefd" d="M 71.5,37.5 C 73.5273,37.3379 75.5273,37.5045 77.5,38C 79.4097,39.7006 81.4097,41.2006 83.5,42.5C 86.1316,41.5601 88.7983,41.3934 91.5,42C 92.3567,42.6891 93.0233,43.5224 93.5,44.5C 91.3596,47.8073 89.0263,50.974 86.5,54C 78.8333,54.6667 71.1667,54.6667 63.5,54C 61.4514,51.4066 59.2848,48.9066 57,46.5C 56.4121,43.412 57.7455,41.7453 61,41.5C 65.8677,43.5801 69.3677,42.2467 71.5,37.5 Z"/></g>
<g><path style="opacity:1" fill="#5da39b" d="M 61.5,57.5 C 70.5062,57.3336 79.5062,57.5002 88.5,58C 100.447,68.0596 106.28,80.893 106,96.5C 103.227,102.94 98.3937,106.774 91.5,108C 79.8333,108.667 68.1667,108.667 56.5,108C 43.7409,102.067 40.2409,92.5666 46,79.5C 49.4803,70.8342 54.647,63.5009 61.5,57.5 Z"/></g>
</svg>
