<svg width="37" height="37" viewBox="0 0 37 37" fill="none" xmlns="http://www.w3.org/2000/svg">
<rect x="0.867188" y="0.34375" width="36" height="36" rx="18" fill="#E07FE3"/>
<g clip-path="url(#clip0_23940_10972)">
<path opacity="0.24" d="M26.1789 23.3418C26.8033 23.3418 27.3 22.9489 27.7459 22.3994C28.6588 21.2747 27.16 20.3758 26.5883 19.9356C26.0072 19.4881 25.3584 19.2346 24.7005 19.1751M23.8672 17.5085C25.0178 17.5085 25.9505 16.5757 25.9505 15.4251C25.9505 14.2745 25.0178 13.3418 23.8672 13.3418" stroke="#141B34" stroke-width="1.25" stroke-linecap="round"/>
<path opacity="0.24" d="M11.5552 23.3418C10.9307 23.3418 10.4341 22.9489 9.98815 22.3994C9.07527 21.2747 10.5741 20.3758 11.1457 19.9356C11.7268 19.4881 12.3757 19.2346 13.0335 19.1751M13.4502 17.5085C12.2996 17.5085 11.3669 16.5757 11.3669 15.4251C11.3669 14.2745 12.2996 13.3418 13.4502 13.3418" stroke="#141B34" stroke-width="1.25" stroke-linecap="round"/>
<path d="M15.6034 20.9358C14.7519 21.4623 12.5193 22.5373 13.8791 23.8826C14.5433 24.5398 15.2831 25.0098 16.2132 25.0098H21.5205C22.4506 25.0098 23.1904 24.5398 23.8546 23.8826C25.2144 22.5373 22.9818 21.4623 22.1304 20.9358C20.1336 19.7011 17.6001 19.7011 15.6034 20.9358Z" stroke="white" stroke-width="1.25" stroke-linecap="round" stroke-linejoin="round"/>
<path d="M21.7835 14.5924C21.7835 16.2033 20.4777 17.5091 18.8669 17.5091C17.256 17.5091 15.9502 16.2033 15.9502 14.5924C15.9502 12.9816 17.256 11.6758 18.8669 11.6758C20.4777 11.6758 21.7835 12.9816 21.7835 14.5924Z" stroke="white" stroke-width="1.25"/>
</g>
<defs>
<clipPath id="clip0_23940_10972">
<rect width="20" height="20" fill="white" transform="translate(8.86719 8.34375)"/>
</clipPath>
</defs>
</svg>
