<svg width="37" height="37" viewBox="0 0 37 37" fill="none" xmlns="http://www.w3.org/2000/svg">
<rect x="0.367188" y="0.34375" width="36" height="36" rx="18" fill="#9597E9"/>
<path opacity="0.24" fill-rule="evenodd" clip-rule="evenodd" d="M22.6999 14.5951C22.6999 13.4445 23.6326 12.5117 24.7832 12.5117C25.9338 12.5117 26.8665 13.4445 26.8665 14.5951C26.8665 15.6373 26.1012 16.5008 25.1019 16.6542C25.0996 16.6583 25.0974 16.6624 25.0951 16.6666L23.1839 20.1067C23.4046 20.4372 23.5332 20.8345 23.5332 21.2617C23.5332 22.4123 22.6005 23.3451 21.4499 23.3451C20.2993 23.3451 19.3665 22.4123 19.3665 21.2617C19.3665 21.0758 19.3909 20.8955 19.4366 20.7239L17.2236 19.03C16.9844 19.1257 16.7233 19.1784 16.4499 19.1784C16.3276 19.1784 16.2079 19.1679 16.0914 19.1477L12.5676 24.6292C12.3187 25.0163 11.8031 25.1284 11.416 24.8795C11.0289 24.6306 10.9168 24.115 11.1657 23.7279L14.7013 18.2281C14.4895 17.9019 14.3665 17.5129 14.3665 17.0951C14.3665 15.9445 15.2993 15.0117 16.4499 15.0117C17.6005 15.0117 18.5332 15.9445 18.5332 17.0951C18.5332 17.3542 18.4859 17.6023 18.3994 17.8312L20.4752 19.42C20.766 19.2657 21.0977 19.1784 21.4499 19.1784C21.5618 19.1784 21.6716 19.1872 21.7787 19.2042L23.45 16.196C22.9916 15.8138 22.6999 15.2385 22.6999 14.5951ZM24.7832 13.9701C24.438 13.9701 24.1582 14.2499 24.1582 14.5951C24.1582 14.9402 24.438 15.2201 24.7832 15.2201C25.1284 15.2201 25.4082 14.9402 25.4082 14.5951C25.4082 14.2499 25.1284 13.9701 24.7832 13.9701ZM16.4499 16.4701C16.1047 16.4701 15.8249 16.7499 15.8249 17.0951C15.8249 17.4402 16.1047 17.7201 16.4499 17.7201C16.795 17.7201 17.0749 17.4402 17.0749 17.0951C17.0749 16.7499 16.795 16.4701 16.4499 16.4701ZM20.8249 21.2617C20.8249 20.9165 21.1047 20.6367 21.4499 20.6367C21.795 20.6367 22.0749 20.9165 22.0749 21.2617C22.0749 21.6069 21.795 21.8867 21.4499 21.8867C21.1047 21.8867 20.8249 21.6069 20.8249 21.2617Z" fill="#141B34"/>
<path fill-rule="evenodd" clip-rule="evenodd" d="M11.0335 10.0117C11.4938 10.0117 11.8669 10.3848 11.8669 10.8451V20.0117C11.8669 21.4102 11.8686 22.3752 11.9662 23.1011C12.0606 23.8029 12.2306 24.155 12.4771 24.4015C12.7236 24.648 13.0757 24.818 13.7775 24.9124C14.5033 25.0099 15.4684 25.0117 16.8669 25.0117H26.0335C26.4938 25.0117 26.8669 25.3848 26.8669 25.8451C26.8669 26.3053 26.4938 26.6784 26.0335 26.6784H16.8069C15.483 26.6784 14.4053 26.6784 13.5554 26.5642C12.6688 26.445 11.9063 26.1878 11.2985 25.58C10.6908 24.9723 10.4336 24.2098 10.3144 23.3231C10.2001 22.4733 10.2002 21.3956 10.2002 20.0717L10.2002 10.8451C10.2002 10.3848 10.5733 10.0117 11.0335 10.0117Z" fill="white"/>
</svg>
