<svg width="18" height="18" viewBox="0 0 18 18" fill="none" xmlns="http://www.w3.org/2000/svg">
<path d="M10.0701 0.66748C11.008 0.66903 11.4832 0.673997 11.8939 0.686222L12.0556 0.691506C12.2425 0.698147 12.4268 0.70648 12.649 0.716897C13.5358 0.757872 14.1407 0.898147 14.672 1.1044C15.2212 1.31621 15.6851 1.60231 16.1483 2.06551C16.6108 2.52871 16.897 2.99398 17.1095 3.5419C17.315 4.07246 17.4553 4.67801 17.497 5.56481C17.5069 5.78704 17.5149 5.97137 17.5215 6.15824L17.5267 6.31998C17.5389 6.7306 17.5445 7.20592 17.5462 8.14379L17.5469 8.76512C17.547 8.84104 17.547 8.91937 17.547 9.00021L17.5469 9.23529L17.5464 9.8567C17.5448 10.7945 17.5399 11.2699 17.5276 11.6805L17.5223 11.8422C17.5157 12.0291 17.5074 12.2135 17.497 12.4356C17.456 13.3225 17.315 13.9273 17.1095 14.4585C16.8976 15.0079 16.6108 15.4718 16.1483 15.935C15.6851 16.3975 15.2191 16.6835 14.672 16.896C14.1407 17.1016 13.5358 17.2419 12.649 17.2835C12.4268 17.2935 12.2425 17.3015 12.0556 17.308L11.8939 17.3133C11.4832 17.3255 11.008 17.331 10.0701 17.3329L9.44871 17.3335C9.37279 17.3335 9.29446 17.3335 9.21363 17.3335H8.97854L8.35713 17.333C7.41929 17.3315 6.94398 17.3265 6.53335 17.3142L6.37162 17.309C6.18474 17.3023 6.00041 17.294 5.77819 17.2835C4.89138 17.2426 4.28722 17.1016 3.75528 16.896C3.20666 16.6843 2.74208 16.3975 2.27888 15.935C1.81569 15.4718 1.53028 15.0058 1.31778 14.4585C1.11153 13.9273 0.971943 13.3225 0.930276 12.4356C0.920376 12.2135 0.912301 12.0291 0.905759 11.8422L0.900518 11.6805C0.888326 11.2699 0.882768 10.7945 0.880968 9.8567L0.880859 8.14379C0.882409 7.20592 0.887368 6.7306 0.899593 6.31998L0.904884 6.15824C0.911526 5.97137 0.91986 5.78704 0.930276 5.56481C0.971243 4.67731 1.11153 4.07315 1.31778 3.5419C1.52958 2.99329 1.81569 2.52871 2.27888 2.06551C2.74208 1.60231 3.20736 1.3169 3.75528 1.1044C4.28653 0.898147 4.89069 0.758564 5.77819 0.716897C6.00041 0.707005 6.18474 0.698931 6.37162 0.692389L6.53335 0.687147C6.94398 0.674947 7.41929 0.669389 8.35713 0.667589L10.0701 0.66748ZM9.21363 4.83356C6.91119 4.83356 5.04694 6.69984 5.04694 9.00021C5.04694 11.3026 6.91322 13.1669 9.21363 13.1669C11.516 13.1669 13.3803 11.3006 13.3803 9.00021C13.3803 6.69781 11.514 4.83356 9.21363 4.83356ZM9.21363 6.50023C10.5944 6.50023 11.7136 7.61912 11.7136 9.00021C11.7136 10.381 10.5947 11.5002 9.21363 11.5002C7.83288 11.5002 6.71361 10.3814 6.71361 9.00021C6.71361 7.61945 7.83246 6.50023 9.21363 6.50023ZM13.5886 3.58356C13.0142 3.58356 12.547 4.05016 12.547 4.62452C12.547 5.1989 13.0135 5.66621 13.5886 5.66621C14.163 5.66621 14.6303 5.19962 14.6303 4.62452C14.6303 4.05016 14.1622 3.58285 13.5886 3.58356Z" fill="#202939"/>
</svg>
