<svg width="14" height="16" viewBox="0 0 14 16" fill="none" xmlns="http://www.w3.org/2000/svg">
<path d="M10.1023 5.28789V10.5273C10.1023 13.12 8.00053 15.2218 5.40782 15.2218C2.81515 15.2218 0.713379 13.12 0.713379 10.5273C0.713379 7.93464 2.81515 5.8329 5.40782 5.8329C5.78071 5.8329 6.14341 5.87637 6.49116 5.95852V8.24281C6.16283 8.08681 5.79551 7.99957 5.40782 7.99957C4.01177 7.99957 2.88005 9.13129 2.88005 10.5273C2.88005 11.9234 4.01177 13.0551 5.40782 13.0551C6.80388 13.0551 7.9356 11.9234 7.9356 10.5273V0.777344H10.1023C10.1023 2.7717 11.719 4.38845 13.7134 4.38845V6.55512C12.347 6.55512 11.0914 6.08082 10.1023 5.28789Z" fill="#202939"/>
</svg>
