<svg width="21" height="20" viewBox="0 0 21 20" fill="none" xmlns="http://www.w3.org/2000/svg">
<path d="M1.92139 10.833H6.48633C6.63549 13.5571 7.51145 16.0875 8.92362 18.2339C5.20329 17.6557 2.29704 14.6166 1.92139 10.833ZM1.92139 9.16636C2.29704 5.38284 5.20329 2.34374 8.92362 1.76562C7.51145 3.91191 6.63549 6.44237 6.48633 9.16636H1.92139ZM18.5058 9.16636H13.9408C13.7916 6.44237 12.9157 3.91191 11.5035 1.76562C15.2239 2.34374 18.1301 5.38284 18.5058 9.16636ZM18.5058 10.833C18.1301 14.6166 15.2239 17.6557 11.5035 18.2339C12.9157 16.0875 13.7916 13.5571 13.9408 10.833H18.5058ZM8.15585 10.833H12.2713C12.1283 13.1521 11.3925 15.3108 10.2135 17.1594C9.03462 15.3108 8.29886 13.1521 8.15585 10.833ZM8.15585 9.16636C8.29886 6.84735 9.03462 4.68871 10.2135 2.84012C11.3925 4.68871 12.1283 6.84735 12.2713 9.16636H8.15585Z" fill="#202939"/>
</svg>
