<svg width="296" height="278" viewBox="0 0 296 278" fill="none" xmlns="http://www.w3.org/2000/svg">
<rect x="124.528" y="-1.28578" width="94.6321" height="21.8119" rx="10.906" transform="rotate(20.3926 124.528 -1.28578)" fill="black" stroke="#354045" stroke-width="2"/>
<g filter="url(#filter0_d_18564_3190)">
<path d="M162.043 66.7484L162.038 66.7577L162.033 66.7671L159.378 71.8121C157.8 74.8097 156.681 78.0267 156.056 81.356C155.67 83.4166 155.476 85.5085 155.476 87.605V93.5V93.516L155.477 93.532L156.214 105.025L156.214 105.032L156.976 120.525L156.977 120.536L158.474 141.504C158.056 148.786 155.942 160.178 150.961 170.686C145.972 181.211 138.141 190.782 126.325 194.523C111.303 199.28 99.7824 205.198 93.3699 214.976C87.0465 224.617 85.7658 237.889 90.7472 257.193L15.8863 229.12C12.9417 218.836 11.0439 203.12 14.8084 189.079C16.7035 182.011 20.0289 175.383 25.3624 170.08C30.6927 164.779 38.0534 160.776 48.0632 158.992C60.7512 156.731 69.5319 152.577 75.4939 147.312C81.4611 142.043 84.5709 135.692 85.9647 129.103C88.3654 117.754 85.6731 105.654 83.7765 97.1306C83.4789 95.7932 83.2009 94.5438 82.9653 93.3992C81.2147 84.8967 77.6169 66.2517 82.1467 48.9391C84.4084 40.2952 88.6921 32.001 96.2327 25.4637C103.769 18.9305 114.595 14.1193 130.002 12.5H137.883L200.118 36.2539C192.469 36.3545 184.999 40.7491 178.632 46.3882C171.295 52.8855 165.314 61.1305 162.043 66.7484Z" fill="white" stroke="#F3F5F6"/>
<path d="M121.476 19L171.476 38" stroke="black"/>
<path d="M95.4756 130L145.976 149" stroke="black"/>
<path d="M88.4756 144.5L138.976 164" stroke="black"/>
<path d="M27.9756 191L78.4756 209.5" stroke="black"/>
<path d="M25.4756 209.5L76.4756 228.5" stroke="black"/>
<ellipse cx="83.9756" cy="176" rx="26.5" ry="18" fill="#0095CC"/>
<path d="M109.476 28.5L159.476 47.5" stroke="black"/>
<path d="M96.4756 38.5L146.476 57.5" stroke="black"/>
<path d="M95.9756 115L146.976 133.5" stroke="black"/>
</g>
<g clip-path="url(#clip0_18564_3190)">
<path d="M176.019 204.513L177.308 197.996L179.808 202.326L182.933 207.738L185.89 210.361L191.325 212.275L194.428 212.649L207.753 210.729L215.102 207.208L221.597 203.458L228.779 197.146L234.253 190.377L236.25 186.337L236.624 183.235L237.31 180.673L236.289 177.655L234.414 174.407L232.852 171.701L230.435 168.766L230.352 167.371L234.308 167.973L238.036 169.429L241.306 172.593L244.911 181.337L243.622 187.855L239.314 195.394L231.759 204.808L219.622 212.536L209.254 217.079L199.573 219.06L188.954 219.417L183.206 216.962L178.77 213.028L176.499 207.845L176.019 204.513Z" fill="#F49D3B"/>
<path d="M193.726 228.931L188.101 219.188C222.648 220.027 240.232 198.232 244.392 186.688L249.08 194.807C238.295 224.128 207.683 229.774 193.726 228.931Z" fill="#0095CC"/>
<path d="M148.726 150.989L143.101 141.247C177.648 142.085 194.607 119.208 198.767 107.664L204.08 116.866C193.295 146.186 162.683 151.832 148.726 150.989Z" fill="#335B96"/>
<ellipse cx="164.767" cy="115.025" rx="36.25" ry="21.875" transform="rotate(-30 164.767 115.025)" fill="white"/>
<path d="M248.463 183.855L242.878 174.182C242.878 174.182 242.878 174.182 242.764 173.985C241.282 171.419 238.897 169.111 235.753 167.768C233.968 166.956 231.788 166.372 229.214 166.016C220.949 157.627 208.016 154.829 196.17 154.825C194.841 154.803 194.043 153.421 194.802 152.456C197.383 147.808 199.621 142.568 201.237 137.16C202.686 132.376 203.117 127.652 202.645 123.187C205.278 117.719 206.21 111.127 203.444 105.881L197.746 96.0106C187.602 78.4418 147.086 90.7795 133.394 114.477C129.128 121.677 128.622 128.55 131.502 133.993L137.2 143.864C140.277 149.193 146.452 151.682 152.702 152.022C156.446 154.861 160.753 156.849 165.621 157.987C171.112 159.291 176.769 159.973 182.085 160.062C183.414 160.084 184.212 161.466 183.453 162.431C177.73 172.578 173.375 185.094 176.507 196.446C174.102 202.309 174.013 207.625 176.52 211.967L182.219 221.838C189.969 235.261 213.045 230.097 226.665 222.233C241.076 213.914 255.871 196.686 248.463 183.855ZM144.626 141.682C155.038 143.303 166.868 139.632 176.146 134.275C185.424 128.919 194.435 120.821 198.122 110.796L202.225 117.902C196.908 136.501 167.692 153.369 148.729 148.788L144.626 141.682ZM154.439 97.5888C166.678 90.5227 188.819 85.1088 195.772 97.1503C198.393 101.691 197.4 107.265 195.328 111.882C184.211 135.936 143.019 148.927 133.673 132.74C126.721 120.698 142.397 104.541 154.439 97.5888ZM184.926 163.159C186.33 161.033 184.735 158.269 182.077 158.224C176.761 158.135 171.415 157.537 165.924 156.232C161.99 155.345 158.846 154.002 155.671 152.15C164.039 152.056 173.356 149.046 181.647 144.259C189.74 139.587 196.808 133.137 201.074 125.937C201.287 129.498 200.681 133.007 199.68 136.743C198.064 142.151 196.023 147.277 193.329 151.728C192.038 154.052 193.634 156.816 196.178 156.663C219.164 156.815 229.692 165.476 234.921 177.723C242.748 195.84 197.065 222.478 183.793 207.242C175.885 196.279 173.762 183.028 184.926 163.159ZM177.936 199.832C179.137 202.824 180.733 205.587 182.64 208.434C197.248 225.531 245.072 197.13 236.728 177.206C235.413 174.017 233.734 171.565 231.941 168.916C238.48 170.668 240.023 174.251 241.101 175.208C241.215 175.405 245.569 181.578 239.284 192.576C226.352 215.308 187.695 226.309 178.919 211.109C176.982 207.753 176.654 203.994 177.936 199.832ZM244.672 202.362C236.619 216.224 216.681 227.735 200.453 227.892C198.107 227.93 195.844 227.658 193.976 227.157L189.873 220.051C190.184 220.134 190.495 220.218 190.693 220.104C209.731 222.535 236.381 207.149 243.369 189.165L247.472 196.271C246.66 198.056 245.962 200.038 244.672 202.362Z" fill="black"/>
<path d="M157.038 128.989C165.717 128.978 176.377 122.824 180.726 115.312C185.356 107.375 181.283 100.777 172.292 100.704C163.612 100.715 152.953 106.869 148.604 114.381C144.088 122.515 147.849 129.03 157.038 128.989ZM150.916 125.68C150.596 123.759 151.18 121.579 152.585 119.452C156.653 112.366 166.523 106.667 174.891 106.574C177.549 106.618 179.729 107.202 181.233 108.44C182.185 119.207 159.795 132.397 150.916 125.68Z" fill="black"/>
<path d="M228.895 189.625C232.629 183.784 231.937 180.762 229.544 176.616C229.316 176.222 228.693 176.055 228.298 176.283C227.903 176.511 227.737 177.133 227.965 177.528C229.788 180.687 230.958 183.169 227.307 188.699C227.027 189.124 227.057 189.633 227.483 189.914C228.105 190.081 228.614 190.05 228.895 189.625Z" fill="black"/>
<path d="M225.343 172.987C225.571 173.382 226.08 173.351 226.474 173.123C226.869 172.895 226.839 172.387 226.611 171.992C225.388 170.329 223.77 168.894 222.266 167.657C221.84 167.376 221.331 167.407 221.051 167.832C220.77 168.257 220.8 168.766 221.226 169.047C222.616 170.087 223.922 171.438 225.343 172.987Z" fill="black"/>
</g>
<path d="M74.2134 169L77.2134 179L101.213 172" stroke="white" stroke-width="3" stroke-linecap="round"/>
<ellipse cx="119.48" cy="69.5002" rx="8.57484" ry="12.3972" transform="rotate(8.25679 119.48 69.5002)" fill="#3B3A39"/>
<path d="M100.136 95.6561C101.208 87.4672 109.384 82.2075 117.28 84.6279C123.602 86.5658 127.552 92.841 126.565 99.3793L124.283 114.5L98.7827 106L100.136 95.6561Z" fill="#F49D3B"/>
<defs>
<filter id="filter0_d_18564_3190" x="0.213379" y="8" width="215.262" height="270" filterUnits="userSpaceOnUse" color-interpolation-filters="sRGB">
<feFlood flood-opacity="0" result="BackgroundImageFix"/>
<feColorMatrix in="SourceAlpha" type="matrix" values="0 0 0 0 0 0 0 0 0 0 0 0 0 0 0 0 0 0 127 0" result="hardAlpha"/>
<feOffset dy="8"/>
<feGaussianBlur stdDeviation="6"/>
<feComposite in2="hardAlpha" operator="out"/>
<feColorMatrix type="matrix" values="0 0 0 0 0 0 0 0 0 0 0 0 0 0 0 0 0 0 0.1 0"/>
<feBlend mode="normal" in2="BackgroundImageFix" result="effect1_dropShadow_18564_3190"/>
<feBlend mode="normal" in="SourceGraphic" in2="effect1_dropShadow_18564_3190" result="shape"/>
</filter>
<clipPath id="clip0_18564_3190">
<rect width="155" height="155" fill="white" transform="translate(84.2134 130.5) rotate(-30)"/>
</clipPath>
</defs>
</svg>
