<svg width="25" height="25" viewBox="0 0 25 25" fill="none" xmlns="http://www.w3.org/2000/svg">
<path d="M5.7002 19.01H9.03353L17.7835 10.26C18.0024 10.0411 18.176 9.78131 18.2945 9.49534C18.4129 9.20938 18.4739 8.90288 18.4739 8.59335C18.4739 8.28382 18.4129 7.97732 18.2945 7.69136C18.176 7.40539 18.0024 7.14555 17.7835 6.92668C17.5647 6.70781 17.3048 6.5342 17.0189 6.41575C16.7329 6.29729 16.4264 6.23633 16.1169 6.23633C15.8073 6.23633 15.5008 6.29729 15.2149 6.41575C14.9289 6.5342 14.6691 6.70781 14.4502 6.92668L5.7002 15.6767V19.01Z" stroke="#697586" stroke-width="1.5" stroke-linecap="round" stroke-linejoin="round"/>
<path d="M13.6172 7.76172L16.9505 11.0951" stroke="#697586" stroke-width="1.5" stroke-linecap="round" stroke-linejoin="round"/>
</svg>
