<svg width="21" height="21" viewBox="0 0 21 21" fill="none" xmlns="http://www.w3.org/2000/svg">
<path d="M10.3672 18.6751C9.68537 18.6751 9.03401 18.3957 7.73129 17.8367C4.48856 16.4454 2.86719 15.7497 2.86719 14.5796L2.86719 6.79805M10.3672 18.6751C11.049 18.6751 11.7004 18.3957 13.0031 17.8367C16.2458 16.4454 17.8672 15.7497 17.8672 14.5796V6.79805M10.3672 18.6751L10.3672 10.484M17.8672 6.79805C17.8672 7.30117 17.1992 7.61888 15.8633 8.2543L13.4289 9.41214C11.9265 10.1267 11.1753 10.484 10.3672 10.484M17.8672 6.79805C17.8672 6.29493 17.1992 5.97722 15.8633 5.3418M2.86719 6.79805C2.86719 7.30117 3.53516 7.61888 4.87112 8.2543L7.30545 9.41214C8.80788 10.1267 9.5591 10.484 10.3672 10.484M2.86719 6.79805C2.86719 6.29493 3.53516 5.97722 4.87112 5.3418M5.64388 11.4343L7.30545 12.2246" stroke="#697586" stroke-width="1.5" stroke-linecap="round" stroke-linejoin="round"/>
<path d="M10.3675 2.00977V3.67643M13.7008 2.8431L12.4508 4.50977M7.03418 2.8431L8.28418 4.50977" stroke="#697586" stroke-width="1.5" stroke-linecap="round"/>
</svg>
