<svg width="21" height="21" viewBox="0 0 21 21" fill="none" xmlns="http://www.w3.org/2000/svg">
<g clip-path="url(#clip0_24100_55048)">
<path d="M17.6789 15.3418C18.3033 15.3418 18.8 14.9489 19.2459 14.3994C20.1588 13.2747 18.66 12.3758 18.0883 11.9356C17.5072 11.4881 16.8584 11.2346 16.2005 11.1751M15.3672 9.50846C16.5178 9.50846 17.4505 8.57572 17.4505 7.42513C17.4505 6.27454 16.5178 5.3418 15.3672 5.3418" stroke="#697586" stroke-width="1.5" stroke-linecap="round"/>
<path d="M3.05519 15.3418C2.43077 15.3418 1.93412 14.9489 1.48818 14.3994C0.5753 13.2747 2.07412 12.3758 2.64576 11.9356C3.22687 11.4881 3.87571 11.2346 4.53356 11.1751M4.95023 9.50846C3.79963 9.50846 2.86689 8.57572 2.86689 7.42513C2.86689 6.27454 3.79963 5.3418 4.95023 5.3418" stroke="#697586" stroke-width="1.5" stroke-linecap="round"/>
<path d="M7.10337 12.9358C6.25188 13.4623 4.01935 14.5373 5.37911 15.8826C6.04334 16.5398 6.78313 17.0098 7.71322 17.0098H13.0205C13.9506 17.0098 14.6904 16.5398 15.3546 15.8826C16.7144 14.5373 14.4818 13.4623 13.6304 12.9358C11.6336 11.7011 9.10008 11.7011 7.10337 12.9358Z" stroke="#697586" stroke-width="1.5" stroke-linecap="round" stroke-linejoin="round"/>
<path d="M13.2835 6.59233C13.2835 8.20316 11.9777 9.50899 10.3668 9.50899C8.75601 9.50899 7.45017 8.20316 7.45017 6.59233C7.45017 4.9815 8.75601 3.67566 10.3668 3.67566C11.9777 3.67566 13.2835 4.9815 13.2835 6.59233Z" stroke="#697586" stroke-width="1.5"/>
</g>
<defs>
<clipPath id="clip0_24100_55048">
<rect width="20" height="20" fill="white" transform="translate(0.367188 0.34375)"/>
</clipPath>
</defs>
</svg>
