<svg width="37" height="37" viewBox="0 0 37 37" fill="none" xmlns="http://www.w3.org/2000/svg">
<rect x="0.867188" y="0.34375" width="36" height="36" rx="18" fill="#E07FE3"/>
<g clip-path="url(#clip0_24232_2706)">
<path opacity="0.24" d="M26.1788 23.3431C26.8032 23.3431 27.2999 22.9501 27.7458 22.4007C28.6587 21.276 27.1599 20.3771 26.5882 19.9369C26.0071 19.4894 25.3583 19.2359 24.7004 19.1764M23.8671 17.5097C25.0177 17.5097 25.9504 16.577 25.9504 15.4264C25.9504 14.2758 25.0177 13.3431 23.8671 13.3431" stroke="#141B34" stroke-width="1.25" stroke-linecap="round"/>
<path opacity="0.24" d="M11.5554 23.3431C10.931 23.3431 10.4343 22.9501 9.98839 22.4007C9.07551 21.276 10.5743 20.3771 11.146 19.9369C11.7271 19.4894 12.3759 19.2359 13.0338 19.1764M13.4504 17.5097C12.2998 17.5097 11.3671 16.577 11.3671 15.4264C11.3671 14.2758 12.2998 13.3431 13.4504 13.3431" stroke="#141B34" stroke-width="1.25" stroke-linecap="round"/>
<path d="M15.6036 20.9358C14.7521 21.4623 12.5196 22.5373 13.8793 23.8826C14.5436 24.5398 15.2833 25.0098 16.2134 25.0098H21.5207C22.4508 25.0098 23.1906 24.5398 23.8548 23.8826C25.2146 22.5373 22.9821 21.4623 22.1306 20.9358C20.1339 19.7011 17.6003 19.7011 15.6036 20.9358Z" stroke="white" stroke-width="1.25" stroke-linecap="round" stroke-linejoin="round"/>
<path d="M21.7837 14.5931C21.7837 16.2039 20.4779 17.5098 18.8671 17.5098C17.2562 17.5098 15.9504 16.2039 15.9504 14.5931C15.9504 12.9823 17.2562 11.6764 18.8671 11.6764C20.4779 11.6764 21.7837 12.9823 21.7837 14.5931Z" stroke="white" stroke-width="1.25"/>
</g>
<defs>
<clipPath id="clip0_24232_2706">
<rect width="20" height="20" fill="white" transform="translate(8.86719 8.34375)"/>
</clipPath>
</defs>
</svg>
