<svg width="37" height="37" viewBox="0 0 37 37" fill="none" xmlns="http://www.w3.org/2000/svg">
<rect x="0.367188" y="0.34375" width="36" height="36" rx="18" fill="#9597E9"/>
<path opacity="0.24" fill-rule="evenodd" clip-rule="evenodd" d="M22.7005 14.5951C22.7005 13.4445 23.6333 12.5117 24.7839 12.5117C25.9344 12.5117 26.8672 13.4445 26.8672 14.5951C26.8672 15.6373 26.1018 16.5008 25.1025 16.6542C25.1003 16.6583 25.098 16.6624 25.0958 16.6666L23.1846 20.1067C23.4052 20.4372 23.5339 20.8345 23.5339 21.2617C23.5339 22.4123 22.6011 23.3451 21.4505 23.3451C20.2999 23.3451 19.3672 22.4123 19.3672 21.2617C19.3672 21.0758 19.3916 20.8955 19.4373 20.7239L17.2242 19.03C16.985 19.1257 16.7239 19.1784 16.4505 19.1784C16.3283 19.1784 16.2085 19.1679 16.0921 19.1477L12.5683 24.6292C12.3194 25.0163 11.8038 25.1284 11.4167 24.8795C11.0295 24.6306 10.9174 24.115 11.1663 23.7279L14.7019 18.2281C14.4902 17.9019 14.3672 17.5129 14.3672 17.0951C14.3672 15.9445 15.2999 15.0117 16.4505 15.0117C17.6011 15.0117 18.5339 15.9445 18.5339 17.0951C18.5339 17.3542 18.4865 17.6023 18.4001 17.8312L20.4758 19.42C20.7667 19.2657 21.0984 19.1784 21.4505 19.1784C21.5624 19.1784 21.6722 19.1872 21.7794 19.2042L23.4506 16.196C22.9922 15.8138 22.7005 15.2385 22.7005 14.5951ZM24.7839 13.9701C24.4387 13.9701 24.1589 14.2499 24.1589 14.5951C24.1589 14.9402 24.4387 15.2201 24.7839 15.2201C25.129 15.2201 25.4089 14.9402 25.4089 14.5951C25.4089 14.2499 25.129 13.9701 24.7839 13.9701ZM16.4505 16.4701C16.1053 16.4701 15.8255 16.7499 15.8255 17.0951C15.8255 17.4402 16.1053 17.7201 16.4505 17.7201C16.7957 17.7201 17.0755 17.4402 17.0755 17.0951C17.0755 16.7499 16.7957 16.4701 16.4505 16.4701ZM20.8255 21.2617C20.8255 20.9165 21.1053 20.6367 21.4505 20.6367C21.7957 20.6367 22.0755 20.9165 22.0755 21.2617C22.0755 21.6069 21.7957 21.8867 21.4505 21.8867C21.1053 21.8867 20.8255 21.6069 20.8255 21.2617Z" fill="#141B34"/>
<path fill-rule="evenodd" clip-rule="evenodd" d="M11.0339 10.0111C11.4941 10.0111 11.8672 10.3842 11.8672 10.8444V20.0111C11.8672 21.4096 11.869 22.3746 11.9665 23.1004C12.0609 23.8023 12.2309 24.1544 12.4774 24.4009C12.7239 24.6474 13.076 24.8174 13.7779 24.9117C14.5037 25.0093 15.4687 25.0111 16.8672 25.0111H26.0339C26.4941 25.0111 26.8672 25.3842 26.8672 25.8444C26.8672 26.3046 26.4941 26.6777 26.0339 26.6777H16.8072C15.4833 26.6778 14.4057 26.6778 13.5558 26.5635C12.6691 26.4443 11.9067 26.1872 11.2989 25.5794C10.6911 24.9716 10.4339 24.2092 10.3147 23.3225C10.2005 22.4726 10.2005 21.395 10.2005 20.0711L10.2005 10.8444C10.2005 10.3842 10.5736 10.0111 11.0339 10.0111Z" fill="white"/>
</svg>
