<svg width="21" height="21" viewBox="0 0 21 21" fill="none" xmlns="http://www.w3.org/2000/svg">
<path d="M5.28418 5.76172C5.28418 5.34751 4.94839 5.01172 4.53418 5.01172C4.11997 5.01172 3.78418 5.34751 3.78418 5.76172H5.28418ZM3.78418 17.8451C3.78418 18.2593 4.11997 18.5951 4.53418 18.5951C4.94839 18.5951 5.28418 18.2593 5.28418 17.8451H3.78418ZM3.78418 5.76172V17.8451H5.28418V5.76172H3.78418Z" fill="#697586"/>
<path d="M8.61148 3.70805L8.33427 4.40494L8.61148 3.70805ZM11.2914 4.77411L11.0142 5.47099L11.2914 4.77411ZM11.2914 10.9891L11.5687 11.686H11.5687L11.2914 10.9891ZM4.53418 13.6771H3.78418C3.78418 13.9257 3.90738 14.1582 4.11312 14.2977C4.31885 14.4373 4.58038 14.4659 4.81139 14.374L4.53418 13.6771ZM5.19238 3.00593L4.80563 2.36333L4.80563 2.36333L5.19238 3.00593ZM8.33427 4.40494L11.0142 5.47099L11.5687 4.07722L8.88869 3.01116L8.33427 4.40494ZM11.0142 10.2922L4.25697 12.9802L4.81139 14.374L11.5687 11.686L11.0142 10.2922ZM11.0142 5.47099C12.6745 6.13142 13.8399 6.59707 14.6 7.03352C15.3842 7.48379 15.4508 7.74236 15.4508 7.88161H16.9508C16.9508 6.86627 16.1992 6.22205 15.3469 5.7327C14.4706 5.22953 13.1813 4.71873 11.5687 4.07722L11.0142 5.47099ZM11.5687 11.686C13.1813 11.0445 14.4706 10.5337 15.3469 10.0305C16.1992 9.54118 16.9508 8.89696 16.9508 7.88161H15.4508C15.4508 8.02087 15.3842 8.27944 14.6 8.72971C13.8399 9.16616 12.6745 9.63181 11.0142 10.2922L11.5687 11.686ZM3.78418 6.16198V13.6771H5.28418V6.16198H3.78418ZM8.88869 3.01116C7.98966 2.65354 7.24244 2.35445 6.6378 2.20561C6.02342 2.05437 5.3876 2.01307 4.80563 2.36333L5.57912 3.64852C5.65535 3.60264 5.80878 3.54632 6.27925 3.66213C6.75946 3.78034 7.39269 4.03039 8.33427 4.40494L8.88869 3.01116ZM5.28418 6.16198C5.28418 5.21502 5.28652 4.5977 5.35686 4.16209C5.4229 3.75312 5.52156 3.68316 5.57912 3.64852L4.80563 2.36333C4.20499 2.72483 3.97455 3.31292 3.87605 3.92296C3.78184 4.50635 3.78418 5.26899 3.78418 6.16198H5.28418Z" fill="#697586"/>
</svg>
