<svg width="37" height="37" viewBox="0 0 37 37" fill="none" xmlns="http://www.w3.org/2000/svg">
<rect x="0.367188" y="0.34375" width="36" height="36" rx="18" fill="#E3AD7F"/>
<path opacity="0.24" d="M11.69 15.046C11.8424 14.9306 11.9686 14.8364 11.9926 14.8222C12.258 14.6655 12.6817 14.4842 13.3575 14.1983C13.7627 14.0269 13.935 13.5958 13.7423 13.2353C13.5495 12.8749 13.0648 12.7217 12.6595 12.8931L12.6045 12.9164L12.6045 12.9164C12.0005 13.1719 11.4682 13.397 11.0937 13.6181C10.7222 13.8375 10.2422 14.204 10.2422 14.8086V22.6858C10.2422 23.6238 10.9165 24.2523 11.7579 24.7652C12.6068 25.2825 14.0331 25.8945 15.6105 26.5713C16.7915 27.0784 17.5553 27.4064 18.3672 27.4064C19.1791 27.4064 19.9428 27.0784 21.1238 26.5713C22.7012 25.8945 24.1276 25.2825 24.9764 24.7652C25.8178 24.2523 26.4922 23.6238 26.4922 22.6858V14.8086C26.4922 14.204 26.0122 13.8375 25.6406 13.6181C25.2662 13.397 24.7339 13.1719 24.1299 12.9164L24.0748 12.8931C23.6696 12.7217 23.1849 12.8749 22.9921 13.2353C22.7994 13.5958 22.9716 14.0269 23.3769 14.1983C24.0527 14.4842 24.4764 14.6655 24.7418 14.8222C24.7657 14.8364 24.8919 14.9306 25.0444 15.046C24.7567 15.2371 24.2817 15.4695 23.5948 15.7961L21.1605 16.954C19.605 17.6938 19.0013 17.9653 18.3672 17.9653C17.7331 17.9653 17.1294 17.6938 15.5739 16.954L13.1396 15.7961C12.4527 15.4695 11.9776 15.2371 11.69 15.046Z" fill="#141B34"/>
<path fill-rule="evenodd" clip-rule="evenodd" d="M13.0796 19.2734C13.2279 18.9616 13.6008 18.8291 13.9125 18.9774L15.574 19.7677C15.8858 19.9159 16.0183 20.2888 15.87 20.6005C15.7217 20.9123 15.3489 21.0448 15.0371 20.8965L13.3756 20.1062C13.0639 19.958 12.9314 19.5851 13.0796 19.2734Z" fill="white"/>
<path fill-rule="evenodd" clip-rule="evenodd" d="M18.3672 9.28125C18.8274 9.28125 19.2005 9.65435 19.2005 10.1146V11.7812C19.2005 12.2415 18.8274 12.6146 18.3672 12.6146C17.9069 12.6146 17.5339 12.2415 17.5339 11.7812V10.1146C17.5339 9.65435 17.9069 9.28125 18.3672 9.28125ZM14.5339 10.2813C14.902 10.0051 15.4244 10.0797 15.7005 10.4479L16.9505 12.1146C17.2267 12.4828 17.152 13.0051 16.7839 13.2813C16.4157 13.5574 15.8933 13.4828 15.6172 13.1146L14.3672 11.4479C14.091 11.0797 14.1657 10.5574 14.5339 10.2813ZM22.2005 10.2813C22.5687 10.5574 22.6433 11.0797 22.3672 11.4479L21.1172 13.1146C20.841 13.4828 20.3187 13.5574 19.9505 13.2813C19.5823 13.0051 19.5077 12.4828 19.7839 12.1146L21.0339 10.4479C21.31 10.0797 21.8323 10.0051 22.2005 10.2813Z" fill="white"/>
</svg>
