<svg width="21" height="21" viewBox="0 0 21 21" fill="none" xmlns="http://www.w3.org/2000/svg">
<path d="M9.95085 12.0195C8.24533 11.9401 6.5203 12.3484 5.01549 13.2444C3.83652 13.9464 0.745317 15.3799 2.62806 17.1736C3.54777 18.0498 4.57209 18.6764 5.8599 18.6764H10.3675" stroke="#697586" stroke-width="1.5" stroke-linecap="round" stroke-linejoin="round"/>
<path d="M13.2842 5.75977C13.2842 7.83083 11.6052 9.50977 9.53418 9.50977C7.46311 9.50977 5.78418 7.83083 5.78418 5.75977C5.78418 3.6887 7.46311 2.00977 9.53418 2.00977C11.6052 2.00977 13.2842 3.6887 13.2842 5.75977Z" stroke="#697586" stroke-width="1.5"/>
<path d="M15.3675 17.6044V18.6758M15.3675 17.6044C14.4035 17.6044 13.5542 17.1308 13.0561 16.4119M15.3675 17.6044C16.3315 17.6044 17.1808 17.1308 17.6789 16.4119M15.3675 12.2472C16.3316 12.2472 17.1809 12.7208 17.679 13.4398M15.3675 12.2472C14.4035 12.2472 13.5541 12.7208 13.056 13.4398M15.3675 12.2472V11.1758M18.7008 12.7829L17.679 13.4398M12.0345 17.0686L13.0561 16.4119M12.0342 12.7829L13.056 13.4398M18.7005 17.0686L17.6789 16.4119M17.679 13.4398C17.9736 13.865 18.1453 14.3761 18.1453 14.9258C18.1453 15.4756 17.9735 15.9866 17.6789 16.4119M13.056 13.4398C12.7615 13.865 12.5897 14.3761 12.5897 14.9258C12.5897 15.4756 12.7615 15.9866 13.0561 16.4119" stroke="#697586" stroke-width="1.5" stroke-linecap="round"/>
</svg>
