<svg width="37" height="37" viewBox="0 0 37 37" fill="none" xmlns="http://www.w3.org/2000/svg">
<rect x="0.867188" y="0.34375" width="36" height="36" rx="18" fill="#7FE3CC"/>
<g opacity="0.32">
</g>
<path d="M17.7349 9.93311C17.9401 9.72721 18.3276 9.38608 18.867 9.38608C19.4064 9.38608 19.7939 9.72721 19.9991 9.93311C20.2479 10.1827 20.4461 10.5558 20.7618 10.7228C21.0228 10.8609 21.3594 10.7268 21.6199 10.6589C21.8682 10.5943 22.2466 10.4964 22.6476 10.5498C22.8218 10.573 23.0505 10.6284 23.2276 10.7862C23.4374 10.973 23.4713 11.2054 23.4406 11.381C23.4033 11.5947 23.2709 11.7701 23.141 11.9369L22.3974 12.8943C22.2057 13.1418 22.016 13.396 21.7613 13.583C21.5727 13.7216 21.334 13.7611 21.0999 13.7611H16.6341C16.4001 13.7611 16.1614 13.7216 15.9727 13.583C15.7181 13.396 15.5283 13.1418 15.3367 12.8943L14.5931 11.9369C14.4631 11.7701 14.3308 11.5947 14.2935 11.381C14.2628 11.2054 14.2966 10.973 14.5064 10.7862C14.6836 10.6284 14.9122 10.573 15.0865 10.5498C15.4875 10.4964 15.8659 10.5943 16.1142 10.6589C16.3746 10.7268 16.7112 10.8609 16.9723 10.7228C17.288 10.5558 17.4862 10.1827 17.7349 9.93311Z" fill="white"/>
</svg>
