<svg width="117" height="138" viewBox="0 0 117 138" fill="none" xmlns="http://www.w3.org/2000/svg">
<g opacity="0.6" filter="url(#filter0_f_24100_57674)">
<rect width="36.9496" height="36.9496" rx="18.4748" transform="matrix(0.866044 0.499967 -0.866044 0.499967 58.1172 85.5273)" fill="#647B9A"/>
</g>
<rect x="14.1172" y="16" width="88" height="88" rx="44" fill="#E3E8EF"/>
<rect x="14.1172" y="17" width="80" height="80" rx="40" fill="#F3F5F6"/>
<rect x="14.6172" y="17.5" width="79" height="79" rx="39.5" stroke="url(#paint0_linear_24100_57674)" stroke-opacity="0.1" style="mix-blend-mode:overlay"/>
<path d="M51.518 40.9989H70.764L74.086 49.3069C74.0061 50.3351 73.5311 51.2924 72.7607 51.9781C71.9904 52.6638 70.9844 53.0245 69.9539 52.9847C68.9233 52.9448 67.9482 52.5075 67.2331 51.7644C66.518 51.0213 66.1183 50.0302 66.118 48.9989C66.118 48.4684 65.9073 47.9597 65.5322 47.5846C65.1571 47.2096 64.6484 46.9989 64.118 46.9989C63.5876 46.9989 63.0789 47.2096 62.7038 47.5846C62.3287 47.9597 62.118 48.4684 62.118 48.9989C62.1239 49.4846 62.0328 49.9667 61.85 50.4169C61.6482 50.907 61.6492 51.4572 61.8529 51.9466C62.0565 52.436 62.4461 52.8245 62.936 53.0269C63.0496 53.061 63.1661 53.0845 63.284 53.0969C63.9885 54.2826 64.9885 55.2655 66.1863 55.9494C67.3841 56.6333 68.7387 56.9949 70.118 56.9989V59.5989C70.118 60.1293 70.3287 60.638 70.7038 61.0131C71.0789 61.3881 71.5876 61.5989 72.118 61.5989C72.6484 61.5989 73.1571 61.3881 73.5322 61.0131C73.9073 60.638 74.118 60.1293 74.118 59.5989V55.8869C75.3175 55.1961 76.3163 54.2049 77.0163 53.0108C77.7163 51.8167 78.0932 50.4609 78.11 49.0769C78.11 49.0569 78.116 49.0409 78.116 49.0209L78.118 48.9989C78.1052 48.883 78.0818 48.7685 78.048 48.6569C78.0383 48.5213 78.0142 48.3872 77.976 48.2569L73.976 38.2569C73.8276 37.8854 73.5712 37.567 73.24 37.3428C72.9088 37.1185 72.518 36.9987 72.118 36.9989H51.518C50.9876 36.9989 50.4789 37.2096 50.1038 37.5846C49.7287 37.9597 49.518 38.4684 49.518 38.9989C49.518 39.5293 49.7287 40.038 50.1038 40.4131C50.4789 40.7881 50.9876 40.9989 51.518 40.9989ZM79.532 75.5849L73.666 69.7189C73.5756 69.6046 73.4722 69.5013 73.358 69.4109L53.458 49.5109C53.3421 49.3536 53.2032 49.2147 53.046 49.0989L44.482 40.5349C44.4049 40.4417 44.3192 40.356 44.226 40.2789L39.532 35.5849C39.1548 35.2205 38.6496 35.019 38.1252 35.0235C37.6008 35.0281 37.0992 35.2384 36.7284 35.6092C36.3575 35.98 36.1472 36.4817 36.1427 37.0061C36.1381 37.5305 36.3397 38.0357 36.704 38.4129L40.632 42.3409L38.276 48.2209L38.262 48.2549C38.226 48.3782 38.2025 48.5048 38.192 48.6329C38.1554 48.7521 38.1306 48.8747 38.118 48.9989L38.12 49.0229L38.126 49.0709C38.1419 50.4559 38.5185 51.8128 39.2185 53.008C39.9185 54.2032 40.9178 55.1954 42.118 55.8869V74.9989C42.118 75.5293 42.3287 76.038 42.7038 76.4131C43.0789 76.7881 43.5876 76.9989 44.118 76.9989H72.118C72.5251 76.9972 72.9219 76.8704 73.2546 76.6358C73.5873 76.4011 73.8398 76.0698 73.978 75.6869L76.704 78.4129C77.0812 78.7772 77.5864 78.9788 78.1108 78.9742C78.6352 78.9697 79.1368 78.7593 79.5076 78.3885C79.8785 78.0177 80.0888 77.5161 80.0933 76.9917C80.0979 76.4673 79.8963 75.9621 79.532 75.5849ZM42.15 49.3049L43.706 45.4149L49.458 51.1669C49.1013 51.7294 48.6079 52.1925 48.0239 52.5129C47.4398 52.8332 46.7841 53.0004 46.118 52.9989C45.1134 52.9957 44.1469 52.6138 43.4114 51.9295C42.6759 51.2451 42.2255 50.3086 42.15 49.3069V49.3049ZM52.118 62.9989V72.9989H46.118V56.9989C47.3086 57.0017 48.4846 56.7364 49.5586 56.2226C50.6326 55.7088 51.5771 54.9597 52.322 54.0309L59.29 60.9989H54.118C53.5876 60.9989 53.0789 61.2096 52.7038 61.5846C52.3287 61.9597 52.118 62.4684 52.118 62.9989ZM60.118 72.9989H56.118V64.9989H60.118V72.9989ZM70.118 72.9989H64.118V65.8269L70.118 71.8269V72.9989Z" fill="#364152"/>
<defs>
<filter id="filter0_f_24100_57674" x="15.4902" y="70.9381" width="85.2539" height="66.1256" filterUnits="userSpaceOnUse" color-interpolation-filters="sRGB">
<feFlood flood-opacity="0" result="BackgroundImageFix"/>
<feBlend mode="normal" in="SourceGraphic" in2="BackgroundImageFix" result="shape"/>
<feGaussianBlur stdDeviation="10" result="effect1_foregroundBlur_24100_57674"/>
</filter>
<linearGradient id="paint0_linear_24100_57674" x1="29.5306" y1="25.4101" x2="79.6475" y2="86.4901" gradientUnits="userSpaceOnUse">
<stop stop-color="white" stop-opacity="0"/>
<stop offset="1" stop-color="white"/>
</linearGradient>
</defs>
</svg>
