<svg width="25" height="25" viewBox="0 0 25 25" fill="none" xmlns="http://www.w3.org/2000/svg">
<path d="M4.6167 12.2304C4.6167 8.4985 4.6167 6.63252 5.77607 5.47315C6.93544 4.31378 8.80142 4.31378 12.5334 4.31378C16.2653 4.31378 18.1313 4.31378 19.2907 5.47315C20.45 6.63252 20.45 8.4985 20.45 12.2304C20.45 15.9624 20.45 17.8284 19.2907 18.9878C18.1313 20.1471 16.2653 20.1471 12.5334 20.1471C8.80142 20.1471 6.93544 20.1471 5.77607 18.9878C4.6167 17.8284 4.6167 15.9624 4.6167 12.2304Z" stroke="#364152" stroke-width="1.5"/>
<path d="M11.7002 8.06378H16.7002" stroke="#364152" stroke-width="1.5" stroke-linecap="round"/>
<path d="M8.3667 8.06378H9.20003" stroke="#364152" stroke-width="1.5" stroke-linecap="round"/>
<path d="M8.3667 12.2298H9.20003" stroke="#364152" stroke-width="1.5" stroke-linecap="round"/>
<path d="M8.3667 16.3968H9.20003" stroke="#364152" stroke-width="1.5" stroke-linecap="round"/>
<path d="M11.7002 12.2298H16.7002" stroke="#364152" stroke-width="1.5" stroke-linecap="round"/>
<path d="M11.7002 16.3968H16.7002" stroke="#364152" stroke-width="1.5" stroke-linecap="round"/>
</svg>
