<svg width="25" height="25" viewBox="0 0 25 25" fill="none" xmlns="http://www.w3.org/2000/svg">
<path d="M7.51282 7.56708C7.51282 7.15286 7.17703 6.81708 6.76282 6.81708C6.3486 6.81708 6.01282 7.15286 6.01282 7.56708H7.51282ZM6.01282 19.6504C6.01282 20.0646 6.3486 20.4004 6.76282 20.4004C7.17703 20.4004 7.51282 20.0646 7.51282 19.6504H6.01282ZM6.01282 7.56708V19.6504H7.51282V7.56708H6.01282Z" fill="#364152"/>
<path d="M10.8401 5.51469L10.5629 6.21158L10.8401 5.51469ZM13.5201 6.58075L13.2429 7.27763H13.2429L13.5201 6.58075ZM13.5201 12.7958L13.7973 13.4927L13.5201 12.7958ZM6.76282 15.4837H6.01282C6.01282 15.7323 6.13602 15.9648 6.34175 16.1044C6.54749 16.2439 6.80902 16.2725 7.04003 16.1806L6.76282 15.4837ZM7.42101 4.81257L7.03427 4.16997L7.03427 4.16997L7.42101 4.81257ZM10.5629 6.21158L13.2429 7.27763L13.7973 5.88386L11.1173 4.8178L10.5629 6.21158ZM13.2429 12.0989L6.4856 14.7868L7.04003 16.1806L13.7973 13.4927L13.2429 12.0989ZM13.2429 7.27763C14.9031 7.93806 16.0685 8.40371 16.8287 8.84016C17.6129 9.29043 17.6795 9.549 17.6795 9.68825H19.1795C19.1795 8.67291 18.4279 8.02869 17.5756 7.53934C16.6993 7.03617 15.41 6.52537 13.7973 5.88386L13.2429 7.27763ZM13.7973 13.4927C15.41 12.8511 16.6993 12.3403 17.5756 11.8372C18.4279 11.3478 19.1795 10.7036 19.1795 9.68825H17.6795C17.6795 9.82751 17.6129 10.0861 16.8287 10.5363C16.0685 10.9728 14.9031 11.4385 13.2429 12.0989L13.7973 13.4927ZM6.01282 7.96862V15.4837H7.51282V7.96862H6.01282ZM11.1173 4.8178C10.2183 4.46018 9.47108 4.16109 8.86643 4.01225C8.25206 3.86101 7.61624 3.81971 7.03427 4.16997L7.80776 5.45516C7.88398 5.40928 8.03741 5.35296 8.50789 5.46877C8.9881 5.58698 9.62133 5.83703 10.5629 6.21158L11.1173 4.8178ZM7.51282 7.96862C7.51282 7.02166 7.51516 6.40434 7.5855 5.96873C7.65154 5.55976 7.7502 5.4898 7.80776 5.45516L7.03427 4.16997C6.43363 4.53147 6.20319 5.11956 6.10468 5.7296C6.01048 6.31299 6.01282 7.07563 6.01282 7.96862H7.51282Z" fill="#364152"/>
</svg>
