<svg width="25" height="25" viewBox="0 0 25 25" fill="none" xmlns="http://www.w3.org/2000/svg">
<path d="M5.42969 7.9834H18.763" stroke="#364152" stroke-width="1.5" stroke-linecap="round" stroke-linejoin="round"/>
<path d="M10.4297 11.3174V16.3174" stroke="#364152" stroke-width="1.5" stroke-linecap="round" stroke-linejoin="round"/>
<path d="M13.7627 11.3174V16.3174" stroke="#364152" stroke-width="1.5" stroke-linecap="round" stroke-linejoin="round"/>
<path d="M6.2627 7.9834L7.09603 17.9834C7.09603 18.4254 7.27162 18.8493 7.58418 19.1619C7.89674 19.4745 8.32067 19.6501 8.7627 19.6501H15.4294C15.8714 19.6501 16.2953 19.4745 16.6079 19.1619C16.9204 18.8493 17.096 18.4254 17.096 17.9834L17.9294 7.9834" stroke="#364152" stroke-width="1.5" stroke-linecap="round" stroke-linejoin="round"/>
<path d="M9.59619 7.98372V5.48372C9.59619 5.26271 9.68399 5.05075 9.84027 4.89447C9.99655 4.73819 10.2085 4.65039 10.4295 4.65039H13.7629C13.9839 4.65039 14.1958 4.73819 14.3521 4.89447C14.5084 5.05075 14.5962 5.26271 14.5962 5.48372V7.98372" stroke="#364152" stroke-width="1.5" stroke-linecap="round" stroke-linejoin="round"/>
</svg>
