<svg width="25" height="25" viewBox="0 0 25 25" fill="none" xmlns="http://www.w3.org/2000/svg">
<path d="M5.42969 18.8176H8.76302L17.513 10.0676C17.7319 9.84876 17.9055 9.58893 18.024 9.30296C18.1424 9.01699 18.2034 8.7105 18.2034 8.40097C18.2034 8.09144 18.1424 7.78494 18.024 7.49897C17.9055 7.21301 17.7319 6.95317 17.513 6.7343C17.2942 6.51543 17.0343 6.34181 16.7483 6.22336C16.4624 6.10491 16.1559 6.04395 15.8464 6.04395C15.5368 6.04395 15.2303 6.10491 14.9444 6.22336C14.6584 6.34181 14.3986 6.51543 14.1797 6.7343L5.42969 15.4843V18.8176Z" stroke="#364152" stroke-width="1.5" stroke-linecap="round" stroke-linejoin="round"/>
<path d="M13.3462 7.56738L16.6795 10.9007" stroke="#364152" stroke-width="1.5" stroke-linecap="round" stroke-linejoin="round"/>
</svg>
