<svg width="21" height="21" viewBox="0 0 21 21" fill="none" xmlns="http://www.w3.org/2000/svg">
<g clip-path="url(#clip0_24100_55505)">
<path d="M17.8448 15.9717C18.4692 15.9717 18.9659 15.5787 19.4118 15.0293C20.3247 13.9046 18.8259 13.0057 18.2542 12.5655C17.6731 12.118 17.0243 11.8645 16.3664 11.805M15.5331 10.1383C16.6837 10.1383 17.6164 9.20561 17.6164 8.05501C17.6164 6.90442 16.6837 5.97168 15.5331 5.97168" stroke="#697586" stroke-width="1.5" stroke-linecap="round"/>
<path d="M3.22142 15.9717C2.597 15.9717 2.10034 15.5787 1.65441 15.0293C0.741529 13.9046 2.24035 13.0057 2.81199 12.5655C3.3931 12.118 4.04194 11.8645 4.69979 11.805M5.11645 10.1383C3.96586 10.1383 3.03312 9.20561 3.03312 8.05501C3.03312 6.90442 3.96586 5.97168 5.11645 5.97168" stroke="#697586" stroke-width="1.5" stroke-linecap="round"/>
<path d="M7.26963 13.5648C6.41814 14.0913 4.18561 15.1664 5.54537 16.5116C6.2096 17.1688 6.94939 17.6388 7.87948 17.6388H13.1868C14.1169 17.6388 14.8566 17.1688 15.5209 16.5116C16.8806 15.1664 14.6481 14.0913 13.7966 13.5648C11.7999 12.3301 9.26634 12.3301 7.26963 13.5648Z" stroke="#697586" stroke-width="1.5" stroke-linecap="round" stroke-linejoin="round"/>
<path d="M13.4498 7.22221C13.4498 8.83304 12.144 10.1389 10.5331 10.1389C8.92229 10.1389 7.61646 8.83304 7.61646 7.22221C7.61646 5.61138 8.92229 4.30554 10.5331 4.30554C12.144 4.30554 13.4498 5.61138 13.4498 7.22221Z" stroke="#697586" stroke-width="1.5"/>
</g>
<defs>
<clipPath id="clip0_24100_55505">
<rect width="20" height="20" fill="white" transform="translate(0.533203 0.972656)"/>
</clipPath>
</defs>
</svg>
