<svg width="37" height="37" viewBox="0 0 37 37" fill="none" xmlns="http://www.w3.org/2000/svg">
<rect x="0.367188" y="0.972656" width="36" height="36" rx="18" fill="#9597E9"/>
<path opacity="0.24" fill-rule="evenodd" clip-rule="evenodd" d="M22.7006 15.224C22.7006 14.0734 23.6333 13.1406 24.7839 13.1406C25.9345 13.1406 26.8673 14.0734 26.8673 15.224C26.8673 16.2662 26.1019 17.1297 25.1026 17.2831C25.1004 17.2872 25.0981 17.2914 25.0958 17.2955L23.1847 20.7356C23.4053 21.0661 23.5339 21.4634 23.5339 21.8906C23.5339 23.0412 22.6012 23.974 21.4506 23.974C20.3 23.974 19.3673 23.0412 19.3673 21.8906C19.3673 21.7047 19.3916 21.5244 19.4373 21.3528L17.2243 19.6589C16.9851 19.7546 16.724 19.8073 16.4506 19.8073C16.3284 19.8073 16.2086 19.7968 16.0922 19.7766L12.5684 25.2581C12.3195 25.6452 11.8039 25.7573 11.4167 25.5084C11.0296 25.2595 10.9175 24.744 11.1664 24.3568L14.702 18.857C14.4903 18.5308 14.3673 18.1418 14.3673 17.724C14.3673 16.5734 15.3 15.6406 16.4506 15.6406C17.6012 15.6406 18.5339 16.5734 18.5339 17.724C18.5339 17.9831 18.4866 18.2312 18.4002 18.4601L20.4759 20.0489C20.7667 19.8947 21.0985 19.8073 21.4506 19.8073C21.5625 19.8073 21.6723 19.8161 21.7794 19.8331L23.4507 16.8249C22.9923 16.4427 22.7006 15.8674 22.7006 15.224ZM24.7839 14.599C24.4388 14.599 24.1589 14.8788 24.1589 15.224C24.1589 15.5691 24.4388 15.849 24.7839 15.849C25.1291 15.849 25.4089 15.5691 25.4089 15.224C25.4089 14.8788 25.1291 14.599 24.7839 14.599ZM16.4506 17.099C16.1054 17.099 15.8256 17.3788 15.8256 17.724C15.8256 18.0691 16.1054 18.349 16.4506 18.349C16.7958 18.349 17.0756 18.0691 17.0756 17.724C17.0756 17.3788 16.7958 17.099 16.4506 17.099ZM20.8256 21.8906C20.8256 21.5454 21.1054 21.2656 21.4506 21.2656C21.7958 21.2656 22.0756 21.5454 22.0756 21.8906C22.0756 22.2358 21.7958 22.5156 21.4506 22.5156C21.1054 22.5156 20.8256 22.2358 20.8256 21.8906Z" fill="#141B34"/>
<path fill-rule="evenodd" clip-rule="evenodd" d="M11.0339 10.64C11.4941 10.64 11.8672 11.0131 11.8672 11.4733V20.64C11.8672 22.0385 11.869 23.0035 11.9666 23.7293C12.0609 24.4311 12.2309 24.7833 12.4774 25.0298C12.7239 25.2763 13.0761 25.4463 13.7779 25.5406C14.5037 25.6382 15.4687 25.64 16.8672 25.64H26.0339C26.4941 25.64 26.8672 26.0131 26.8672 26.4733C26.8672 26.9335 26.4941 27.3066 26.0339 27.3066H16.8072C15.4833 27.3067 14.4057 27.3067 13.5558 27.1924C12.6692 27.0732 11.9067 26.8161 11.2989 26.2083C10.6911 25.6005 10.434 24.838 10.3148 23.9514C10.2005 23.1015 10.2005 22.0239 10.2006 20.7L10.2006 11.4733C10.2006 11.0131 10.5737 10.64 11.0339 10.64Z" fill="white"/>
</svg>
