<svg width="37" height="37" viewBox="0 0 37 37" fill="none" xmlns="http://www.w3.org/2000/svg">
<rect x="0.867188" y="0.972656" width="36" height="36" rx="18" fill="#F9978B"/>
<path opacity="0.24" d="M10.5338 15.0456C10.1886 15.0456 9.90881 15.3254 9.90881 15.6706V20.2432V20.2432C9.9088 21.8854 9.90879 23.1838 10.0504 24.1995C10.1963 25.2456 10.5029 26.0836 11.1848 26.7411C11.8634 27.3955 12.7231 27.6871 13.7969 27.8263C14.8456 27.9622 16.1883 27.9622 17.8953 27.9622H19.839C21.546 27.9622 22.8887 27.9622 23.9374 27.8263C25.0112 27.6871 25.8709 27.3955 26.5495 26.7411C27.2313 26.0836 27.538 25.2456 27.6839 24.1995C27.8255 23.1838 27.8255 21.8854 27.8255 20.2432V15.6706C27.8255 15.3254 27.5457 15.0456 27.2005 15.0456H10.5338Z" fill="#141B34"/>
<path d="M27.6796 24.2304C27.5322 23.9163 27.2857 23.473 26.8944 22.9751C26.2196 22.1166 25.2672 21.5414 22.3406 21.5414L22.3406 20.5362C22.3413 20.1276 22.2335 19.7165 21.8368 19.5154C21.302 19.2443 20.8901 19.5876 20.5049 19.9087C20.4839 19.9263 20.4629 19.9437 20.442 19.961C20.3921 20.0024 20.3418 20.0438 20.2914 20.0853C19.8066 20.4844 19.3072 20.8956 18.9388 21.4052C18.7993 21.5982 18.5906 21.9323 18.5906 22.3367C18.5906 22.741 18.7993 23.0751 18.9388 23.2681C19.3072 23.7777 19.8066 24.1889 20.2914 24.588C20.3418 24.6295 20.392 24.6709 20.442 24.7123C20.4572 24.7248 20.4724 24.7375 20.4877 24.7502C20.8762 25.073 21.3037 25.4282 21.8368 25.1579C22.2426 24.9522 22.3411 24.5333 22.3406 24.1185V23.2081C25.0906 23.2081 26.2858 24.4319 26.06 25.8613C25.9302 26.6837 25.3001 27.3563 24.5373 27.7262C25.3374 27.56 26.0024 27.2682 26.5496 26.7405C27.2246 26.0896 27.532 25.2618 27.6796 24.2304Z" fill="white"/>
<path d="M15.9736 10.0456H21.761C22.5135 10.0455 23.143 10.0455 23.6589 10.0993C24.2045 10.1563 24.6978 10.2791 25.1533 10.5704C25.6088 10.8617 25.9167 11.2512 26.1813 11.7125C26.4315 12.1486 26.6736 12.706 26.963 13.3724L27.7627 15.2137C27.8171 15.3387 27.835 15.4696 27.8211 15.5954C27.784 15.2857 27.5203 15.0456 27.2006 15.0456H25.9253L25.4762 14.0118C25.1658 13.297 24.9569 12.8188 24.7544 12.4658C24.5614 12.1296 24.4098 11.9727 24.2498 11.8704C24.0898 11.7681 23.8806 11.6941 23.4828 11.6526C23.0653 11.6091 22.5248 11.608 21.7176 11.608H19.7006V15.0456H18.0339V11.608H16.017C15.2098 11.608 14.6693 11.6091 14.2517 11.6526C13.854 11.6941 13.6447 11.7681 13.4847 11.8704C13.3248 11.9727 13.1731 12.1296 12.9802 12.4658C12.7777 12.8188 12.5688 13.297 12.2583 14.0118L11.8093 15.0456H10.5339C10.2142 15.0456 9.95054 15.2857 9.91341 15.5954C9.89958 15.4696 9.91749 15.3387 9.97179 15.2137L10.7715 13.3724C11.061 12.706 11.303 12.1486 11.5533 11.7125C11.8179 11.2512 12.1258 10.8617 12.5813 10.5704C13.0368 10.2791 13.53 10.1563 14.0756 10.0993C14.5915 10.0455 15.221 10.0455 15.9736 10.0456Z" fill="white"/>
</svg>
