<svg width="37" height="37" viewBox="0 0 37 37" fill="none" xmlns="http://www.w3.org/2000/svg">
<rect x="0.367188" y="0.972656" width="36" height="36" rx="18" fill="#89E386"/>
<path opacity="0.32" fill-rule="evenodd" clip-rule="evenodd" d="M25.9237 18.5497C25.9712 18.4841 25.9712 18.3839 25.9712 18.1834V13.6256C25.9712 13.6012 25.9698 13.5771 25.9671 13.5534C25.9539 13.4391 25.9474 13.382 25.8341 13.3198C25.7208 13.2576 25.6382 13.2976 25.4731 13.3778L23.07 14.5445L20.6357 15.7225C19.0792 16.4757 18.4775 16.7506 17.8462 16.7506C17.2149 16.7506 16.6132 16.4757 15.0567 15.7225L12.6224 14.5445L10.2193 13.3778C10.0541 13.2976 9.97157 13.2576 9.8583 13.3198C9.74503 13.382 9.73846 13.4391 9.72531 13.5534C9.72259 13.5771 9.72119 13.6012 9.72119 13.6256L9.72119 22.51C9.72119 23.4437 10.4023 24.0646 11.2406 24.5677C12.0893 25.0769 13.5137 25.6787 15.0913 26.345C16.2738 26.845 17.0362 27.1673 17.8462 27.1673C18.3621 27.1673 18.8586 27.0365 19.4567 26.8125C19.6835 26.7275 19.7969 26.685 19.8364 26.577C19.8758 26.469 19.8191 26.368 19.7056 26.166C19.695 26.1471 19.6847 26.1292 19.6748 26.1123C19.6435 26.0587 19.6278 26.0319 19.5999 26.0064C19.572 25.9808 19.5338 25.9627 19.4573 25.9266C18.7511 25.5931 18.2629 24.8753 18.2629 24.0422C18.2629 22.8916 19.1956 21.9589 20.3462 21.9589C20.7196 21.9589 20.9974 22.0484 21.1182 22.0878C21.1328 22.0926 21.1475 22.0975 21.1621 22.1026C21.3708 22.1745 21.4751 22.2104 21.5525 22.187C21.6299 22.1636 21.6897 22.0852 21.8093 21.9284L21.8093 21.9284C22.2055 21.4088 22.6607 20.8632 23.1526 20.3702C23.7349 19.7866 24.5007 19.1409 25.3979 18.7778C25.4417 18.76 25.4857 18.7439 25.5299 18.7294L25.5299 18.7294C25.7608 18.6533 25.8763 18.6153 25.9237 18.5497ZM15.2149 11.8021C16.7501 11.0748 17.2881 10.8405 17.8462 10.8405C18.3571 10.8405 18.8511 11.0368 20.1085 11.6278L13.7367 14.7469L12.8414 14.3228C12.1658 14.0027 11.7426 13.8 11.4773 13.6246C11.7426 13.4493 12.1658 13.2465 12.8414 12.9265L15.2149 11.8021ZM15.5839 15.6214L21.9557 12.5023L22.851 12.9265C23.5265 13.2465 23.9498 13.4493 24.2151 13.6246C23.9498 13.8 23.5265 14.0027 22.851 14.3228L20.4775 15.4472C18.9423 16.1745 18.4043 16.4087 17.8462 16.4087C17.3353 16.4087 16.8413 16.2124 15.5839 15.6214Z" fill="#141B34"/>
<path d="M26.9519 20.3965C27.1246 20.8231 26.9188 21.3089 26.4921 21.4816C26.1305 21.628 25.6938 21.953 25.2172 22.4306C24.7514 22.8975 24.2968 23.4598 23.893 24.013C23.4909 24.5639 23.1491 25.092 22.9076 25.483C22.7871 25.6781 22.5978 26.0025 22.5336 26.1127L22.5328 26.114C22.3789 26.3908 22.0813 26.5566 21.7649 26.5416C21.4485 26.5265 21.168 26.3334 21.041 26.0432C20.7155 25.2991 20.427 25.0128 20.2968 24.9137C20.2644 24.889 20.2404 24.8748 20.2261 24.8672C19.8227 24.8091 19.5128 24.462 19.5128 24.0425C19.5128 23.5823 19.8859 23.2092 20.3462 23.2092C20.5187 23.2092 20.6455 23.2487 20.7301 23.2764C20.9009 23.3321 21.0977 23.4286 21.3069 23.588C21.4743 23.7155 21.6456 23.8801 21.8167 24.0912C22.0261 23.7693 22.2729 23.4056 22.5468 23.0303C22.9794 22.4377 23.4899 21.8021 24.0374 21.2534C24.5742 20.7154 25.1991 20.207 25.8668 19.9367C26.2934 19.764 26.7793 19.9699 26.9519 20.3965Z" fill="white"/>
<path fill-rule="evenodd" clip-rule="evenodd" d="M12.2873 17.9296C12.4417 17.6208 12.8171 17.4957 13.1258 17.65L14.7925 18.4834C15.1012 18.6377 15.2264 19.0132 15.072 19.3219C14.9176 19.6306 14.5422 19.7558 14.2335 19.6014L12.5668 18.7681C12.2581 18.6137 12.1329 18.2383 12.2873 17.9296Z" fill="white"/>
<path d="M13.7365 14.7492L20.1083 11.6302L21.9554 12.5046L15.5836 15.6237L13.7365 14.7492Z" fill="white"/>
</svg>
