<svg width="37" height="37" viewBox="0 0 37 37" fill="none" xmlns="http://www.w3.org/2000/svg">
<rect x="0.367188" y="0.972656" width="36" height="36" rx="18" fill="#48BCF1"/>
<path opacity="0.2" d="M9.40881 15.6393C9.40881 15.2941 9.68864 15.0143 10.0338 15.0143H26.7005C27.0457 15.0143 27.3255 15.2941 27.3255 15.6393V20.212C27.3255 21.8541 27.3255 23.1526 27.1839 24.1683C27.038 25.2144 26.7313 26.0524 26.0495 26.7098C25.3709 27.3642 24.5112 27.6558 23.4374 27.795C22.3887 27.931 21.046 27.931 19.339 27.931H17.3953C15.6883 27.931 14.3456 27.931 13.2969 27.795C12.2231 27.6558 11.3634 27.3642 10.6848 26.7098C10.0029 26.0524 9.69625 25.2144 9.5504 24.1683C9.40879 23.1526 9.4088 21.8541 9.40881 20.212V20.2119V15.6393Z" fill="#141B34"/>
<path fill-rule="evenodd" clip-rule="evenodd" d="M15.8672 18.9726C15.8672 18.5124 16.2403 18.1393 16.7005 18.1393H20.0339C20.4941 18.1393 20.8672 18.5124 20.8672 18.9726C20.8672 19.4329 20.4941 19.806 20.0339 19.806H16.7005C16.2403 19.806 15.8672 19.4329 15.8672 18.9726Z" fill="white"/>
<path d="M15.4734 10.0143H21.2609C22.0134 10.0143 22.6429 10.0143 23.1588 10.0681C23.7044 10.125 24.1976 10.2478 24.6531 10.5391C25.1086 10.8304 25.4165 11.22 25.6812 11.6812C25.9314 12.1174 26.1735 12.6748 26.4629 13.3412L27.2626 15.1824C27.3169 15.3074 27.3348 15.4383 27.321 15.5641C27.2839 15.2544 27.0202 15.0143 26.7005 15.0143H25.4251L24.9761 13.9805C24.6656 13.2658 24.4567 12.7876 24.2542 12.4346C24.0613 12.0983 23.9097 11.9415 23.7497 11.8392C23.5897 11.7369 23.3805 11.6629 22.9827 11.6214C22.5652 11.5778 22.0247 11.5768 21.2175 11.5768H19.2005V15.0143H17.5338V11.5768H15.5168C14.7096 11.5768 14.1691 11.5778 13.7516 11.6214C13.3538 11.6629 13.1446 11.7369 12.9846 11.8392C12.8246 11.9415 12.673 12.0983 12.4801 12.4346C12.2776 12.7876 12.0686 13.2658 11.7582 13.9805L11.3092 15.0143H10.0338C9.71408 15.0143 9.45042 15.2544 9.41329 15.5641C9.39945 15.4383 9.41736 15.3074 9.47167 15.1824L10.2714 13.3412C10.5608 12.6748 10.8029 12.1174 11.0531 11.6812C11.3177 11.22 11.6257 10.8304 12.0812 10.5391C12.5366 10.2478 13.0299 10.125 13.5755 10.0681C14.0914 10.0143 14.7209 10.0143 15.4734 10.0143Z" fill="white"/>
</svg>
