<svg width="21" height="21" viewBox="0 0 21 21" fill="none" xmlns="http://www.w3.org/2000/svg">
<g clip-path="url(#clip0_24100_55521)">
<path d="M10.1166 12.649C8.4111 12.5696 6.68607 12.9779 5.18126 13.8739C4.00229 14.5759 0.911088 16.0094 2.79384 17.8031C3.71354 18.6793 4.73786 19.3059 6.02567 19.3059H10.5333" stroke="#697586" stroke-width="1.5" stroke-linecap="round" stroke-linejoin="round"/>
<path d="M13.45 6.38928C13.45 8.46035 11.771 10.1393 9.69995 10.1393C7.62888 10.1393 5.94995 8.46035 5.94995 6.38928C5.94995 4.31821 7.62888 2.63928 9.69995 2.63928C11.771 2.63928 13.45 4.31821 13.45 6.38928Z" stroke="#697586" stroke-width="1.5"/>
<path d="M15.5333 18.2345V19.3059M15.5333 18.2345C14.5693 18.2345 13.72 17.761 13.2219 17.042M15.5333 18.2345C16.4973 18.2345 17.3466 17.761 17.8447 17.042M15.5333 12.8773C16.4973 12.8773 17.3467 13.3509 17.8448 14.07M15.5333 12.8773C14.5692 12.8773 13.7199 13.3509 13.2218 14.07M15.5333 12.8773V11.8059M18.8666 13.4131L17.8448 14.07M12.2003 17.6988L13.2219 17.042M12.2 13.4131L13.2218 14.07M18.8663 17.6988L17.8447 17.042M17.8448 14.07C18.1393 14.4952 18.3111 15.0062 18.3111 15.5559C18.3111 16.1057 18.1393 16.6168 17.8447 17.042M13.2218 14.07C12.9272 14.4952 12.7555 15.0062 12.7555 15.5559C12.7555 16.1057 12.9273 16.6168 13.2219 17.042" stroke="#697586" stroke-width="1.5" stroke-linecap="round"/>
</g>
<defs>
<clipPath id="clip0_24100_55521">
<rect width="20" height="20" fill="white" transform="translate(0.533203 0.972656)"/>
</clipPath>
</defs>
</svg>
