<svg width="37" height="37" viewBox="0 0 37 37" fill="none" xmlns="http://www.w3.org/2000/svg">
<rect x="0.867188" y="0.972656" width="36" height="36" rx="18" fill="#E3AD7F"/>
<path opacity="0.32" fill-rule="evenodd" clip-rule="evenodd" d="M15.5039 22.2562C15.3454 22.2349 15.117 22.2331 14.7006 22.2331H14.2839C13.6711 22.2331 13.2953 22.2349 13.0234 22.2714C12.7843 22.3036 12.7444 22.3493 12.7397 22.3547C12.7395 22.3549 12.7394 22.355 12.7393 22.3551C12.7392 22.3552 12.739 22.3553 12.7388 22.3555C12.7334 22.3602 12.6877 22.4002 12.6556 22.6392C12.619 22.9112 12.6172 23.2869 12.6172 23.8998V26.3998H15.5339V23.0664C15.5339 22.65 15.5321 22.4216 15.5108 22.2631C15.5105 22.261 15.5103 22.259 15.51 22.257C15.508 22.2567 15.506 22.2564 15.5039 22.2562ZM15.726 20.6044C16.0453 20.6473 16.4097 20.7519 16.7124 21.0546C17.0151 21.3573 17.1197 21.7216 17.1626 22.041C17.2007 22.3242 17.2006 22.6677 17.2006 23.0211C17.2006 23.0362 17.2006 23.0513 17.2006 23.0664V27.2331C17.2006 27.6933 16.8275 28.0664 16.3672 28.0664H11.7839C11.3237 28.0664 10.9506 27.6933 10.9506 27.2331V23.8998C10.9506 23.8826 10.9506 23.8655 10.9506 23.8484C10.9505 23.3033 10.9505 22.8135 11.0038 22.4171C11.062 21.9843 11.1971 21.5403 11.5608 21.1766C11.9245 20.8129 12.3685 20.6778 12.8013 20.6196C13.1977 20.5663 13.6875 20.5664 14.2326 20.5664C14.2496 20.5664 14.2667 20.5664 14.2839 20.5664H14.7006C14.7157 20.5664 14.7308 20.5664 14.7459 20.5664C15.0993 20.5663 15.4427 20.5663 15.726 20.6044Z" fill="#141B34"/>
<path opacity="0.32" fill-rule="evenodd" clip-rule="evenodd" d="M22.9886 22.2331C23.0037 22.2331 23.0188 22.2331 23.0339 22.2331H23.4506C23.4678 22.2331 23.4849 22.2331 23.502 22.2331C24.0471 22.233 24.5368 22.233 24.9332 22.2863C25.366 22.3445 25.8101 22.4796 26.1738 22.8433C26.5375 23.207 26.6726 23.651 26.7308 24.0838C26.784 24.4802 26.784 24.97 26.784 25.5151C26.7839 25.5321 26.7839 25.5492 26.7839 25.5664V27.2331C26.7839 27.6933 26.4109 28.0664 25.9506 28.0664H21.3673C20.907 28.0664 20.5339 27.6933 20.5339 27.2331V24.7331C20.5339 24.7179 20.5339 24.7028 20.5339 24.6877C20.5339 24.3343 20.5338 23.9909 20.5719 23.7076C20.6148 23.3883 20.7194 23.0239 21.0221 22.7212C21.3248 22.4186 21.6892 22.3139 22.0085 22.271C22.2918 22.2329 22.6352 22.233 22.9886 22.2331ZM22.2245 23.9237C22.2242 23.9256 22.224 23.9277 22.2237 23.9297C22.2024 24.0882 22.2006 24.3167 22.2006 24.7331V26.3997H25.1173V25.5664C25.1173 24.9536 25.1155 24.5778 25.0789 24.3059C25.0468 24.0668 25.0011 24.0269 24.9957 24.0222C24.9955 24.022 24.9953 24.0219 24.9952 24.0218C24.9952 24.0217 24.995 24.0215 24.9948 24.0213C24.9901 24.0159 24.9502 23.9702 24.7112 23.9381C24.4392 23.9015 24.0634 23.8997 23.4506 23.8997H23.0339C22.6176 23.8997 22.3891 23.9015 22.2306 23.9228C22.2285 23.9231 22.2265 23.9234 22.2245 23.9237Z" fill="#141B34"/>
<path fill-rule="evenodd" clip-rule="evenodd" d="M9.70056 27.2331C9.70056 26.7728 10.0737 26.3997 10.5339 26.3997H27.2006C27.6608 26.3997 28.0339 26.7728 28.0339 27.2331C28.0339 27.6933 27.6608 28.0664 27.2006 28.0664H10.5339C10.0737 28.0664 9.70056 27.6933 9.70056 27.2331Z" fill="white"/>
<path d="M18.8159 18.8998C18.2708 18.8997 17.7811 18.8997 17.3846 18.953C16.9518 19.0111 16.5078 19.1463 16.1441 19.51C15.7804 19.8736 15.6453 20.3177 15.5871 20.7505C15.5338 21.1469 15.5339 21.6366 15.5339 22.1818L15.5339 27.2331C15.5339 27.6933 15.907 28.0664 16.3673 28.0664H21.3673C21.8275 28.0664 22.2006 27.6933 22.2006 27.2331L22.2006 22.1817C22.2007 21.6366 22.2007 21.1469 22.1474 20.7505C22.0892 20.3177 21.9541 19.8736 21.5904 19.51C21.2267 19.1463 20.7827 19.0111 20.3499 18.953C19.9535 18.8997 19.4637 18.8997 18.9186 18.8998H18.8159Z" fill="white"/>
<path opacity="0.32" d="M18.8656 9.94141C19.4256 9.94141 19.8006 10.361 20.0029 10.7707L20.5828 11.9401L20.5876 11.9447C20.5916 11.9483 20.5963 11.9522 20.6015 11.9561C20.6067 11.9599 20.6118 11.9634 20.6165 11.9662L20.6234 11.9701L21.6693 12.1453C22.1195 12.2209 22.6093 12.4622 22.7749 12.9818C22.9403 13.5005 22.6818 13.9809 22.3588 14.3047L22.358 14.3055L21.5448 15.1254C21.542 15.1313 21.5383 15.1404 21.535 15.152C21.5313 15.1649 21.5296 15.1759 21.529 15.1832L21.7618 16.198C21.8668 16.6575 21.8768 17.2958 21.3814 17.66C20.8834 18.026 20.2766 17.8204 19.8723 17.5796L18.8917 16.9943L18.8855 16.9935C18.8801 16.9929 18.8739 16.9925 18.8673 16.9925C18.8607 16.9925 18.8544 16.9929 18.8488 16.9935C18.8451 16.9939 18.842 16.9944 18.8395 16.9949L17.8603 17.5794C17.4545 17.8221 16.8492 18.0245 16.3518 17.6585C15.8575 17.2949 15.8647 16.6586 15.9705 16.1974L16.2031 15.1832C16.2025 15.1759 16.2008 15.1649 16.1971 15.152C16.1938 15.1404 16.1901 15.1313 16.1873 15.1254L15.3726 14.304C15.0516 13.9803 14.7941 13.5006 14.9581 12.9829C15.1228 12.4629 15.6123 12.221 16.0631 12.1452L17.1054 11.9706L17.1114 11.9672C17.1161 11.9643 17.1213 11.9609 17.1266 11.957C17.1318 11.953 17.1366 11.9491 17.1407 11.9453L17.1459 11.9403L17.7262 10.7701L17.7268 10.769C17.9307 10.3599 18.3066 9.94141 18.8656 9.94141Z" fill="#141B34"/>
</svg>
