<svg width="37" height="37" viewBox="0 0 37 37" fill="none" xmlns="http://www.w3.org/2000/svg">
<rect x="0.867188" y="0.972656" width="36" height="36" rx="18" fill="#7FE3CC"/>
<g opacity="0.32">
</g>
<path d="M17.7349 10.562C17.9401 10.3561 18.3276 10.015 18.867 10.015C19.4064 10.015 19.7939 10.3561 19.9991 10.562C20.2479 10.8116 20.4461 11.1847 20.7618 11.3517C21.0228 11.4898 21.3594 11.3557 21.6199 11.2878C21.8682 11.2232 22.2466 11.1253 22.6476 11.1787C22.8218 11.2019 23.0505 11.2573 23.2276 11.4151C23.4374 11.6018 23.4713 11.8343 23.4406 12.0099C23.4033 12.2236 23.2709 12.399 23.141 12.5658L22.3974 13.5232C22.2057 13.7706 22.016 14.0249 21.7613 14.2119C21.5727 14.3505 21.334 14.39 21.0999 14.39H16.6341C16.4001 14.39 16.1614 14.3505 15.9727 14.2119C15.7181 14.0249 15.5283 13.7706 15.3367 13.5232L14.5931 12.5658C14.4631 12.399 14.3308 12.2236 14.2935 12.0099C14.2628 11.8343 14.2966 11.6018 14.5064 11.4151C14.6836 11.2573 14.9122 11.2019 15.0865 11.1787C15.4875 11.1253 15.8659 11.2232 16.1142 11.2878C16.3746 11.3557 16.7112 11.4898 16.9723 11.3517C17.288 11.1847 17.4862 10.8116 17.7349 10.562Z" fill="white"/>
</svg>
