<svg width="21" height="21" viewBox="0 0 21 21" fill="none" xmlns="http://www.w3.org/2000/svg">
<path d="M14.7139 2.31689H6.38053C4.08053 2.31689 2.21387 4.17523 2.21387 6.46689V11.4502V12.2836C2.21387 14.5752 4.08053 16.4336 6.38053 16.4336H7.63053C7.85553 16.4336 8.15553 16.5836 8.2972 16.7669L9.5472 18.4252C10.0972 19.1586 10.9972 19.1586 11.5472 18.4252L12.7972 16.7669C12.9555 16.5586 13.2055 16.4336 13.4639 16.4336H14.7139C17.0139 16.4336 18.8805 14.5752 18.8805 12.2836V6.46689C18.8805 4.17523 17.0139 2.31689 14.7139 2.31689ZM7.21387 10.6502C6.7472 10.6502 6.38053 10.2752 6.38053 9.81689C6.38053 9.35856 6.75553 8.98356 7.21387 8.98356C7.6722 8.98356 8.0472 9.35856 8.0472 9.81689C8.0472 10.2752 7.68053 10.6502 7.21387 10.6502ZM10.5472 10.6502C10.0805 10.6502 9.71387 10.2752 9.71387 9.81689C9.71387 9.35856 10.0889 8.98356 10.5472 8.98356C11.0055 8.98356 11.3805 9.35856 11.3805 9.81689C11.3805 10.2752 11.0139 10.6502 10.5472 10.6502ZM13.8805 10.6502C13.4139 10.6502 13.0472 10.2752 13.0472 9.81689C13.0472 9.35856 13.4222 8.98356 13.8805 8.98356C14.3389 8.98356 14.7139 9.35856 14.7139 9.81689C14.7139 10.2752 14.3472 10.6502 13.8805 10.6502Z" fill="#CBCB24"/>
</svg>
