<svg width="21" height="21" viewBox="0 0 21 21" fill="none" xmlns="http://www.w3.org/2000/svg">
<path d="M17.6513 15.2618C17.6513 15.5243 17.593 15.7941 17.469 16.0566C17.3451 16.3191 17.1846 16.567 16.9732 16.8003C16.6159 17.1941 16.2221 17.4785 15.7773 17.6607C15.3398 17.843 14.8659 17.9378 14.3555 17.9378C13.6117 17.9378 12.8169 17.7628 11.9784 17.4055C11.1398 17.0482 10.3013 16.567 9.47005 15.9618C8.63151 15.3493 7.83672 14.6712 7.07839 13.9201C6.32734 13.1618 5.64922 12.367 5.04401 11.5357C4.44609 10.7045 3.96484 9.87324 3.61484 9.04928C3.26484 8.21803 3.08984 7.42324 3.08984 6.66491C3.08984 6.16908 3.17734 5.69512 3.35234 5.25762C3.52734 4.81283 3.80443 4.40449 4.19089 4.03991C4.65755 3.58053 5.16797 3.35449 5.70755 3.35449C5.91172 3.35449 6.11589 3.39824 6.29818 3.48574C6.48776 3.57324 6.65547 3.70449 6.78672 3.89408L8.47839 6.27845C8.60964 6.46074 8.70443 6.62845 8.77005 6.78887C8.83568 6.94199 8.87214 7.09512 8.87214 7.23366C8.87214 7.40866 8.82109 7.58366 8.71901 7.75137C8.62422 7.91908 8.48568 8.09408 8.31068 8.26907L7.75651 8.84512C7.6763 8.92532 7.63984 9.02012 7.63984 9.13678C7.63984 9.19512 7.64714 9.24616 7.66172 9.30449C7.68359 9.36282 7.70547 9.40657 7.72005 9.45033C7.8513 9.69095 8.07734 10.0045 8.39818 10.3837C8.7263 10.7628 9.0763 11.1493 9.45547 11.5357C9.84922 11.9222 10.2284 12.2795 10.6148 12.6076C10.994 12.9284 11.3076 13.1472 11.5555 13.2785C11.5919 13.293 11.6357 13.3149 11.6867 13.3368C11.7451 13.3587 11.8034 13.3659 11.869 13.3659C11.993 13.3659 12.0878 13.3222 12.168 13.242L12.7221 12.6951C12.9044 12.5128 13.0794 12.3743 13.2471 12.2868C13.4148 12.1847 13.5826 12.1337 13.7648 12.1337C13.9034 12.1337 14.0492 12.1628 14.2096 12.2284C14.3701 12.2941 14.5378 12.3889 14.7201 12.5128L17.1336 14.2264C17.3232 14.3576 17.4544 14.5107 17.5346 14.693C17.6076 14.8753 17.6513 15.0576 17.6513 15.2618Z" fill="#2196F3"/>
</svg>
