<svg width="21" height="21" viewBox="0 0 21 21" fill="none" xmlns="http://www.w3.org/2000/svg">
<path d="M18.5311 10.1589C18.2478 5.32559 13.8561 1.6006 8.79776 2.43394C5.31443 3.00894 2.52277 5.83392 1.9811 9.31725C1.66444 11.3339 2.08112 13.2423 2.98945 14.8173L2.24778 17.5756C2.08111 18.2006 2.65609 18.7673 3.27276 18.5923L5.98943 17.8423C7.22277 18.5673 8.66443 18.9839 10.2061 18.9839C14.9061 18.9839 18.8061 14.8423 18.5311 10.1589ZM14.2811 13.7506C14.2061 13.9006 14.1144 14.0423 13.9978 14.1756C13.7894 14.4006 13.5644 14.5673 13.3144 14.6673C13.0644 14.7756 12.7894 14.8256 12.4978 14.8256C12.0728 14.8256 11.6144 14.7256 11.1394 14.5173C10.6561 14.3089 10.1811 14.0339 9.70612 13.6923C9.22279 13.3423 8.77277 12.9506 8.33944 12.5256C7.90611 12.0923 7.52275 11.6339 7.17275 11.1589C6.83109 10.6839 6.5561 10.2089 6.3561 9.73392C6.1561 9.25892 6.05612 8.8006 6.05612 8.36727C6.05612 8.08393 6.10611 7.80893 6.20611 7.55893C6.30611 7.3006 6.46446 7.06727 6.68946 6.85893C6.95612 6.59227 7.24777 6.46727 7.55611 6.46727C7.67277 6.46727 7.78942 6.49226 7.89775 6.54226C8.00608 6.59226 8.10611 6.66726 8.18111 6.7756L9.14775 8.14225C9.22275 8.25058 9.28109 8.34225 9.31443 8.43392C9.35609 8.52559 9.37277 8.60892 9.37277 8.69225C9.37277 8.79225 9.33944 8.89227 9.28111 8.99227C9.22278 9.09227 9.14775 9.19225 9.04775 9.29225L8.73108 9.62558C8.68108 9.67558 8.66445 9.72559 8.66445 9.79226C8.66445 9.82559 8.67275 9.85892 8.68108 9.89225C8.69775 9.92559 8.70612 9.95059 8.71445 9.97559C8.78945 10.1173 8.92276 10.2922 9.10609 10.5089C9.29776 10.7256 9.49779 10.9506 9.71446 11.1673C9.93946 11.3923 10.1561 11.5922 10.3811 11.7839C10.5978 11.9672 10.7811 12.0923 10.9228 12.1673C10.9478 12.1756 10.9728 12.1922 10.9978 12.2006C11.0311 12.2172 11.0644 12.2173 11.1061 12.2173C11.1811 12.2173 11.2311 12.1923 11.2811 12.1423L11.5978 11.8256C11.7061 11.7173 11.8061 11.6423 11.8978 11.5923C11.9978 11.5339 12.0894 11.5006 12.1978 11.5006C12.2811 11.5006 12.3644 11.5173 12.4561 11.5589C12.5478 11.6006 12.6478 11.6506 12.7478 11.7256L14.1311 12.7089C14.2395 12.7839 14.3144 12.8756 14.3644 12.9756C14.4061 13.0839 14.4311 13.1839 14.4311 13.3006C14.3811 13.4423 14.3478 13.6006 14.2811 13.7506Z" fill="#48C857"/>
</svg>
