<svg width="37" height="37" viewBox="0 0 37 37" fill="none" xmlns="http://www.w3.org/2000/svg">
<rect x="0.234375" y="0.650391" width="36" height="36" rx="18" fill="#1C76BC"/>
<path d="M16.5684 20.3171L25.735 11.1504" stroke="white" stroke-width="1.66667" stroke-linecap="round" stroke-linejoin="round"/>
<path d="M25.7342 11.1504L20.3175 26.1504C20.281 26.2302 20.2223 26.2978 20.1484 26.3452C20.0745 26.3926 19.9886 26.4178 19.9009 26.4178C19.8131 26.4178 19.7272 26.3926 19.6533 26.3452C19.5795 26.2978 19.5208 26.2302 19.4842 26.1504L16.5675 20.3171L10.7342 17.4004C10.6544 17.3638 10.5868 17.3051 10.5394 17.2313C10.492 17.1574 10.4668 17.0715 10.4668 16.9837C10.4668 16.896 10.492 16.81 10.5394 16.7362C10.5868 16.6623 10.6544 16.6036 10.7342 16.5671L25.7342 11.1504Z" stroke="white" stroke-width="1.66667" stroke-linecap="round" stroke-linejoin="round"/>
</svg>
