<svg width="25" height="25" viewBox="0 0 25 25" fill="none" xmlns="http://www.w3.org/2000/svg">
<path d="M22.0862 12.6504C22.0862 18.173 17.6088 22.6504 12.0857 22.6504H12.067C6.5527 22.64 2.08569 18.1656 2.08569 12.6504C2.08569 7.13514 6.5527 2.66025 12.067 2.65039H12.0857C17.6088 2.65039 22.0862 7.12627 22.0862 12.6504Z" fill="black"/>
<path d="M12.067 2.65039V22.6504C6.5527 22.64 2.08569 18.1656 2.08569 12.6504C2.08569 7.13514 6.5527 2.66025 12.067 2.65039Z" fill="#0C0C0C"/>
<path d="M17.5269 9.88199L17.5146 11.9307C17.1153 11.9258 16.7182 11.8725 16.3318 11.772C15.7357 11.6163 15.1735 11.3518 14.6734 10.9918C14.6734 11.2013 14.6764 11.5137 14.6764 11.8937C14.6764 12.3994 14.6764 12.6867 14.6734 12.9917C14.6645 14.8763 14.7114 15.241 14.5458 15.9862C14.5113 16.1659 14.4642 16.3429 14.4048 16.516C14.0865 17.4031 13.3926 18.1137 12.6853 18.4917C12.488 18.5966 12.2808 18.682 12.0668 18.7465C10.7303 19.1516 9.12416 18.7958 8.29522 17.8101L8.2898 17.8042L8.28339 17.7958C7.57914 16.9462 7.42538 15.6215 7.41059 15.2824C7.41059 15.239 7.40763 15.1967 7.40763 15.1967C7.39679 14.7335 7.46341 14.2718 7.60477 13.8305C7.74769 13.3742 8.21834 12.4215 9.27546 11.843C9.93475 11.4878 10.6873 11.3438 11.4311 11.4305L11.4069 13.5038C11.3651 13.4929 10.3523 13.2529 9.68746 13.9429C9.08523 14.5678 9.12416 15.5747 9.55144 16.1449C9.57411 16.1754 9.59826 16.205 9.62339 16.2326C9.86242 16.4992 10.1655 16.5993 10.37 16.6692C10.6412 16.7586 10.9259 16.8003 11.2113 16.7924C11.5171 16.7877 11.8145 16.6921 12.0659 16.5179C12.7607 16.0458 12.8544 15.205 12.8578 15.1572C12.8493 12.4506 12.8412 9.744 12.8337 7.03738V7.03491L14.1362 7.01175H14.1574L14.3462 7.0083C14.4854 7.50919 14.7213 7.97798 15.0406 8.38822C15.1412 8.51654 15.2498 8.63835 15.3658 8.75292C15.8042 9.17955 16.3307 9.5049 16.9084 9.70605H16.9123C17.1127 9.77928 17.3181 9.83808 17.5269 9.88199Z" fill="#FD2854"/>
<path d="M16.938 10.8091H16.934C16.2326 10.9215 15.5145 10.8669 14.838 10.6499C14.3657 10.4963 13.9223 10.265 13.5261 9.96536C13.7637 11.4012 13.7637 12.8664 13.5261 14.3023C13.2447 15.9897 13.0683 17.0473 12.1265 17.724C12.1068 17.7383 12.0866 17.7526 12.0663 17.7659C10.7658 18.6465 8.94871 18.2094 8.2829 17.7949L8.27304 17.789L8.25431 17.7772C8.03485 17.6318 7.82899 17.4669 7.63926 17.2844C7.29915 16.9544 7.02775 16.5604 6.84073 16.1251C6.65371 15.6897 6.55477 15.2216 6.54962 14.7478C6.53696 14.257 6.61843 13.7683 6.78963 13.3082C6.90051 13.0125 7.31252 11.9608 8.46032 11.3206C9.1953 10.9176 10.0446 10.7739 10.8712 10.9126C10.868 11.0769 10.8648 11.2411 10.8619 11.4054V11.4089L10.8427 12.4487C10.4829 12.3639 10.1111 12.3433 9.74414 12.3876C9.44844 12.4241 9.15866 12.4581 8.85064 12.6518C8.45615 12.9057 8.17695 13.3042 8.07295 13.7616C8.00714 13.9832 7.99364 14.217 8.03353 14.4447C8.04535 14.5097 8.13209 14.9617 8.49679 15.2859C8.6195 15.3949 8.67174 15.3993 8.85064 15.5664C9.00834 15.7142 9.04777 15.7852 9.19217 15.9079C9.19217 15.9079 9.22765 15.938 9.28581 15.9803C9.28954 15.9836 9.29349 15.9865 9.29763 15.9892C9.37716 16.0474 9.46065 16.0999 9.5475 16.1464C9.90874 16.3357 10.5553 16.3559 11.0294 16.1257C11.6854 15.8069 12.0432 15.0735 12.0417 14.6379C12.0338 11.9303 12.0258 9.22283 12.0176 6.51555H12.0629L14.0746 6.50372C14.0732 6.66064 14.0949 6.81692 14.1392 6.96748C14.1441 6.98374 14.149 6.99902 14.1545 7.01676C14.1599 7.0345 14.1633 7.04288 14.1678 7.0552C14.199 7.1371 14.235 7.21708 14.2757 7.29471L14.3038 7.35139V7.35583C14.3033 7.3571 14.3033 7.35849 14.3038 7.35977L14.3082 7.36913L14.3127 7.378C14.3153 7.38373 14.3183 7.38933 14.3215 7.39476C14.3245 7.40117 14.3279 7.40757 14.3314 7.41398C14.3501 7.44996 14.3757 7.49727 14.4048 7.55049C14.4231 7.58351 14.4423 7.61653 14.462 7.64906L14.4832 7.68405C14.4935 7.70179 14.5044 7.71953 14.5152 7.73678L14.5546 7.79937C14.7079 8.04135 14.977 8.44892 15.3584 8.75694C15.8946 9.18964 16.5107 9.31186 16.8971 9.34833C16.8995 9.46957 16.9025 9.59081 16.9049 9.71204C16.9194 10.078 16.9304 10.4437 16.938 10.8091Z" fill="#24F6FA"/>
<path d="M16.9444 11.3882C15.9289 11.4255 14.9319 11.1097 14.123 10.4947V14.8316C14.1131 14.9977 13.9677 16.8295 12.3128 17.8379C12.231 17.8871 12.1487 17.933 12.0664 17.9754C10.5095 18.7698 8.98819 18.1474 8.83787 18.0828C8.68841 18.0339 8.54518 17.9678 8.41108 17.8857C8.36919 17.8595 8.32829 17.8324 8.28935 17.8043L8.25436 17.7782C7.23913 17.0074 7.19724 15.4373 7.19084 15.2057C7.17999 14.7425 7.24662 14.2807 7.38797 13.8395C7.55553 13.3048 8.05575 12.4034 9.05866 11.852C9.61205 11.5508 10.234 11.398 10.8639 11.4084V11.4119C10.8557 11.9326 10.8475 12.4535 10.8393 12.9746C10.7333 12.946 10.0837 12.7824 9.44898 13.1821C9.0545 13.436 8.77529 13.8345 8.6713 14.2919C8.60907 14.514 8.59562 14.7468 8.63187 14.9745C8.68815 15.2557 8.82081 15.5159 9.01529 15.7266C9.09705 15.8207 9.18839 15.9061 9.28783 15.9814C9.29156 15.9846 9.29551 15.9876 9.29965 15.9902C9.37774 16.0505 9.46141 16.1031 9.54952 16.1475L9.55248 16.1499C9.72859 16.4159 9.98262 16.6208 10.2798 16.7368C10.5769 16.8527 10.9026 16.8739 11.2123 16.7975C11.3566 16.7674 11.4967 16.7201 11.6298 16.6565C11.7908 16.5799 11.9385 16.4777 12.0669 16.3539C12.5656 15.8744 12.6386 15.2111 12.642 15.1712L12.6203 7.04489L12.8372 7.04046L14.1397 7.01483H14.1585C14.1634 7.02765 14.1688 7.04046 14.1742 7.05327C14.2043 7.12572 14.2403 7.20605 14.2822 7.29279L14.3102 7.34946V7.3539C14.3098 7.35517 14.3098 7.35657 14.3102 7.35784L14.3147 7.3672L14.3191 7.37608C14.3218 7.38181 14.3248 7.3874 14.328 7.39283C14.3309 7.39924 14.3344 7.40565 14.3378 7.41205C14.3605 7.45641 14.3871 7.50224 14.4113 7.54857C14.4295 7.58159 14.4487 7.6146 14.4684 7.64713L14.4896 7.68212L14.5217 7.73486L14.5611 7.79744C14.7865 8.15003 15.0567 8.4719 15.3649 8.75501C15.8147 9.16679 16.338 9.49014 16.9075 9.70814H16.9114C16.9178 10.0733 16.9242 10.4395 16.9301 10.8047L16.9444 11.3882Z" fill="white"/>
<path opacity="0.17" d="M17.5271 9.88207L17.5148 11.9308C17.1155 11.9259 16.7184 11.8726 16.332 11.7721C15.7359 11.6163 15.1736 11.3519 14.6736 10.9919C14.6736 11.2014 14.6765 11.5138 14.6765 11.8938C14.6765 12.3994 14.6765 12.6868 14.6736 12.9918C14.6647 14.8764 14.7115 15.2411 14.5459 15.9863C14.5115 16.1659 14.4644 16.343 14.405 16.516C14.0866 17.4031 13.3927 18.1138 12.6855 18.4918C12.4882 18.5967 12.281 18.6821 12.067 18.7466V6.51555L14.0787 6.50372C14.0773 6.66064 14.0991 6.81692 14.1433 6.96748C14.1482 6.98374 14.1532 6.99902 14.1586 7.01676L14.3473 7.01331C14.4865 7.5142 14.7224 7.98299 15.0417 8.39323C15.1423 8.52155 15.251 8.64335 15.367 8.75792C15.9032 9.19063 16.5192 9.31285 16.9056 9.34932C16.9081 9.47056 16.911 9.59179 16.9135 9.71303C17.1137 9.78388 17.3188 9.84036 17.5271 9.88207Z" fill="black"/>
</svg>
