<svg width="25" height="25" viewBox="0 0 25 25" fill="none" xmlns="http://www.w3.org/2000/svg">
<path d="M22.6443 12.7099C22.6443 7.18705 18.1672 2.7099 12.6443 2.7099C7.1215 2.7099 2.64435 7.18705 2.64435 12.7099C2.64435 18.2327 7.1215 22.7099 12.6443 22.7099C18.1672 22.7099 22.6443 18.2327 22.6443 12.7099Z" fill="url(#paint0_linear_24232_2957)"/>
<path opacity="0.1" d="M20.1708 6.13101C18.7129 8.80733 16.6511 11.5679 14.0747 14.1442C11.4984 16.7205 8.7379 18.7784 6.06553 20.2363C5.89799 20.0907 5.73527 19.9389 5.57738 19.781C4.62298 18.8585 3.86179 17.7552 3.33821 16.5354C2.81463 15.3156 2.53913 14.0038 2.52777 12.6765C2.51641 11.3492 2.76943 10.0329 3.27206 8.80432C3.77469 7.57578 4.51688 6.4596 5.45535 5.52086C6.39382 4.58213 7.50979 3.83963 8.7382 3.33665C9.9666 2.83368 11.2828 2.5803 12.6102 2.59129C13.9375 2.60227 15.2494 2.87741 16.4693 3.40065C17.6892 3.92389 18.7927 4.68476 19.7155 5.63891C19.8734 5.7968 20.0252 5.96084 20.1708 6.13101Z" fill="white"/>
<path d="M15.013 7.44672H10.2761C9.50841 7.44672 8.77213 7.7517 8.22926 8.29456C7.68639 8.83743 7.38141 9.57372 7.38141 10.3415V15.0783C7.38141 15.846 7.68639 16.5823 8.22926 17.1252C8.77213 17.6681 9.50841 17.973 10.2761 17.973H15.013C15.7807 17.973 16.517 17.6681 17.0599 17.1252C17.6027 16.5823 17.9077 15.846 17.9077 15.0783V10.3415C17.9077 9.57372 17.6027 8.83743 17.0599 8.29456C16.517 7.7517 15.7807 7.44672 15.013 7.44672ZM16.9867 14.6625C16.9867 15.2962 16.7349 15.904 16.2868 16.3521C15.8387 16.8002 15.2309 17.052 14.5972 17.052H10.6919C10.0582 17.052 9.45044 16.8002 9.00232 16.3521C8.55421 15.904 8.30246 15.2962 8.30246 14.6625V10.7572C8.30246 10.1235 8.55421 9.51574 9.00232 9.06763C9.45044 8.61952 10.0582 8.36777 10.6919 8.36777H14.5972C15.2309 8.36777 15.8387 8.61952 16.2868 9.06763C16.7349 9.51574 16.9867 10.1235 16.9867 10.7572V14.6625Z" fill="white"/>
<path d="M14.5642 10.8096L14.5392 10.7846L14.5181 10.7636C14.0206 10.2678 13.3468 9.98954 12.6444 9.98987C12.2897 9.99228 11.939 10.0645 11.6123 10.2026C11.2855 10.3406 10.9892 10.5416 10.7401 10.7942C10.4911 11.0467 10.2943 11.3459 10.1609 11.6745C10.0275 12.0032 9.96024 12.3549 9.96284 12.7096C9.9623 13.4294 10.246 14.1203 10.7523 14.632C11.0003 14.883 11.2958 15.0821 11.6216 15.2176C11.9473 15.3532 12.2968 15.4225 12.6497 15.4214C13.1789 15.4103 13.6935 15.2455 14.1307 14.9469C14.5679 14.6484 14.9087 14.2291 15.1117 13.7402C15.3146 13.2513 15.371 12.7138 15.2737 12.1935C15.1765 11.6731 14.93 11.1923 14.5642 10.8096ZM12.6444 14.4938C12.2905 14.4988 11.9431 14.3984 11.6464 14.2054C11.3498 14.0123 11.1172 13.7354 10.9783 13.4099C10.8394 13.0843 10.8005 12.7248 10.8665 12.3771C10.9325 12.0294 11.1004 11.7091 11.3489 11.4571C11.5974 11.2051 11.9153 11.0326 12.262 10.9617C12.6088 10.8908 12.9688 10.9247 13.2963 11.059C13.6238 11.1932 13.9039 11.4219 14.1011 11.7158C14.2983 12.0097 14.4036 12.3557 14.4036 12.7096C14.4054 12.9423 14.3612 13.173 14.2737 13.3887C14.1863 13.6043 14.0571 13.8006 13.8938 13.9663C13.7304 14.132 13.536 14.2638 13.3216 14.3544C13.1072 14.4449 12.8771 14.4923 12.6444 14.4938Z" fill="white"/>
<path d="M16.1223 9.86471C16.1229 9.94914 16.107 10.0329 16.0753 10.1111C16.0436 10.1894 15.9967 10.2606 15.9374 10.3208C15.8782 10.3809 15.8076 10.4287 15.7298 10.4616C15.652 10.4944 15.5685 10.5116 15.4841 10.5121C15.4004 10.512 15.3175 10.4954 15.2402 10.4631C15.163 10.4308 15.0929 10.3835 15.0341 10.3239C14.945 10.2335 14.8843 10.1189 14.8597 9.99428C14.8351 9.8697 14.8476 9.74064 14.8957 9.62309C14.9437 9.50555 15.0252 9.4047 15.13 9.33304C15.2349 9.26138 15.3584 9.22206 15.4854 9.21997C15.634 9.21994 15.7779 9.2721 15.892 9.36734L15.9051 9.3805C15.9264 9.39777 15.9458 9.41717 15.963 9.43839L15.9775 9.45418C16.0717 9.57021 16.1228 9.71526 16.1223 9.86471Z" fill="white"/>
<defs>
<linearGradient id="paint0_linear_24232_2957" x1="5.5733" y1="5.63885" x2="19.7154" y2="19.781" gradientUnits="userSpaceOnUse">
<stop stop-color="#FAE100"/>
<stop offset="0.15" stop-color="#FCB720"/>
<stop offset="0.3" stop-color="#FF7950"/>
<stop offset="0.5" stop-color="#FF1C74"/>
<stop offset="1" stop-color="#6C1CD1"/>
</linearGradient>
</defs>
</svg>
