<svg width="17" height="16" viewBox="0 0 17 16" fill="none" xmlns="http://www.w3.org/2000/svg">
<path d="M8.83008 0C4.41892 0 0.830078 3.58885 0.830078 8C0.830078 12.4112 4.41892 16 8.83008 16C13.2412 16 16.8301 12.4112 16.8301 8C16.8301 3.58885 13.2412 0 8.83008 0ZM11.7266 10.0265C11.7862 10.0831 11.8338 10.151 11.8667 10.2263C11.8996 10.3016 11.917 10.3827 11.9181 10.4648C11.9191 10.5469 11.9037 10.6284 11.8728 10.7045C11.8418 10.7806 11.796 10.8497 11.7379 10.9078C11.6798 10.9659 11.6107 11.0118 11.5346 11.0427C11.4585 11.0737 11.377 11.0891 11.2949 11.088C11.2127 11.087 11.1317 11.0695 11.0564 11.0366C10.9811 11.0037 10.9132 10.9561 10.8566 10.8965L8.83008 8.87039L6.80354 10.8965C6.68719 11.0071 6.53227 11.0678 6.3718 11.0657C6.21133 11.0637 6.05802 10.999 5.94454 10.8855C5.83106 10.7721 5.7664 10.6187 5.76435 10.4583C5.76229 10.2978 5.823 10.1429 5.93354 10.0265L7.95969 8L5.93354 5.97346C5.823 5.85712 5.76229 5.70219 5.76435 5.54172C5.7664 5.38126 5.83106 5.22794 5.94454 5.11446C6.05802 5.00098 6.21133 4.93632 6.3718 4.93427C6.53227 4.93221 6.68719 4.99293 6.80354 5.10346L8.83008 7.12962L10.8566 5.10346C10.973 4.99293 11.1279 4.93221 11.2884 4.93427C11.4488 4.93632 11.6021 5.00098 11.7156 5.11446C11.8291 5.22794 11.8938 5.38126 11.8958 5.54172C11.8979 5.70219 11.8372 5.85712 11.7266 5.97346L9.70046 8L11.7266 10.0265Z" fill="#9AA4B2"/>
</svg>
