<svg width="33" height="33" viewBox="0 0 33 33" fill="none" xmlns="http://www.w3.org/2000/svg">
<rect x="6.61719" y="6.63013" width="20" height="20" rx="10" fill="url(#paint0_linear_24100_57094)"/>
<g clip-path="url(#clip0_24100_57094)">
<path d="M16.6172 10.0676C12.9986 10.0676 10.0547 13.0116 10.0547 16.6301C10.0547 20.2487 12.9986 23.1926 16.6172 23.1926C20.2358 23.1926 23.1797 20.2487 23.1797 16.6301C23.1797 13.0116 20.2358 10.0676 16.6172 10.0676ZM21.866 14.4426H19.516C19.3096 13.1132 18.9172 12.0014 18.397 11.2319C19.9647 11.7501 21.2332 12.9302 21.866 14.4426ZM18.8047 16.6301C18.8047 17.0885 18.7814 17.5257 18.7416 17.9426H14.4928C14.453 17.5257 14.4297 17.0885 14.4297 16.6301C14.4297 16.1717 14.453 15.7346 14.4928 15.3176H18.7415C18.7814 15.7346 18.8047 16.1717 18.8047 16.6301ZM16.6172 22.3176C15.8273 22.3176 14.9701 20.9534 14.6081 18.8176H18.6263C18.2643 20.9534 17.4071 22.3176 16.6172 22.3176ZM14.6081 14.4426C14.9701 12.3069 15.8273 10.9426 16.6172 10.9426C17.4071 10.9426 18.2643 12.3069 18.6263 14.4426H14.6081ZM14.8373 11.2319C14.3171 12.0015 13.9247 13.1132 13.7184 14.4426H11.3684C12.0011 12.9302 13.2697 11.7501 14.8373 11.2319ZM11.0886 15.3176H13.6131C13.5761 15.7399 13.5547 16.1772 13.5547 16.6301C13.5547 17.083 13.5761 17.5203 13.6132 17.9426H11.0886C10.9884 17.5204 10.9297 17.0825 10.9297 16.6301C10.9297 16.1778 10.9884 15.7398 11.0886 15.3176ZM11.3684 18.8176H13.7183C13.9247 20.1471 14.317 21.2589 14.8372 22.0283C13.2695 21.5101 12.0011 20.3301 11.3684 18.8176ZM18.397 22.0283C18.9172 21.2588 19.3097 20.1471 19.516 18.8176H21.8659C21.2332 20.3301 19.9648 21.5101 18.397 22.0283ZM22.1458 17.9426H19.6212C19.6582 17.5203 19.6797 17.083 19.6797 16.6301C19.6797 16.1772 19.6582 15.7399 19.6212 15.3176H22.1457C22.246 15.7398 22.3046 16.1778 22.3046 16.6301C22.3046 17.0825 22.246 17.5204 22.1458 17.9426Z" fill="white"/>
</g>
<defs>
<linearGradient id="paint0_linear_24100_57094" x1="16.6172" y1="6.63013" x2="16.6172" y2="26.6301" gradientUnits="userSpaceOnUse">
<stop stop-color="#01F1FE"/>
<stop offset="1" stop-color="#4FADFE"/>
</linearGradient>
<clipPath id="clip0_24100_57094">
<rect width="14" height="14" fill="white" transform="translate(9.61719 9.63013)"/>
</clipPath>
</defs>
</svg>
