<svg width="25" height="24" viewBox="0 0 25 24" fill="none" xmlns="http://www.w3.org/2000/svg">
<path d="M10.0801 12C10.0801 12.7293 10.3698 13.4288 10.8855 13.9445C11.4013 14.4603 12.1007 14.75 12.8301 14.75C13.5594 14.75 14.2589 14.4603 14.7746 13.9445C15.2903 13.4288 15.5801 12.7293 15.5801 12C15.5801 11.2707 15.2903 10.5712 14.7746 10.0555C14.2589 9.53973 13.5594 9.25 12.8301 9.25C12.1007 9.25 11.4013 9.53973 10.8855 10.0555C10.3698 10.5712 10.0801 11.2707 10.0801 12Z" stroke="#697586" stroke-width="1.5" stroke-linecap="round" stroke-linejoin="round"/>
<path d="M5.49707 11.9993C5.49707 13.9443 6.26969 15.8095 7.64495 17.1848C9.02022 18.5601 10.8855 19.3327 12.8304 19.3327C14.7753 19.3327 16.6406 18.5601 18.0159 17.1848C19.3911 15.8095 20.1637 13.9443 20.1637 11.9993C20.1637 10.0544 19.3911 8.18917 18.0159 6.8139C16.6406 5.43863 14.7753 4.66602 12.8304 4.66602C10.8855 4.66602 9.02022 5.43863 7.64495 6.8139C6.26969 8.18917 5.49707 10.0544 5.49707 11.9993Z" stroke="#697586" stroke-width="1.5" stroke-linecap="round" stroke-linejoin="round"/>
<path d="M12.8301 2.83398V4.66732" stroke="#697586" stroke-width="1.5" stroke-linecap="round" stroke-linejoin="round"/>
<path d="M12.8301 19.334V21.1673" stroke="#697586" stroke-width="1.5" stroke-linecap="round" stroke-linejoin="round"/>
<path d="M20.1631 12H21.9964" stroke="#697586" stroke-width="1.5" stroke-linecap="round" stroke-linejoin="round"/>
<path d="M3.66309 12H5.49642" stroke="#697586" stroke-width="1.5" stroke-linecap="round" stroke-linejoin="round"/>
</svg>
