<svg width="33" height="33" viewBox="0 0 33 33" fill="none" xmlns="http://www.w3.org/2000/svg">
<path d="M26.6177 16.6301C26.6177 22.1528 22.1403 26.6301 16.6172 26.6301H16.5985C11.0842 26.6198 6.61719 22.1454 6.61719 16.6301C6.61719 11.1149 11.0842 6.63998 16.5985 6.63013H16.6172C22.1403 6.63013 26.6177 11.106 26.6177 16.6301Z" fill="black"/>
<path d="M16.5985 6.63013V26.6301C11.0842 26.6198 6.61719 22.1454 6.61719 16.6301C6.61719 11.1149 11.0842 6.63998 16.5985 6.63013Z" fill="#0C0C0C"/>
<path d="M22.0589 13.8617L22.0466 15.9104C21.6473 15.9055 21.2502 15.8522 20.8638 15.7517C20.2677 15.596 19.7054 15.3315 19.2054 14.9716C19.2054 15.181 19.2084 15.4935 19.2084 15.8735C19.2084 16.3791 19.2084 16.6664 19.2054 16.9715C19.1965 18.8561 19.2433 19.2208 19.0778 19.9659C19.0433 20.1456 18.9962 20.3226 18.9368 20.4957C18.6184 21.3828 17.9245 22.0935 17.2173 22.4715C17.02 22.5764 16.8128 22.6617 16.5988 22.7262C15.2623 23.1314 13.6561 22.7755 12.8272 21.7899L12.8218 21.784L12.8154 21.7756C12.1111 20.9259 11.9574 19.6012 11.9426 19.2621C11.9426 19.2188 11.9396 19.1764 11.9396 19.1764C11.9288 18.7132 11.9954 18.2515 12.1367 17.8103C12.2797 17.3539 12.7503 16.4013 13.8074 15.8227C14.4667 15.4675 15.2192 15.3235 15.9631 15.4102L15.9389 17.4835C15.897 17.4727 14.8843 17.2327 14.2194 17.9226C13.6172 18.5475 13.6561 19.5544 14.0834 20.1246C14.1061 20.1552 14.1302 20.1847 14.1554 20.2123C14.3944 20.4789 14.6975 20.579 14.902 20.649C15.1732 20.7383 15.4578 20.78 15.7433 20.7722C16.049 20.7674 16.3465 20.6719 16.5978 20.4977C17.2927 20.0255 17.3864 19.1848 17.3898 19.137C17.3813 16.4304 17.3732 13.7237 17.3657 11.0171V11.0146L18.6682 10.9915H18.6894L18.8782 10.988C19.0173 11.4889 19.2532 11.9577 19.5726 12.368C19.6732 12.4963 19.7818 12.6181 19.8978 12.7327C20.3362 13.1593 20.8627 13.4846 21.4404 13.6858H21.4443C21.6447 13.759 21.8501 13.8178 22.0589 13.8617Z" fill="#FD2854"/>
<path d="M21.4697 14.7888H21.4658C20.7643 14.9012 20.0462 14.8467 19.3698 14.6296C18.8974 14.4761 18.454 14.2447 18.0578 13.9451C18.2954 15.381 18.2954 16.8461 18.0578 18.282C17.7764 19.9694 17.6 21.0271 16.6582 21.7037C16.6385 21.718 16.6183 21.7323 16.5981 21.7456C15.2975 22.6263 13.4804 22.1891 12.8146 21.7747L12.8048 21.7688L12.7861 21.7569C12.5666 21.6115 12.3607 21.4466 12.171 21.2641C11.8309 20.9342 11.5595 20.5402 11.3725 20.1048C11.1854 19.6694 11.0865 19.2013 11.0814 18.7275C11.0687 18.2367 11.1502 17.7481 11.3214 17.288C11.4323 16.9923 11.8443 15.9406 12.9921 15.3004C13.727 14.8974 14.5763 14.7536 15.403 14.8923C15.3997 15.0566 15.3966 15.2209 15.3936 15.3851V15.3886L15.3744 16.4285C15.0147 16.3437 14.6428 16.323 14.2759 16.3673C13.9802 16.4038 13.6904 16.4378 13.3824 16.6315C12.9879 16.8854 12.7087 17.2839 12.6047 17.7414C12.5389 17.9629 12.5254 18.1967 12.5653 18.4244C12.5771 18.4895 12.6638 18.9414 13.0285 19.2657C13.1512 19.3746 13.2035 19.379 13.3824 19.5461C13.5401 19.6939 13.5795 19.7649 13.7239 19.8876C13.7239 19.8876 13.7594 19.9177 13.8175 19.9601C13.8213 19.9633 13.8252 19.9663 13.8294 19.9689C13.9089 20.0271 13.9924 20.0796 14.0792 20.1262C14.4405 20.3154 15.0871 20.3356 15.5612 20.1055C16.2171 19.7866 16.5749 19.0533 16.5734 18.6176C16.5656 15.91 16.5575 13.2026 16.5493 10.4953H16.5946L18.6064 10.4835C18.6049 10.6404 18.6267 10.7967 18.6709 10.9472C18.6759 10.9635 18.6808 10.9788 18.6862 10.9965C18.6916 11.0142 18.6951 11.0226 18.6995 11.0349C18.7307 11.1168 18.7668 11.1968 18.8074 11.2745L18.8355 11.3311V11.3356C18.8351 11.3368 18.8351 11.3382 18.8355 11.3395L18.84 11.3489L18.8444 11.3577C18.8471 11.3635 18.85 11.3691 18.8533 11.3745C18.8562 11.3809 18.8597 11.3873 18.8631 11.3937C18.8819 11.4297 18.9075 11.477 18.9366 11.5302C18.9548 11.5632 18.974 11.5963 18.9937 11.6288L19.0149 11.6638C19.0253 11.6815 19.0361 11.6993 19.047 11.7165L19.0864 11.7791C19.2397 12.0211 19.5087 12.4287 19.8902 12.7367C20.4264 13.1694 21.0424 13.2916 21.4288 13.3281C21.4313 13.4493 21.4342 13.5705 21.4367 13.6918C21.4511 14.0578 21.4621 14.4235 21.4697 14.7888Z" fill="#24F6FA"/>
<path d="M21.4754 15.3679C20.4599 15.4052 19.4629 15.0895 18.654 14.4744V18.8113C18.6441 18.9774 18.4987 20.8093 16.8438 21.8176C16.762 21.8669 16.6797 21.9127 16.5974 21.9551C15.0406 22.7495 13.5192 22.1271 13.3689 22.0625C13.2194 22.0137 13.0762 21.9475 12.9421 21.8654C12.9002 21.8393 12.8593 21.8122 12.8204 21.7841L12.7854 21.758C11.7701 20.9872 11.7283 19.417 11.7218 19.1854C11.711 18.7222 11.7776 18.2605 11.919 17.8193C12.0865 17.2845 12.5868 16.3832 13.5897 15.8317C14.1431 15.5305 14.765 15.3777 15.3949 15.3881V15.3916C15.3867 15.9123 15.3785 16.4333 15.3703 16.9544C15.2643 16.9258 14.6148 16.7622 13.98 17.1618C13.5855 17.4158 13.3063 17.8142 13.2023 18.2717C13.1401 18.4937 13.1266 18.7266 13.1629 18.9543C13.2192 19.2354 13.3518 19.4956 13.5463 19.7063C13.6281 19.8005 13.7194 19.8859 13.8188 19.9611C13.8226 19.9643 13.8265 19.9673 13.8307 19.97C13.9087 20.0302 13.9924 20.0829 14.0805 20.1272L14.0835 20.1297C14.2596 20.3956 14.5136 20.6006 14.8108 20.7165C15.1079 20.8324 15.4337 20.8536 15.7433 20.7772C15.8876 20.7471 16.0278 20.6998 16.1608 20.6363C16.3218 20.5597 16.4695 20.4575 16.5979 20.3337C17.0966 19.8542 17.1696 19.1908 17.173 19.1509L17.1513 11.0246L17.3682 11.0202L18.6707 10.9946H18.6895C18.6944 11.0074 18.6998 11.0202 18.7052 11.033C18.7353 11.1055 18.7713 11.1858 18.8132 11.2725L18.8413 11.3292V11.3336C18.8408 11.3349 18.8408 11.3363 18.8413 11.3376L18.8457 11.3469L18.8501 11.3558C18.8528 11.3615 18.8558 11.3671 18.859 11.3726C18.862 11.379 18.8654 11.3854 18.8689 11.3918C18.8915 11.4361 18.9181 11.482 18.9423 11.5283C18.9605 11.5613 18.9797 11.5943 18.9995 11.6269L19.0206 11.6619L19.0527 11.7146L19.0921 11.7772C19.3175 12.1298 19.5877 12.4516 19.8959 12.7347C20.3457 13.1465 20.869 13.4699 21.4385 13.6879H21.4424C21.4488 14.0531 21.4552 14.4192 21.4611 14.7844L21.4754 15.3679Z" fill="white"/>
<path opacity="0.17" d="M22.0587 13.8618L22.0464 15.9105C21.6471 15.9056 21.25 15.8523 20.8636 15.7518C20.2675 15.5961 19.7052 15.3316 19.2052 14.9717C19.2052 15.1811 19.2082 15.4936 19.2082 15.8735C19.2082 16.3792 19.2082 16.6665 19.2052 16.9716C19.1963 18.8561 19.2432 19.2208 19.0776 19.966C19.0431 20.1457 18.996 20.3227 18.9366 20.4958C18.6182 21.3829 17.9243 22.0935 17.2171 22.4715C17.0198 22.5764 16.8126 22.6618 16.5986 22.7263V10.4953L18.6104 10.4835C18.6089 10.6404 18.6307 10.7967 18.6749 10.9472C18.6799 10.9635 18.6848 10.9788 18.6902 10.9965L18.879 10.993C19.0181 11.4939 19.254 11.9627 19.5734 12.373C19.674 12.5013 19.7826 12.6231 19.8986 12.7377C20.4348 13.1704 21.0509 13.2926 21.4372 13.3291C21.4397 13.4503 21.4427 13.5715 21.4451 13.6928C21.6454 13.7636 21.8504 13.8201 22.0587 13.8618Z" fill="black"/>
</svg>
