<svg width="33" height="33" viewBox="0 0 33 33" fill="none" xmlns="http://www.w3.org/2000/svg">
<path d="M26.6758 16.6896C26.6758 11.1668 22.1986 6.68964 16.6758 6.68964C11.1529 6.68964 6.67578 11.1668 6.67578 16.6896C6.67578 22.2125 11.1529 26.6896 16.6758 26.6896C22.1986 26.6896 26.6758 22.2125 26.6758 16.6896Z" fill="url(#paint0_linear_24100_57124)"/>
<path opacity="0.1" d="M24.202 10.1107C22.7441 12.7871 20.6822 15.5476 18.1059 18.1239C15.5296 20.7002 12.7691 22.7581 10.0967 24.216C9.92918 24.0704 9.76646 23.9186 9.60856 23.7607C8.65417 22.8382 7.89298 21.7349 7.3694 20.5151C6.84582 19.2954 6.57032 17.9836 6.55896 16.6562C6.5476 15.3289 6.80061 14.0126 7.30325 12.7841C7.80588 11.5555 8.54807 10.4393 9.48654 9.5006C10.425 8.56186 11.541 7.81936 12.7694 7.31639C13.9978 6.81341 15.314 6.56003 16.6414 6.57102C17.9687 6.58201 19.2806 6.85714 20.5005 7.38039C21.7204 7.90363 22.8239 8.6645 23.7467 9.61864C23.9046 9.77654 24.0564 9.94057 24.202 10.1107Z" fill="white"/>
<path d="M19.0437 11.4265H14.3068C13.5391 11.4265 12.8028 11.7314 12.26 12.2743C11.7171 12.8172 11.4121 13.5535 11.4121 14.3212V19.058C11.4121 19.8258 11.7171 20.5621 12.26 21.1049C12.8028 21.6478 13.5391 21.9528 14.3068 21.9528H19.0437C19.8114 21.9528 20.5477 21.6478 21.0906 21.1049C21.6334 20.5621 21.9384 19.8258 21.9384 19.058V14.3212C21.9384 13.5535 21.6334 12.8172 21.0906 12.2743C20.5477 11.7314 19.8114 11.4265 19.0437 11.4265ZM21.0174 18.6422C21.0174 19.276 20.7656 19.8837 20.3175 20.3319C19.8694 20.78 19.2616 21.0317 18.6279 21.0317H14.7226C14.0889 21.0317 13.4811 20.78 13.033 20.3319C12.5849 19.8837 12.3332 19.276 12.3332 18.6422V14.737C12.3332 14.1033 12.5849 13.4955 13.033 13.0474C13.4811 12.5993 14.0889 12.3475 14.7226 12.3475H18.6279C19.2616 12.3475 19.8694 12.5993 20.3175 13.0474C20.7656 13.4955 21.0174 14.1033 21.0174 14.737V18.6422Z" fill="white"/>
<path d="M18.5946 14.7893L18.5696 14.7643L18.5485 14.7433C18.051 14.2475 17.3772 13.9693 16.6748 13.9696C16.3201 13.972 15.9694 14.0443 15.6427 14.1823C15.3159 14.3203 15.0196 14.5213 14.7705 14.7739C14.5215 15.0265 14.3247 15.3256 14.1913 15.6543C14.0579 15.9829 13.9906 16.3347 13.9932 16.6893C13.9927 17.4091 14.2764 18.1 14.7827 18.6117C15.0307 18.8627 15.3262 19.0618 15.652 19.1973C15.9777 19.3329 16.3272 19.4022 16.6801 19.4012C17.2093 19.3901 17.7239 19.2252 18.1611 18.9267C18.5983 18.6281 18.9391 18.2088 19.1421 17.7199C19.345 17.231 19.4013 16.6936 19.3041 16.1732C19.2069 15.6528 18.9604 15.172 18.5946 14.7893ZM16.6748 18.4736C16.3209 18.4785 15.9735 18.3781 15.6768 18.1851C15.3802 17.9921 15.1476 17.7152 15.0087 17.3896C14.8698 17.0641 14.8309 16.7046 14.8969 16.3568C14.9629 16.0091 15.1308 15.6889 15.3793 15.4368C15.6278 15.1848 15.9457 15.0124 16.2924 14.9415C16.6392 14.8706 16.9992 14.9044 17.3267 15.0387C17.6542 15.173 17.9343 15.4016 18.1315 15.6955C18.3287 15.9895 18.434 16.3354 18.434 16.6893C18.4358 16.922 18.3916 17.1528 18.3041 17.3684C18.2166 17.584 18.0875 17.7803 17.9242 17.946C17.7608 18.1117 17.5663 18.2436 17.352 18.3341C17.1376 18.4246 16.9075 18.472 16.6748 18.4736Z" fill="white"/>
<path d="M20.1528 13.8444C20.1535 13.9289 20.1375 14.0126 20.1058 14.0909C20.0741 14.1691 20.0272 14.2404 19.968 14.3005C19.9087 14.3606 19.8381 14.4085 19.7603 14.4413C19.6825 14.4741 19.599 14.4913 19.5146 14.4918C19.4309 14.4918 19.348 14.4751 19.2708 14.4428C19.1935 14.4105 19.1234 14.3632 19.0646 14.3037C18.9755 14.2132 18.9148 14.0986 18.8902 13.974C18.8656 13.8494 18.8781 13.7204 18.9262 13.6028C18.9742 13.4853 19.0557 13.3844 19.1606 13.3128C19.2654 13.2411 19.389 13.2018 19.5159 13.1997C19.6645 13.1997 19.8084 13.2518 19.9225 13.3471L19.9357 13.3602C19.9569 13.3775 19.9763 13.3969 19.9936 13.4181L20.008 13.4339C20.1022 13.55 20.1534 13.695 20.1528 13.8444Z" fill="white"/>
<defs>
<linearGradient id="paint0_linear_24100_57124" x1="9.60473" y1="9.61858" x2="23.7468" y2="23.7607" gradientUnits="userSpaceOnUse">
<stop stop-color="#FAE100"/>
<stop offset="0.15" stop-color="#FCB720"/>
<stop offset="0.3" stop-color="#FF7950"/>
<stop offset="0.5" stop-color="#FF1C74"/>
<stop offset="1" stop-color="#6C1CD1"/>
</linearGradient>
</defs>
</svg>
