<svg width="24" height="25" viewBox="0 0 24 25" fill="none" xmlns="http://www.w3.org/2000/svg">
<path d="M10.0701 3.16433L3.14007 8.71431C2.36007 9.33431 1.86007 10.6443 2.03007 11.6243L3.36007 19.5843C3.60007 21.0043 4.96006 22.1543 6.40006 22.1543H17.6001C19.0301 22.1543 20.4001 20.9943 20.6401 19.5843L21.9701 11.6243C22.1301 10.6443 21.6301 9.33431 20.8601 8.71431L13.9301 3.17434C12.8601 2.31434 11.1301 2.31433 10.0701 3.16433Z" stroke="#364152" stroke-width="1.5" stroke-linecap="round" stroke-linejoin="round"/>
<path d="M11.9998 15.8438C13.3805 15.8438 14.4998 14.7245 14.4998 13.3438C14.4998 11.963 13.3805 10.8438 11.9998 10.8438C10.6191 10.8438 9.4998 11.963 9.4998 13.3438C9.4998 14.7245 10.6191 15.8438 11.9998 15.8438Z" stroke="#364152" stroke-width="1.5" stroke-linecap="round" stroke-linejoin="round"/>
</svg>
