<svg width="25" height="25" viewBox="0 0 25 25" fill="none" xmlns="http://www.w3.org/2000/svg">
<path d="M21.25 11.0938H22V7.34375C22 4.92575 20.668 3.59375 18.25 3.59375H6.25C3.832 3.59375 2.5 4.92575 2.5 7.34375V11.0938H3.25C3.939 11.0938 4.5 11.6547 4.5 12.3438C4.5 13.0328 3.939 13.5938 3.25 13.5938H2.5V17.3438C2.5 19.7617 3.832 21.0938 6.25 21.0938H18.25C20.668 21.0938 22 19.7617 22 17.3438V13.5938H21.25C20.561 13.5938 20 13.0328 20 12.3438C20 11.6547 20.561 11.0938 21.25 11.0938ZM20.5 14.9897V17.3438C20.5 18.9207 19.827 19.5938 18.25 19.5938H16V16.8438C16 16.4298 15.664 16.0938 15.25 16.0938C14.836 16.0938 14.5 16.4298 14.5 16.8438V19.5938H6.25C4.673 19.5938 4 18.9207 4 17.3438V14.9897C5.153 14.6627 6 13.6007 6 12.3438C6 11.0868 5.153 10.0248 4 9.69775V7.34375C4 5.76675 4.673 5.09375 6.25 5.09375H14.5V7.84375C14.5 8.25775 14.836 8.59375 15.25 8.59375C15.664 8.59375 16 8.25775 16 7.84375V5.09375H18.25C19.827 5.09375 20.5 5.76675 20.5 7.34375V9.69775C19.347 10.0248 18.5 11.0868 18.5 12.3438C18.5 13.6007 19.347 14.6627 20.5 14.9897ZM16 11.0938V13.5938C16 14.0077 15.664 14.3438 15.25 14.3438C14.836 14.3438 14.5 14.0077 14.5 13.5938V11.0938C14.5 10.6797 14.836 10.3438 15.25 10.3438C15.664 10.3438 16 10.6797 16 11.0938Z" fill="#364152"/>
<path d="M18.25 4.34375C18.25 5.1394 18.5661 5.90246 19.1287 6.46507C19.6913 7.02768 20.4544 7.34375 21.25 7.34375C22.0456 7.34375 22.8087 7.02768 23.3713 6.46507C23.9339 5.90246 24.25 5.1394 24.25 4.34375C24.25 3.5481 23.9339 2.78504 23.3713 2.22243C22.8087 1.65982 22.0456 1.34375 21.25 1.34375C20.4544 1.34375 19.6913 1.65982 19.1287 2.22243C18.5661 2.78504 18.25 3.5481 18.25 4.34375Z" fill="#F04438"/>
</svg>
