<svg width="24" height="25" viewBox="0 0 24 25" fill="none" xmlns="http://www.w3.org/2000/svg">
<path d="M11 18.3436C8.243 18.3436 6 16.1006 6 13.3436C6 11.0556 7.54403 9.06653 9.75403 8.50453C10.281 8.37053 10.833 8.69168 10.969 9.22768C11.106 9.76368 10.781 10.3077 10.246 10.4437C8.92397 10.7797 8 11.9726 8 13.3446C8 14.9986 9.346 16.3446 11 16.3446C12.371 16.3446 13.564 15.4206 13.901 14.0976C14.037 13.5616 14.582 13.2376 15.117 13.3747C15.652 13.5106 15.975 14.0557 15.839 14.5907C15.276 16.8007 13.287 18.3436 11 18.3436ZM20 13.3436C20 13.1256 19.988 12.9086 19.963 12.6906C19.901 12.1426 19.423 11.7427 18.857 11.8107C18.308 11.8727 17.915 12.3686 17.977 12.9176C17.993 13.0596 18 13.2016 18 13.3446C18 17.2046 14.859 20.3446 11 20.3446C7.141 20.3446 4 17.2046 4 13.3446C4 9.48462 7.141 6.34462 11 6.34462C11.143 6.34462 11.286 6.35257 11.43 6.36757C11.973 6.43557 12.473 6.03476 12.534 5.48476C12.595 4.93576 12.199 4.44175 11.65 4.38075C11.434 4.35675 11.216 4.34462 11 4.34462C6.037 4.34462 2 8.38262 2 13.3446C2 18.3066 6.037 22.3446 11 22.3446C15.963 22.3446 20 18.3056 20 13.3436ZM21.462 7.15273C21.385 6.96573 21.202 6.84364 21 6.84364H17.5V3.34364C17.5 3.14164 17.378 2.95873 17.191 2.88173C17.005 2.80373 16.79 2.84664 16.646 2.98964L14.085 5.55068C13.713 5.92268 13.499 6.43874 13.499 6.96474V9.42958L10.292 12.6366C9.90099 13.0276 9.90099 13.6597 10.292 14.0507C10.487 14.2457 10.743 14.3436 10.999 14.3436C11.255 14.3436 11.511 14.2457 11.706 14.0507L14.913 10.8436H17.378C17.904 10.8436 18.42 10.6307 18.792 10.2577L21.353 7.69667C21.496 7.55367 21.539 7.33973 21.462 7.15273Z" fill="#1C76BC"/>
</svg>
