<svg width="25" height="25" viewBox="0 0 25 25" fill="none" xmlns="http://www.w3.org/2000/svg">
<path d="M3.66199 5.57884L2.94806 5.34905H2.94806L3.66199 5.57884ZM2.97827 7.70308L3.69219 7.93287L2.97827 7.70308ZM21.838 5.57884L21.1241 5.80863V5.80863L21.838 5.57884ZM22.5217 7.70308L23.2357 7.47329L22.5217 7.70308ZM10.4064 10.1169C10.1153 9.82216 9.64047 9.81913 9.34572 10.1101C9.05096 10.4012 9.04793 10.876 9.33895 11.1708L10.4064 10.1169ZM16.1612 10.1164C15.8702 9.82153 15.3954 9.81839 15.1005 10.1093C14.8057 10.4003 14.8026 10.8752 15.0935 11.17L16.1612 10.1164ZM3.12533 9.91379L3.73333 9.47466L3.73333 9.47466L3.12533 9.91379ZM11.6227 9.03193C11.7266 8.63097 11.4858 8.22167 11.0849 8.11774C10.6839 8.01381 10.2746 8.2546 10.1707 8.65557L11.6227 9.03193ZM17.3767 9.03193C17.4806 8.63097 17.2399 8.22167 16.8389 8.11774C16.4379 8.01381 16.0286 8.2546 15.9247 8.65557L17.3767 9.03193ZM22.3747 9.91379L21.7667 9.47466V9.47466L22.3747 9.91379ZM22.7235 9.05042L21.9825 8.93478V8.93478L22.7235 9.05042ZM2.7765 9.05042L2.03547 9.16606L2.7765 9.05042ZM4.80507 3.22127L4.35645 2.62024L4.35645 2.62024L4.80507 3.22127ZM2.94806 5.34905L2.26434 7.47329L3.69219 7.93287L4.37592 5.80863L2.94806 5.34905ZM21.1241 5.80863L21.8078 7.93287L23.2357 7.47329L22.5519 5.34905L21.1241 5.80863ZM7.32622 3.59375L18.1738 3.59375V2.09375L7.32622 2.09375V3.59375ZM12.7493 11.0938C11.8304 11.0938 11.0018 10.72 10.4064 10.1169L9.33895 11.1708C10.2057 12.0487 11.4146 12.5938 12.7493 12.5938V11.0938ZM18.5047 11.0938C17.5855 11.0938 16.7566 10.7197 16.1612 10.1164L15.0935 11.17C15.9604 12.0484 17.1696 12.5938 18.5047 12.5938V11.0938ZM6.9953 11.0938C5.76112 11.0938 4.42028 10.4258 3.73333 9.47466L2.51733 10.3529C3.50148 11.7155 5.30603 12.5938 6.9953 12.5938L6.9953 11.0938ZM10.1707 8.65557C9.80796 10.0549 8.52553 11.0938 6.9953 11.0938L6.9953 12.5938C9.21912 12.5938 11.091 11.083 11.6227 9.03193L10.1707 8.65557ZM15.9247 8.65557C15.562 10.0549 14.2796 11.0938 12.7493 11.0938V12.5938C14.9731 12.5938 16.8451 11.083 17.3767 9.03193L15.9247 8.65557ZM21.7667 9.47466C21.0797 10.4258 19.7389 11.0938 18.5047 11.0938V12.5938C20.194 12.5938 21.9985 11.7155 22.9827 10.3529L21.7667 9.47466ZM21.8078 7.93287C21.9949 8.51415 22.0277 8.64513 21.9825 8.93478L23.4645 9.16606C23.5708 8.48525 23.4186 8.04149 23.2357 7.47329L21.8078 7.93287ZM22.9827 10.3529C23.0674 10.2356 23.1827 10.0802 23.2743 9.87421C23.367 9.66567 23.4217 9.44049 23.4645 9.16606L21.9825 8.93478C21.9496 9.14559 21.9209 9.22604 21.9036 9.26486C21.8853 9.30619 21.864 9.33984 21.7667 9.47466L22.9827 10.3529ZM22.5519 5.34905C22.3447 4.70512 22.1714 4.16332 21.9809 3.73928C21.7833 3.2992 21.5371 2.91399 21.1436 2.62024L20.2463 3.82229C20.3585 3.90606 20.4715 4.03961 20.6127 4.35393C20.7611 4.68429 20.9065 5.13252 21.1241 5.80863L22.5519 5.34905ZM18.1738 3.59375C18.8635 3.59375 19.3155 3.59496 19.6605 3.63575C19.9846 3.67408 20.1363 3.74017 20.2463 3.82229L21.1436 2.62024C20.7478 2.32485 20.3107 2.20218 19.8366 2.14613C19.3833 2.09254 18.8277 2.09375 18.1738 2.09375V3.59375ZM2.26434 7.47329C2.08145 8.04149 1.92923 8.48525 2.03547 9.16606L3.51753 8.93478C3.47233 8.64512 3.5051 8.51415 3.69219 7.93287L2.26434 7.47329ZM3.73333 9.47466C3.63596 9.33984 3.61474 9.30619 3.59636 9.26486C3.57911 9.22604 3.55043 9.14559 3.51753 8.93478L2.03547 9.16606C2.0783 9.44049 2.133 9.66567 2.22571 9.87421C2.3173 10.0802 2.43263 10.2356 2.51733 10.3529L3.73333 9.47466ZM4.37592 5.80863C4.59354 5.13252 4.73895 4.68429 4.88735 4.35393C5.02854 4.03961 5.14148 3.90606 5.2537 3.82229L4.35645 2.62024C3.96291 2.91399 3.71674 3.2992 3.51906 3.73928C3.32858 4.16332 3.15532 4.70512 2.94806 5.34905L4.37592 5.80863ZM7.32622 2.09375C6.6723 2.09375 6.11666 2.09254 5.6634 2.14613C5.18932 2.20218 4.75218 2.32485 4.35645 2.62024L5.2537 3.82229C5.36373 3.74017 5.51536 3.67408 5.83952 3.63575C6.18449 3.59496 6.63655 3.59375 7.32622 3.59375V2.09375Z" fill="#364152"/>
<path d="M3.75 10.8438L3.75 15.8438C3.75 18.6722 3.75 20.0864 4.62868 20.9651C5.50736 21.8438 6.92157 21.8438 9.75 21.8438L15.75 21.8438C18.5784 21.8438 19.9926 21.8438 20.8713 20.9651C21.75 20.0864 21.75 18.6722 21.75 15.8438V10.8438" stroke="#364152" stroke-width="1.5"/>
<path d="M7.75 18.3438H11.75" stroke="#364152" stroke-width="1.5" stroke-linecap="round"/>
</svg>
